<svg width="327" height="163" viewBox="0 0 327 163" fill="none" xmlns="http://www.w3.org/2000/svg">
<rect width="327" height="163" rx="20" fill="#FFE0E6"/>
<mask id="mask0_803_7376" style="mask-type:alpha" maskUnits="userSpaceOnUse" x="0" y="0" width="327" height="163">
<rect width="327" height="163" rx="20" fill="#C4D0FB"/>
</mask>
<g mask="url(#mask0_803_7376)">
<path opacity="0.35" d="M400.533 46.6384H265.958C265.958 46.6384 272.595 26.3586 286.447 26.3586C296.821 26.3586 299.324 35.1473 309.282 35.1473C319.241 35.1473 325.912 13 340.97 13C356.814 13 364.63 38.3357 378.92 41.1127C396.466 44.5189 400.533 46.6384 400.533 46.6384Z" fill="white"/>
<path d="M274.236 186.77H419.841C419.841 186.77 415.079 164.448 401.489 164.448C389.762 164.448 379.84 177.758 369.952 177.758C360.064 177.758 355.132 148.278 335.818 148.278C317.851 148.278 303.424 179.216 289.347 181.947C277.213 184.3 274.236 186.77 274.236 186.77Z" fill="#F2F6F9"/>
<path opacity="0.35" d="M97 70.6588L102.848 72.2157C103.102 76.7577 104.819 81.0956 107.743 84.5808C110.667 88.0661 114.64 90.5115 119.069 91.5515C123.497 92.5918 128.144 92.1707 132.312 90.3514C136.483 88.5322 139.951 85.4123 142.2 81.4582L143.101 80.8915C146.342 78.8554 148.641 75.6154 149.494 71.8841C150.345 68.1529 149.682 64.2358 147.645 60.9948C147.276 60.4077 146.689 59.9909 146.011 59.836C145.336 59.6809 144.626 59.8003 144.037 60.168L139.721 62.8804C138.927 60.9365 137.717 59.1899 136.176 57.762C135.668 57.2909 134.992 57.0409 134.299 57.0665C133.605 57.0923 132.951 57.3916 132.477 57.8992L120.287 71.0299H116.511C116.497 69.3972 115.9 67.8229 114.829 66.5907C113.759 65.3587 112.282 64.5492 110.667 64.3084C109.052 64.0674 107.404 64.4107 106.019 65.2766C104.635 66.1424 103.605 67.4738 103.115 69.0313L102.937 69.0777L97 70.6588Z" fill="white"/>
<path opacity="0.35" d="M173.59 45.981L177.05 46.8966C177.202 49.5828 178.218 52.148 179.948 54.2089C181.679 56.2698 184.028 57.7157 186.648 58.3308C189.268 58.9459 192.014 58.697 194.481 57.6217C196.947 56.5462 199 54.7018 200.331 52.3638L200.865 52.0291C202.783 50.8247 204.145 48.9078 204.649 46.6999C205.155 44.4919 204.762 42.1739 203.558 40.2556C203.34 39.9077 202.991 39.6607 202.592 39.5689C202.19 39.4769 201.771 39.5477 201.422 39.7655L198.867 41.3789C198.397 40.2298 197.681 39.1972 196.77 38.3539C196.469 38.0745 196.07 37.9261 195.658 37.9412C195.249 37.9564 194.862 38.1338 194.581 38.4345L187.366 46.2069H185.133C185.133 45.2352 184.786 44.2956 184.153 43.5593C183.518 42.8228 182.641 42.3388 181.681 42.1953C180.719 42.0519 179.739 42.2584 178.918 42.7775C178.095 43.2966 177.488 44.0936 177.206 45.0231L177.101 45.0513L173.59 45.981Z" fill="white"/>
<path d="M298.507 59.3345L252.855 108.515C247.382 114.41 244.475 122.238 244.774 130.277C245.073 138.316 248.553 145.907 254.449 151.379C260.345 156.852 268.173 159.759 276.212 159.46C284.25 159.161 291.841 155.681 297.314 149.785L314.367 131.415C318.954 126.472 322.524 120.675 324.871 114.353C327.218 108.032 328.297 101.309 328.046 94.5706C327.796 87.8318 326.22 81.2084 323.409 75.0786C320.599 68.9489 316.609 63.4326 311.666 58.8451C309.856 57.1655 307.453 56.2736 304.985 56.3653C302.518 56.4571 300.188 57.5251 298.507 59.3345Z" fill="#FFADBC"/>
<path d="M351.756 94.783L361.835 134.55L297.634 136.714L295.492 128.27L351.756 94.783Z" fill="#5E93D1"/>
<path d="M269.864 96.9106L247.052 91.05L218.177 126.223C216.414 128.396 215.107 130.9 214.329 133.588C213.55 136.275 213.321 139.091 213.649 141.869L218.768 183.921L237.478 183.719L231.856 139.775L259.529 120.415C264.599 115.978 267.959 109.739 268.981 102.87L269.864 96.9106Z" fill="#211F5C"/>
<path d="M268.715 56.7098C260.975 52.9688 248.28 52.6764 242.7 53.9953C237.119 55.3142 231.449 77.6108 231.449 77.6108L218.669 95.761L231.186 103.804L246.148 82.344L240.207 77.0381C240.207 77.0381 245.636 85.4376 247.029 91.5462H272.831C272.831 91.5462 271.193 79.446 270.736 72.5247" fill="#FF8FA2"/>
<path d="M217.328 131.384C203.875 131.384 192.968 120.478 192.968 107.024C192.968 93.5706 203.875 82.6646 217.328 82.6646C230.781 82.6646 241.687 93.5706 241.687 107.024C241.687 120.478 230.781 131.384 217.328 131.384Z" fill="#9087E5"/>
<path d="M192.968 107.024C192.968 148.423 226.528 181.985 267.926 181.985C309.325 181.985 342.886 148.423 342.886 107.024" fill="#9087E5"/>
<path d="M242.373 63.9294L238.589 73.2667L242.597 83.4994" stroke="#FFE0E6"/>
<path d="M272.722 91.4998H249.242L229.075 132.886C227.851 135.414 227.142 138.16 226.989 140.965C226.836 143.769 227.243 146.576 228.186 149.222L243.093 191.001H264.185L250.785 141.254L267.942 116.904C271.897 111.243 273.755 104.38 273.196 97.4974L272.722 91.4998Z" fill="#211F5C"/>
<path d="M234.244 96.4266H232.546C231.853 96.4123 231.161 96.4849 230.487 96.6424C229.228 96.9106 228.766 97.8241 226.655 97.927C224.269 98.046 225.983 100.121 227.133 100.347C228.03 100.516 229.111 100.071 229.835 100.627C229.634 101.152 229.595 102.303 226.911 104.57C225.374 105.867 222.676 106.224 223.281 109.434C224.122 111.889 227.948 112.034 229 111.602C232.076 110.342 234.508 107.77 235.776 105.683C236.353 104.679 236.849 103.631 237.263 102.549" fill="#FFCCD7"/>
<path d="M239.291 85.9074L227.978 94.4602L239.055 106.292L264.883 88.6522C264.883 88.6522 273.757 67.2651 267.608 61.2554" fill="#FF8FA2"/>
<path d="M239.83 41.5019C235.639 41.5019 232.241 37.1626 232.241 31.8097C232.241 26.4568 235.639 22.1174 239.83 22.1174C244.021 22.1174 247.419 26.4568 247.419 31.8097C247.419 37.1626 244.021 41.5019 239.83 41.5019Z" fill="#24272D"/>
<path d="M251.285 58.668C250.156 58.6674 249.058 58.2985 248.157 57.6171C247.257 56.9356 246.604 55.9791 246.297 54.8927L241.479 37.892C241.274 37.2307 241.202 36.535 241.27 35.8457C241.337 35.1564 241.542 34.4876 241.871 33.8788C242.201 33.2697 242.65 32.7332 243.191 32.3004C243.731 31.8677 244.353 31.5476 245.02 31.359C245.686 31.1705 246.383 31.1173 247.071 31.2026C247.758 31.2879 248.421 31.51 249.021 31.8557C249.621 32.2015 250.146 32.6639 250.565 33.2157C250.983 33.7675 251.287 34.3975 251.458 35.0686L256.276 52.0714C256.494 52.843 256.53 53.6547 256.382 54.4428C256.234 55.2307 255.905 55.9737 255.421 56.6134C254.938 57.2531 254.313 57.772 253.595 58.1295C252.877 58.4871 252.086 58.6734 251.285 58.674V58.668Z" fill="#FFCCD7"/>
<path d="M246.545 51.1175L245.64 51.3696C244.586 51.6606 243.482 51.7159 242.404 51.5315C241.327 51.347 240.304 50.9275 239.407 50.3028C238.51 49.678 237.762 48.8635 237.216 47.9166C236.669 46.97 236.338 45.9144 236.246 44.8254L235.788 39.4288C235.641 37.6873 236.112 35.9498 237.117 34.5205C238.123 33.0912 239.599 32.0616 241.288 31.6121C243.195 31.1072 245.225 31.3804 246.93 32.3716C248.636 33.3627 249.878 34.9908 250.383 36.8978L251.746 42.0444C252.248 43.9369 251.983 45.9505 251.009 47.649C250.036 49.3475 248.432 50.5938 246.545 51.1175Z" fill="#FFCCD7"/>
<path d="M239.424 40.0498L238.142 44.8032L240.017 44.8374" stroke="#25282D"/>
<path d="M241.687 41.8972C241.185 41.8972 240.778 41.49 240.778 40.9877C240.778 40.4853 241.185 40.0781 241.687 40.0781C242.189 40.0781 242.597 40.4853 242.597 40.9877C242.597 41.49 242.189 41.8972 241.687 41.8972Z" fill="#24272D"/>
<path d="M237.313 41.8972C236.811 41.8972 236.404 41.49 236.404 40.9877C236.404 40.4853 236.811 40.0781 237.313 40.0781C237.815 40.0781 238.223 40.4853 238.223 40.9877C238.223 41.49 237.815 41.8972 237.313 41.8972Z" fill="#24272D"/>
<path d="M241.947 46.6385C241.947 46.6385 243.065 46.576 243.524 45.606" stroke="#25282D"/>
<path d="M283.991 45.848C285 57.6295 275.033 53.7998 275.033 53.7998C275.033 53.7998 281.4 66.7308 267.152 65.6519C252.904 64.573 249.016 54.4512 249.566 48.6633C249.786 46.3562 250.978 44.5694 252.343 42.8451C244.535 41.6452 244.654 36.2888 244.654 36.2888C244.654 36.2888 232.134 41.1531 232.235 31.5597C232.336 21.9663 242.212 18.8908 248.048 18.9916C249.277 19.0173 250.496 19.2288 251.662 19.6188C255.419 20.841 258.329 22.8334 263.314 22.9121C277.088 23.1299 278.411 36.1376 278.411 36.1376C278.411 36.1376 283.314 37.8739 283.991 45.848Z" fill="#24272D"/>
<path d="M248.302 44.5304L248.3 44.5296C246.596 43.8108 245.796 41.8464 246.515 40.1417L247.699 37.3336C248.418 35.6289 250.382 34.8297 252.087 35.5484L252.089 35.5492C253.793 36.2678 254.593 38.2325 253.874 39.9372L252.69 42.745C251.972 44.4497 250.007 45.2489 248.302 44.5304Z" fill="#FFCCD7"/>
<path d="M251.327 37.6643L249.645 41.6453" stroke="#25282D"/>
<path d="M172.279 105.701L193.392 111.324L196.618 112.181C197.47 112.181 198.312 112.014 199.099 111.689C199.885 111.363 200.599 110.886 201.2 110.284C201.803 109.682 202.279 108.968 202.604 108.182C202.931 107.395 203.096 106.552 203.096 105.701H172.279Z" fill="#FFADBC"/>
<path d="M214.113 99.2215C212.621 99.2215 211.413 98.0125 211.413 96.5212C211.413 95.0298 212.621 93.8208 214.113 93.8208C215.603 93.8208 216.813 95.0298 216.813 96.5212C216.813 98.0125 215.603 99.2215 214.113 99.2215Z" fill="#FFADBC"/>
<path d="M172.279 105.702H203.094C203.094 104.851 202.929 104.008 202.604 103.221C202.277 102.435 201.801 101.72 201.198 101.118C200.597 100.516 199.883 100.039 199.097 99.7136C198.31 99.3883 197.467 99.2211 196.616 99.2219L193.39 100.081L172.279 105.702Z" fill="#FFADBC"/>
<path d="M234.373 89.6243L250.486 77.623L254.328 66.5332" stroke="#FFE0E6"/>
<path d="M260.751 91.4777C260.751 91.4777 264.851 89.0859 265.912 85.96C266.972 82.8342 271.155 69.1428 271.155 69.1428" stroke="#FFE0E6"/>
<path d="M248.536 137.124L250.784 141.25L248.536 144.107" stroke="#FFE0E6"/>
<path d="M339.625 68.2394L282.791 103.933C275.978 108.212 271.145 115.021 269.353 122.863C267.561 130.705 268.958 138.938 273.236 145.75C277.515 152.563 284.324 157.396 292.166 159.188C300.008 160.98 308.241 159.583 315.053 155.305L336.285 141.971C341.996 138.384 346.945 133.708 350.848 128.208C354.752 122.709 357.534 116.495 359.036 109.92C360.538 103.346 360.73 96.5397 359.601 89.8909C358.473 83.2422 356.046 76.8808 352.458 71.1701C351.144 69.0808 349.054 67.5985 346.648 67.049C344.242 66.4994 341.716 66.9276 339.625 68.2394Z" fill="#FFADBC"/>
<path d="M324.46 77.6028L282.257 104.155C282.257 104.155 277.52 107.502 275.34 110.904" stroke="#FFE0E6"/>
</g>
</svg>
