<svg width="194" height="136" viewBox="0 0 194 136" fill="none" xmlns="http://www.w3.org/2000/svg">
<path opacity="0.2" fill-rule="evenodd" clip-rule="evenodd" d="M134 12C137.314 12 140 9.31371 140 6C140 2.68629 137.314 0 134 0C130.686 0 128 2.68629 128 6C128 9.31371 130.686 12 134 12Z" fill="white"/>
<path opacity="0.2" fill-rule="evenodd" clip-rule="evenodd" d="M28 171C43.464 171 56 158.464 56 143C56 127.536 43.464 115 28 115C12.536 115 0 127.536 0 143C0 158.464 12.536 171 28 171Z" fill="white"/>
<path opacity="0.1" fill-rule="evenodd" clip-rule="evenodd" d="M172.219 150.125C188.183 150.125 201.125 137.183 201.125 121.219C201.125 105.254 188.183 92.3125 172.219 92.3125C156.254 92.3125 143.312 105.254 143.312 121.219C143.312 137.183 156.254 150.125 172.219 150.125Z" fill="white"/>
<path opacity="0.3" fill-rule="evenodd" clip-rule="evenodd" d="M173 172C200.614 172 223 149.614 223 122C223 94.3858 200.614 72 173 72C145.386 72 123 94.3858 123 122C123 149.614 145.386 172 173 172Z" stroke="white"/>
</svg>
