<svg width="375" height="376" viewBox="0 0 375 376" fill="none" xmlns="http://www.w3.org/2000/svg">
<path opacity="0.1" fill-rule="evenodd" clip-rule="evenodd" d="M338.75 126C364.293 126 385 105.293 385 79.75C385 54.2068 364.293 33.5 338.75 33.5C313.207 33.5 292.5 54.2068 292.5 79.75C292.5 105.293 313.207 126 338.75 126Z" fill="white"/>
<path opacity="0.2" fill-rule="evenodd" clip-rule="evenodd" d="M340 161C384.183 161 420 125.183 420 81C420 36.8172 384.183 1 340 1C295.817 1 260 36.8172 260 81C260 125.183 295.817 161 340 161Z" stroke="white"/>
<path opacity="0.1" fill-rule="evenodd" clip-rule="evenodd" d="M21.75 340C47.2932 340 68 319.293 68 293.75C68 268.207 47.2932 247.5 21.75 247.5C-3.79317 247.5 -24.5 268.207 -24.5 293.75C-24.5 319.293 -3.79317 340 21.75 340Z" fill="white"/>
<path opacity="0.2" fill-rule="evenodd" clip-rule="evenodd" d="M23 375C67.1828 375 103 339.183 103 295C103 250.817 67.1828 215 23 215C-21.1828 215 -57 250.817 -57 295C-57 339.183 -21.1828 375 23 375Z" stroke="white"/>
</svg>
