<svg id="Artboard_30" enable-background="new 0 0 64 64" height="512" viewBox="0 0 64 64" width="512" xmlns="http://www.w3.org/2000/svg"><g><path d="m12 6h-3.997c-1.105 0-2 .895-2 2v52c0 1.105.895 2 2 2h4z" fill="#aaadb9"/><path d="m53.003 35.984v17.016l-10 9h-31c-1.105 0-2-.895-2-2v-56c0-1.105.895-2 2-2h39c1.105 0 2 .895 2 2v20.986z" fill="#e2e7f7"/><path d="m43.003 62v-7c0-1.105.895-2 2-2h8z" fill="#f6f8ff"/><path d="m51.003 2h-36.952c-.032.663-.051 1.329-.051 2 0 22.187 17.207 40.343 39.003 41.882v-9.898-10.998-20.986c0-1.105-.896-2-2-2z" fill="#f6f8ff"/><g fill="#ffc239"><path d="m24.003 5h-10c-.553 0-1 .448-1 1v10c0 .552.447 1 1 1h10c.553 0 1-.448 1-1v-10c0-.552-.447-1-1-1zm-1 10h-8v-8h8z"/><path d="m24.003 19h-10c-.553 0-1 .448-1 1v10c0 .552.447 1 1 1h10c.553 0 1-.448 1-1v-10c0-.552-.447-1-1-1zm-1 10h-8v-8h8z"/><path d="m24.003 33h-10c-.553 0-1 .448-1 1v10c0 .552.447 1 1 1h10c.553 0 1-.448 1-1v-10c0-.552-.447-1-1-1zm-1 10h-8v-8h8z"/><path d="m24.003 47h-10c-.553 0-1 .448-1 1v10c0 .552.447 1 1 1h10c.553 0 1-.448 1-1v-10c0-.552-.447-1-1-1zm-1 10h-8v-8h8z"/></g><g fill="#5490f5"><path d="m27.003 6h7v2h-7z"/><path d="m36.003 6h14v2h-14z"/><path d="m27.003 10h16v2h-16z"/><path d="m45.003 10h5v2h-5z"/><path d="m27.003 14h12v2h-12z"/><path d="m30.003 19h20v2h-20z"/><path d="m27.003 23h20v2h-20z"/><path d="m27.003 27h18v2h-18z"/><path d="m30.003 33h13v2h-13z"/><path d="m27.003 37h12v2h-12z"/></g><path d="m31 45.986 20.293-20.293c.453-.453 1.067-.707 1.707-.707.64 0 1.254.254 1.707.707l2.586 2.586c.453.453.707 1.067.707 1.707 0 .64-.254 1.254-.707 1.707l-20.293 20.293z" fill="#ffc239"/><path d="m31 45.986-1.951 6.482c-.12.42-.003.871.306 1.18.309.309.76.426 1.18.306l6.465-1.968z" fill="#f4c8ad"/><path d="m54.707 25.693c-.453-.453-1.067-.707-1.707-.707s-1.254.254-1.707.707l-20.293 20.293 3.007 3.007 22-22z" fill="#ffd55d"/><path d="m31 45.986-1.951 6.482c-.12.419-.003.87.305 1.178l4.653-4.653z" fill="#fbdac2"/><path d="m58 29.986c0-.64-.254-1.254-.707-1.707l-2.586-2.586c-.453-.453-1.067-.707-1.707-.707s-1.254.254-1.707.707l-3.293 3.293 6 6 3.293-3.293c.453-.452.707-1.066.707-1.707z" fill="#595a5d"/><path d="m56.007 26.993-1.3-1.3c-.453-.453-1.067-.707-1.707-.707s-1.254.254-1.707.707l-3.293 3.293 3.007 3.007z" fill="#7a7b7d"/></g><g><path d="m53.003 35.984v17.016l-10 9h-31c-1.105 0-2-.895-2-2v-56c0-1.105.895-2 2-2h39c1.105 0 2 .895 2 2v20.986z" fill="#e2e7f7"/><path d="m43.003 62v-7c0-1.105.895-2 2-2h8z" fill="#f6f8ff"/><path d="m51.003 2h-36.952c-.032.663-.051 1.329-.051 2 0 22.187 17.207 40.343 39.003 41.882v-9.898-10.998-20.986c0-1.105-.896-2-2-2z" fill="#f6f8ff"/><g fill="#ffc239"><path d="m24.003 5h-10c-.553 0-1 .448-1 1v10c0 .552.447 1 1 1h10c.553 0 1-.448 1-1v-10c0-.552-.447-1-1-1zm-1 10h-8v-8h8z"/><path d="m24.003 19h-10c-.553 0-1 .448-1 1v10c0 .552.447 1 1 1h10c.553 0 1-.448 1-1v-10c0-.552-.447-1-1-1zm-1 10h-8v-8h8z"/><path d="m24.003 33h-10c-.553 0-1 .448-1 1v10c0 .552.447 1 1 1h10c.553 0 1-.448 1-1v-10c0-.552-.447-1-1-1zm-1 10h-8v-8h8z"/><path d="m24.003 47h-10c-.553 0-1 .448-1 1v10c0 .552.447 1 1 1h10c.553 0 1-.448 1-1v-10c0-.552-.447-1-1-1zm-1 10h-8v-8h8z"/></g><g fill="#5490f5"><path d="m27.003 6h7v2h-7z"/><path d="m36.003 6h14v2h-14z"/><path d="m27.003 10h16v2h-16z"/><path d="m45.003 10h5v2h-5z"/><path d="m27.003 14h12v2h-12z"/><path d="m30.003 19h20v2h-20z"/><path d="m27.003 23h20v2h-20z"/><path d="m27.003 27h18v2h-18z"/><path d="m30.003 33h13v2h-13z"/><path d="m27.003 37h12v2h-12z"/></g><path d="m31 45.986 20.293-20.293c.453-.453 1.067-.707 1.707-.707.64 0 1.254.254 1.707.707l2.586 2.586c.453.453.707 1.067.707 1.707 0 .64-.254 1.254-.707 1.707l-20.293 20.293z" fill="#ffc239"/><path d="m31 45.986-1.951 6.482c-.12.42-.003.871.306 1.18.309.309.76.426 1.18.306l6.465-1.968z" fill="#f4c8ad"/><path d="m54.707 25.693c-.453-.453-1.067-.707-1.707-.707s-1.254.254-1.707.707l-20.293 20.293 3.007 3.007 22-22z" fill="#ffd55d"/><path d="m31 45.986-1.951 6.482c-.12.419-.003.87.305 1.178l4.653-4.653z" fill="#fbdac2"/><path d="m58 29.986c0-.64-.254-1.254-.707-1.707l-2.586-2.586c-.453-.453-1.067-.707-1.707-.707s-1.254.254-1.707.707l-3.293 3.293 6 6 3.293-3.293c.453-.452.707-1.066.707-1.707z" fill="#595a5d"/><path d="m56.007 26.993-1.3-1.3c-.453-.453-1.067-.707-1.707-.707s-1.254.254-1.707.707l-3.293 3.293 3.007 3.007z" fill="#7a7b7d"/></g><g><path d="m51.003 1h-39c-1.654 0-3 1.346-3 3v1h-1c-1.654 0-3 1.346-3 3v52c0 1.654 1.346 3 3 3h4 31c.247 0 .485-.091.669-.257l10-9c.211-.189.331-.459.331-.743v-16.602l3.997-3.997c.645-.645 1-1.502 1-2.415s-.355-1.77-1-2.414l-2.586-2.586c-.397-.397-.889-.656-1.411-.809v-20.177c0-1.654-1.346-3-3-3zm-44 59v-52c0-.551.448-1 1-1h1v53c0 .352.072.686.184 1h-1.184c-.552 0-1-.449-1-1zm37-.245v-4.755c0-.551.448-1 1-1h5.394zm8-7.755h-7c-1.654 0-3 1.346-3 3v6h-30c-.552 0-1-.449-1-1v-56c0-.551.448-1 1-1h39c.552 0 1 .449 1 1v20.175c-.525.152-1.018.413-1.417.811l-8.014 8.014h-12.569v2h10.569l-2 2h-11.569v2h9.569l-6.279 6.279c-.117.117-.203.261-.251.419l-1.954 6.495c-.221.769-.006 1.597.56 2.162.417.417.977.643 1.557.643.206 0 .415-.029.621-.088l6.466-1.967c.157-.048.3-.133.416-.25l14.296-14.296v13.603zm-15.003-1.428-4.586-4.586 15.586-15.585 4.586 4.586zm-5.525-2.696 3.639 3.639-4.856 1.477c-.07.022-.146 0-.197-.051s-.071-.127-.055-.185zm25.111-18.889c.268.267.414.622.414 1s-.146.733-.414 1l-2.586 2.585-4.586-4.586 2.586-2.585c.535-.535 1.465-.535 2 0z"/><path d="m24.003 5h-10c-.553 0-1 .448-1 1v10c0 .552.447 1 1 1h10c.553 0 1-.448 1-1v-10c0-.552-.447-1-1-1zm-1 10h-8v-8h8z"/><path d="m24.003 19h-10c-.553 0-1 .448-1 1v10c0 .552.447 1 1 1h10c.553 0 1-.448 1-1v-10c0-.552-.447-1-1-1zm-1 10h-8v-8h8z"/><path d="m24.003 33h-10c-.553 0-1 .448-1 1v10c0 .552.447 1 1 1h10c.553 0 1-.448 1-1v-10c0-.552-.447-1-1-1zm-1 10h-8v-8h8z"/><path d="m24.003 47h-10c-.553 0-1 .448-1 1v10c0 .552.447 1 1 1h10c.553 0 1-.448 1-1v-10c0-.552-.447-1-1-1zm-1 10h-8v-8h8z"/><path d="m27.003 6h7v2h-7z"/><path d="m36.003 6h14v2h-14z"/><path d="m27.003 10h16v2h-16z"/><path d="m45.003 10h5v2h-5z"/><path d="m27.003 14h12v2h-12z"/><path d="m30.003 19h20v2h-20z"/><path d="m27.003 23h20v2h-20z"/><path d="m27.003 27h18v2h-18z"/></g></svg>