<?xml version="1.0" encoding="iso-8859-1"?>
<!-- Generator: Adobe Illustrator 19.0.0, SVG Export Plug-In . SVG Version: 6.00 Build 0)  -->
<svg version="1.1" id="Capa_1" xmlns="http://www.w3.org/2000/svg" xmlns:xlink="http://www.w3.org/1999/xlink" x="0px" y="0px"
	 viewBox="0 0 512.135 512.135" style="enable-background:new 0 0 512.135 512.135;" xml:space="preserve">
<path style="fill:#FFD15C;" d="M221.867,253.934l9.6,7.467c0,0,12.8,25.6,11.733,35.2c-1.067,9.6-2.133,9.6,0,16
	c2.133,6.4,8.533,17.067,8.533,17.067s3.2,6.4-3.2,9.6c-6.4,3.2-7.467,2.133-7.467,2.133s4.267,12.8,0,12.8c0,0,4.267,5.333,0,7.467
	c-4.267,2.133-4.267,13.867-4.267,18.133s-5.333,11.733-18.133,8.533c-12.8-3.2-21.333-6.4-21.333-6.4l-12.8,16L160,432.067
	l-49.067-71.467c0,0,3.2-7.467,6.4-9.6v-4.267l3.2-7.467c0,0,1.067-74.667,23.467-87.467
	C166.4,239.001,221.867,253.934,221.867,253.934z"/>
<polygon style="fill:#ADB3BA;" points="150.4,512.067 130.133,436.334 187.733,423.534 206.933,483.267 204.8,512.067 "/>
<path style="fill:#344A5E;" d="M188.8,512.067c-4.267-21.333-9.6-48-10.667-57.6c-1.067-12.8,1.067-52.267,1.067-52.267l5.333-4.267
	c25.6,17.067,27.733,58.667,29.867,66.133c1.067,7.467,10.667,21.333,14.933,29.867c2.133,4.267,7.467,11.733,12.8,18.133
	L188.8,512.067L188.8,512.067z"/>
<polygon style="fill:#CED6E0;" points="179.2,402.201 165.333,416.067 170.667,447.001 187.733,423.534 "/>
<path style="fill:#E8EAE9;" d="M117.333,351.001c0,0-4.267,3.2-2.133,7.467c2.133,5.333,66.133,70.4,66.133,70.4L144,461.934
	l-41.6-88.533c-1.067-3.2-1.067-6.4,1.067-8.533C106.667,359.534,112,353.134,117.333,351.001z"/>
<g>
	<path style="fill:#415A6B;" d="M141.867,425.667c4.267,12.8,17.067,59.733,24.533,86.4H0l0,0c0,0,5.333-58.667,28.8-87.467
		c23.467-28.8,61.867-51.2,61.867-51.2s18.133-20.267,22.4-19.2c0,0-4.267,3.2-2.133,8.533
		C113.067,367.001,136.533,408.601,141.867,425.667z"/>
	<path style="fill:#415A6B;" d="M230.4,261.401L230.4,261.401c-1.067,0-19.2-3.2-27.733-6.4c-8.533-3.2-10.667,2.133-8.533,9.6
		c2.133,5.333,0,19.2-5.333,29.867c-5.333,10.667-9.6,33.067-9.6,33.067l-7.467-2.133c0,0,4.267-20.267-8.533-27.733
		c-12.8-7.467-20.267,10.667-21.333,23.467c-1.067,12.8-7.467,26.667-24.533,25.6c0,0-3.2-17.067-8.533-30.933
		c-5.333-13.867-17.067-41.6-2.133-69.333s52.267-32,69.333-30.933c13.867,1.067,35.2,6.4,56.533,21.333
		C242.133,244.334,240,257.134,230.4,261.401z"/>
</g>
<path style="fill:#FFD15C;" d="M370.133,379.801c0,0-10.667-3.2-16-3.2c-4.267,0-11.733-7.467-12.8-13.867
	c-1.067-7.467-7.467-6.4-4.267-10.667c0,0-2.133-1.067-2.133-5.333c0-4.267-1.067-9.6-1.067-9.6s-9.6,0-11.733-2.133
	c-2.133-2.133-1.067-7.467,0-12.8s5.333-13.867,4.267-19.2c-2.133-5.333-6.4-6.4-6.4-9.6c0-2.133,1.067-32,5.333-41.6
	c4.267-9.6,23.467-16,23.467-16h28.8l53.333,42.667l12.8,53.333c0,0,1.067,14.933,3.2,19.2c2.133,4.267,2.133,4.267,2.133,4.267
	l-70.4,25.6L370.133,379.801z"/>
<path style="fill:#344A5E;" d="M443.733,330.734c0,0-14.933-3.2-21.333-27.733c-6.4-24.533-14.933-28.8-22.4-26.667
	c-7.467,2.133-13.867,16-11.733,23.467H380.8c0,0,0-17.067-7.467-23.467c-7.467-6.4-14.933-4.267-17.067-12.8
	c-2.133-7.467-4.267-13.867-14.933-12.8c-11.733,0-20.267,12.8-20.267,19.2c0,0-10.667-5.333-11.733-17.067s24.533-29.867,32-35.2
	c7.467-5.333,28.8-19.2,53.333-14.933c25.6,4.267,36.267,17.067,42.667,27.733s10.667,38.4,9.6,48
	C444.8,287.001,441.6,320.067,443.733,330.734z"/>
<path style="fill:#E8EAE9;" d="M450.133,356.334l-1.067-9.6c0-2.133-2.133-3.2-4.267-2.133c-5.333,1.067-18.133,4.267-29.867,10.667
	c-13.867,7.467-41.6,24.533-49.067,28.8c-1.067,1.067-1.067,2.133-1.067,3.2l1.067,1.067l-5.333,5.333
	c-1.067,1.067-1.067,2.133-1.067,3.2c1.067,5.333,5.333,19.2,4.267,21.333c-2.133,2.133,2.133,22.4,2.133,22.4l19.2-17.067
	L450.133,356.334z"/>
<path style="fill:#344A5E;" d="M322.133,512.067c13.867-35.2,27.733-70.4,35.2-78.933c12.8-14.933,45.867-46.933,64-61.867
	c18.133-14.933,30.933-18.133,30.933-18.133c7.467,10.667,7.467,21.333,7.467,21.333s28.8,14.933,38.4,27.733
	c9.6,12.8,14.933,33.067,13.867,72.533c0,11.733-4.267,24.533-8.533,37.333L322.133,512.067L322.133,512.067z"/>
<path style="fill:#415A6B;" d="M385.067,512.067c2.133-5.333,4.267-11.733,6.4-17.067c6.4-18.133,20.267-46.933,29.867-66.133
	c17.067-33.067,64-33.067,81.067,0c0,0,0,1.067,1.067,1.067c10.667,24.533-1.067,58.667-12.8,81.067h-105.6V512.067z"/>
<path style="fill:#F3705A;" d="M422.4,91.801c0,49.067-49.067,89.6-109.867,91.733l-61.867,44.8v-56.533
	c-35.2-16-57.6-45.867-57.6-80c0-51.2,51.2-91.733,115.2-91.733C371.2,0.067,422.4,41.667,422.4,91.801z"/>
<g>
	<circle style="fill:#FFFFFF;" cx="244.267" cy="91.801" r="21.333"/>
	<circle style="fill:#FFFFFF;" cx="308.267" cy="91.801" r="21.333"/>
	<circle style="fill:#FFFFFF;" cx="371.2" cy="91.801" r="21.333"/>
</g>
<g>
</g>
<g>
</g>
<g>
</g>
<g>
</g>
<g>
</g>
<g>
</g>
<g>
</g>
<g>
</g>
<g>
</g>
<g>
</g>
<g>
</g>
<g>
</g>
<g>
</g>
<g>
</g>
<g>
</g>
</svg>
