<svg id="Layer_1" enable-background="new 0 0 36 36" height="512" viewBox="0 0 36 36" width="512" xmlns="http://www.w3.org/2000/svg"><g id="_x39_"><g><path d="m2.3 9.7 17.6-2.7c.4 0 .9.2 1.1.6l11.8 19.6c.2.4 0 .9-.4 1l-19.4 3.5z" fill="#8a4852"/><path d="m15 28.3c-.1.1-2.2 3.6-2.1 3.4l-10.7-21.8c-.2-.4-.3-.9-.2-1.4.2-.9.8-1.6 1.6-2.1.1-.1.3-.2.5-.2z" fill="#31445b"/><g fill="#f3f1fc"><path d="m5.6 12.2c-.2.2-.4.5-.5.9 0 .1-.2.1-.2 0l-.9-1.8c-.1-.1-.1-.2 0-.4.1-.4.3-.7.5-1 .1-.1.2-.1.2 0l1 2c-.1.2-.1.3-.1.3z"/><path d="m8.4 17.7.4.8v.2c-.3.2-.4.6-.5 1 0 .1-.1.1-.2 0l-.3-.6c-.1-.1-.1-.2-.1-.3 0-.5.2-.9.5-1.1 0-.1.1-.1.2 0z"/><path d="m9.8 20.7.4.8v.2c-.2.2-.4.5-.5 1 0 .1-.1.1-.2 0l-.3-.7c0-.1-.1-.2 0-.2.1-.5.2-.8.5-1.1 0-.1.1-.1.1 0z"/><path d="m11.3 23.6c.3.6 1.5 3.1 1.8 3.6v.2c-.3.2-.4.5-.5 1 0 .1-.1.1-.2 0l-1.7-3.5c0-.1-.1-.2-.1-.3.1-.4.2-.8.5-1.1 0 0 .1 0 .2.1z"/></g><path d="m32.3 28.2-18.7 3.8c-.4.1-.8-.2-.7-.6.1-1.2 1.2-2.8 2.1-3.1l16.8-2.7 1 1.6c.2.4 0 .9-.5 1z" fill="#111d33"/><path d="m14 30.1c.2-.6.7-1.5 1.6-2.1l17.6-2.8c-.9.6-1.2 1.2-1.2 1.9 0 .1-.1.3-.2.3l-17.4 3.2c-.2 0-.5-.3-.4-.5z" fill="#f8f9fe"/><path d="m14.9 29.5 17.4-3.2c-.1.3-.2.5-.2.8 0 .1-.1.3-.2.3l-17.4 3.2c-.3 0-.5-.2-.4-.5s.2-.6.4-.9c0 .2.2.3.4.3z" fill="#e9e7fc"/><path d="m32 26.8c.1 0 .1 0 0 0 .1.1.1.2.1.2 0 .1-.1.3-.2.3l-17.4 3.2c-.3 0-.5-.2-.4-.5 0-.1.1-.2.1-.4 0 .2.2.3.4.3z" fill="#d0cef2"/><path d="m33.5 25.3-16.3 2.6-10.9-22 15.5-1.9c.4-.1.8.2 1 .5l11.1 19.8c.2.5 0 .9-.4 1z" fill="#f45170"/><path d="m31.8 20.6c-1 .2-2.1.2-3.1.2-9.1-.3-15.8-7.1-17.3-15.5l-5.1.6 10.9 22 16.3-2.6c.4-.1.7-.5.4-.9z" fill="#e93565"/><path d="m24.8 25.2c0 .1-.1.2-.2.2-1.5.5-3 .7-4.5 1-.6 0-1.5.4-2 0-.7-.6-.9-1.9-1.3-2.8-.1-.2.2-.3.3-.2.5.7.9 1.6 1.4 2.2h.2c1.9-.4 3.8-.6 5.7-.7.3 0 .4.1.4.3z" fill="#fff" opacity=".7"/><path d="m25.8 17.2c-.1 0-9.7 1.6-9.1 1.5-.4.1-.7-.1-.9-.5l-2.7-5.4c-.2-.4 0-.9.5-.9.1 0 9.5-1.4 8.9-1.3.4-.1.7.1.9.4l2.9 5.3c.2.3 0 .8-.5.9z" fill="#f8f9fe"/><path d="m19.8 18.1-3.1.5c-.4.1-.7-.1-.9-.5l-2.7-5.4c-.2-.4 0-.9.5-.9h.2c1.5 2.6 3.5 4.8 6 6.3z" fill="#f3f1fc"/><g fill="#d0cef2"><path d="m21.8 13.9c-1 .2-5.1.8-5.2.8-.3 0-.6-.2-.6-.6-.1-.4.2-.7.5-.8l5-.8c.4-.1.7.2.8.6s-.1.7-.5.8z"/><path d="m23.6 15.6c.1.4-.2.7-.5.8-5 .9-5.1.9-5.3.9-.3 0-.6-.2-.6-.5-.1-.4.2-.7.5-.8l5.1-.9c.4-.1.8.1.8.5z"/></g><g fill="#e9e7fc"><path d="m21.6 13.5c-1 .2-5.1.8-5.2.8-.3 0-.6-.2-.6-.6-.1-.4.2-.7.5-.8l5-.8c.4-.1.7.2.8.6s-.1.8-.5.8z"/><path d="m23.4 15.2c.1.4-.2.7-.5.8l-5.1.9c-.1 0-.1 0-.1 0-.3 0-.6-.2-.6-.5-.1-.4.2-.7.5-.8l5.1-.9c.3-.1.7.2.7.5z"/></g><g fill="#dedffb"><path d="m22.2 12.8c.1.4-.2.7-.5.8-1 .2-5.1.8-5.2.8-.3 0-.5-.2-.6-.5 3.1-.5 5.2-.8 5-.8.4-.1.6-.4.5-.8v-.1c.4-.1.7.2.8.6z"/><path d="m23.4 15.2c.1.4-.2.7-.5.8-5 .9-5.1.9-5.3.9-.3 0-.5-.2-.6-.5.1 0-.1 0 5.1-.9.4-.1.6-.4.5-.8 0 0 0 0 0-.1.5 0 .8.3.8.6z"/></g><path d="m17.2 27.9c-.1 0-2.3.4-2.2.4l-10.9-22.1c.1 0 2.4-.3 2.2-.3z" fill="#31445b"/><g><path d="m15 28.3c-.2 0-.3.1-.5.2l-10.9-22.1c.1-.1.3-.2.5-.2l.5-.1 10.9 22z" fill="#1d2943"/></g></g></g></svg>