<svg id="Capa_1" enable-background="new 0 0 512.036 512.036" height="512" viewBox="0 0 512.036 512.036" width="512" xmlns="http://www.w3.org/2000/svg"><g><g><path d="m115.804 102.962 52.912-52.912c6.001-6.001 3.605-16.219-4.439-18.926l-35.636-11.992c-27.064-9.108-52.863 16.691-43.755 43.755l11.992 35.636c2.707 8.044 12.925 10.441 18.926 4.439z" fill="#fc8978"/></g><g><path d="m349.343 31.124 35.636-11.992c27.064-9.108 52.863 16.691 43.755 43.755l-11.992 35.636c-2.707 8.044-12.924 10.441-18.926 4.439l-52.913-52.912c-6.001-6.002-3.604-16.219 4.44-18.926" fill="#ffb2a6"/></g><g><path d="m370.531 450.359h-227.442c-32.753 0-59.551-26.798-59.551-59.551v-125.613c0-7.064 5.779-12.843 12.843-12.843h320.859c7.064 0 12.843 5.779 12.843 12.843v125.614c0 32.752-26.798 59.55-59.552 59.55z" fill="#f9d171"/></g><g><path d="m446.418 190.273c-3.335-101.506-86.659-182.773-188.976-182.773s-185.642 81.267-188.977 182.773z" fill="#858586"/></g><g><path d="m54.662 278.441c-20.828 0-37.713-16.885-37.713-37.713v-16.317c0-20.828 16.885-37.713 37.713-37.713 20.828 0 37.713 16.885 37.713 37.713v16.317c0 20.829-16.885 37.713-37.713 37.713z" fill="#fc8978"/></g><g><path d="m138.421 304.429h-48.293c-18.279 0-33.096-14.818-33.096-33.096v-73.06c0-18.279 14.818-33.096 33.096-33.096h48.294c18.279 0 33.096 14.818 33.096 33.096v73.06c-.001 18.279-14.818 33.096-33.097 33.096z" fill="#ffb2a6"/></g><g><path d="m457.374 278.441c20.828 0 37.713-16.885 37.713-37.713v-16.317c0-20.828-16.884-37.713-37.713-37.713-20.828 0-37.713 16.885-37.713 37.713v16.317c.001 20.829 16.885 37.713 37.713 37.713z" fill="#fc8978"/></g><g><path d="m373.615 304.429h48.294c18.279 0 33.096-14.818 33.096-33.096v-73.06c0-18.279-14.818-33.096-33.096-33.096h-48.294c-18.279 0-33.096 14.818-33.096 33.096v73.06c0 18.279 14.817 33.096 33.096 33.096z" fill="#ffb2a6"/></g><g><path d="m335.044 504.482 46.233-97.989c-7.58-9.889-16.277-18.877-25.907-26.772-27.823-22.81-63.407-36.504-102.192-36.504s-74.369 13.694-102.192 36.504c-28.299 23.201-48.57 55.832-55.996 93.099-3.272 16.419 9.427 31.698 26.169 31.698h213.921z" fill="#f0f0f0"/></g><g><path d="m165.035 472.836c7.426-37.269 27.698-69.903 56-93.106 19.095-15.654 41.845-27.014 66.775-32.602-11.399-2.555-23.254-3.905-35.424-3.905-38.788 0-74.374 13.695-102.199 36.507-28.301 23.202-48.574 55.836-56 93.106-3.272 16.42 9.428 31.7 26.171 31.7h26.983 43.866c-16.744 0-29.444-15.28-26.172-31.7z" fill="#e5e5e5"/></g><g><circle cx="257.442" cy="368.401" fill="#ffcdbe" r="44.75"/></g><g><circle cx="257.102" cy="218.631" fill="#ffeee5" r="151.491"/></g><g><path d="m148.426 208.71c0-52.872 22.965-100.429 59.551-133.422-59.553 20.405-102.367 76.871-102.367 143.342 0 80.846 63.331 146.894 143.088 151.255-59.471-29.682-100.272-90.705-100.272-161.175z" fill="#ffdecf"/></g><g><g><path d="m205.019 271.137c0 13.481-13.725 24.411-30.653 24.411-16.93 0-30.654-10.93-30.654-24.411s13.724-24.411 30.654-24.411c16.928 0 30.653 10.93 30.653 24.411" fill="#ffa1ac"/></g><g><path d="m309.865 271.137c0 13.481 13.724 24.411 30.652 24.411 16.931 0 30.655-10.93 30.655-24.411s-13.723-24.411-30.655-24.411c-16.928 0-30.652 10.93-30.652 24.411" fill="#ffa1ac"/></g><g><path d="m192.23 255.139c-4.143 0-7.5-3.358-7.5-7.5v-12.531c0-4.142 3.357-7.5 7.5-7.5s7.5 3.358 7.5 7.5v12.531c0 4.142-3.357 7.5-7.5 7.5z"/></g><g><path d="m322.654 255.139c-4.143 0-7.5-3.358-7.5-7.5v-12.531c0-4.142 3.357-7.5 7.5-7.5s7.5 3.358 7.5 7.5v12.531c0 4.142-3.358 7.5-7.5 7.5z"/></g><g><path d="m257.442 262.597c-8.758 0-17.086-3.792-22.847-10.404-2.722-3.123-2.396-7.861.728-10.582 3.122-2.72 7.86-2.396 10.581.728 2.912 3.342 7.117 5.259 11.538 5.259 4.42 0 8.625-1.917 11.538-5.259 2.723-3.123 7.459-3.448 10.582-.726 3.123 2.721 3.448 7.459.727 10.582-5.763 6.61-14.09 10.402-22.847 10.402z"/></g></g><g><path d="m417.658 504.5h-83.399c-11.561 0-20.934-9.372-20.934-20.934v-59.712c0-13.053 10.582-23.635 23.635-23.635h77.997c13.053 0 23.635 10.582 23.635 23.635v59.712c-.001 11.561-9.373 20.934-20.934 20.934z" fill="#858586"/></g><g><path d="m359.824 483.566v-59.712c0-13.053 10.582-23.635 23.635-23.635h-46.5c-13.053 0-23.635 10.582-23.635 23.635v59.712c0 11.561 9.372 20.934 20.934 20.934h46.5c-11.561 0-20.934-9.373-20.934-20.934z" fill="#666667"/></g><g><circle cx="397.706" cy="442.746" fill="#f0f0f0" r="15"/></g><g><path d="m257.106 49.685c-79.891 0-146.563 56.556-162.188 131.814-.851 4.097-.014 8.417 2.444 11.803.014.019.028.038.042.057 21.211 29.104 79.02 23.098 129.12-13.414 11.595-8.451 21.758-17.796 30.273-27.528 8.515 9.732 18.677 19.077 30.273 27.528 50.101 36.513 107.91 42.519 129.12 13.414.173-.237.343-.476.51-.717 2.409-3.472 3.317-7.786 2.438-11.919-15.92-74.871-82.415-131.038-162.032-131.038z" fill="#fce3a0"/></g><g><path d="m261.287 49.741c-1.39-.034-2.783-.056-4.181-.056-79.891 0-146.563 56.556-162.188 131.813-.851 4.097-.014 8.417 2.444 11.803.014.019.028.038.042.057 10.342 14.191 29.397 20.012 52.005 18.041.165-73.902 46.604-136.926 111.878-161.658z" fill="#f9d171"/></g><g><path d="m397.706 420.246c-12.406 0-22.5 10.093-22.5 22.5s10.094 22.5 22.5 22.5 22.5-10.093 22.5-22.5-10.094-22.5-22.5-22.5zm0 30c-4.136 0-7.5-3.364-7.5-7.5s3.364-7.5 7.5-7.5 7.5 3.364 7.5 7.5-3.365 7.5-7.5 7.5z"/><path d="m502.586 240.729v-16.317c0-24.809-20.087-45.007-44.85-45.203-1.628-3.048-3.632-5.864-5.953-8.388.239-.934.303-1.93.154-2.944-3.793-25.906-12.755-50.624-26.129-72.781l10.033-29.816c5.128-15.239 1.251-31.768-10.118-43.137-11.369-11.37-27.9-15.246-43.138-10.119l-32.767 11.026c-28.227-15.027-59.917-23.05-92.376-23.05-32.681 0-64.528 8.114-92.868 23.31l-33.54-11.287c-15.238-5.127-31.768-1.25-43.138 10.119-11.369 11.369-15.246 27.899-10.118 43.137l10.118 30.067c.117.348.265.675.426.993-13.014 21.925-21.708 46.302-25.409 71.837-3.469 3.14-6.391 6.872-8.613 11.031-24.763.196-44.85 20.394-44.85 45.203v16.317c0 24.116 18.98 43.881 42.785 45.146 4.18 10.854 12.887 19.477 23.802 23.53v81.404c0 18.287 7.497 35.675 20.691 48.329-4.36 10.359-7.69 21.156-9.897 32.233-1.99 9.986.585 20.244 7.065 28.144 6.528 7.958 16.173 12.522 26.461 12.522l297.3-.036c15.679 0 28.434-12.755 28.434-28.434v-35.738c14.398-7.47 26.748-21.395 35.858-40.507 9.612-20.165 14.693-44.245 14.693-69.637 0-21.996-3.863-43.155-11.185-61.562 10.426-8.289 17.129-21.069 17.129-35.392zm-80.084 152.92c-2.417-.604-4.944-.929-7.545-.929h-36.117c-5.982-6.758-12.527-13.073-19.5-18.789-7.655-6.277-15.852-11.848-24.457-16.679 20.045-11.292 37.405-26.802 50.873-45.322h36.153c.226 0 .449-.013.674-.017v78.896c0 .947-.03 1.894-.081 2.84zm-165.4-31.027c-79.397 0-143.991-64.594-143.991-143.991 0-1.413.027-2.83.069-4.247 8.056 3.235 17.385 4.919 27.756 4.919 3.541 0 7.201-.194 10.97-.585 25.684-2.668 53.753-14.286 79.036-32.712 9.427-6.87 18.096-14.414 25.856-22.495 7.762 8.082 16.431 15.626 25.855 22.495 25.283 18.426 53.353 30.044 79.036 32.712 15.077 1.566 28.409-.034 39.326-4.558.046 1.492.077 2.983.077 4.471 0 79.397-64.593 143.991-143.99 143.991zm37.27 10.577c-2.363 18.28-18.017 32.452-36.93 32.452-18.854 0-34.47-14.083-36.909-32.28 11.746 2.775 23.988 4.251 36.569 4.251 12.833 0 25.311-1.539 37.27-4.423zm127.537-76.27h-26.476c13.142-23.127 20.659-49.85 20.659-78.298 0-4.484-.2-8.997-.573-13.45 2.497-2.22 4.751-4.687 6.733-7.407.207-.284.41-.569.609-.856 3.594-5.179 4.91-11.65 3.612-17.755-.448-2.11-.937-4.207-1.462-6.291 12.654 1.537 22.493 12.339 22.493 25.401v73.061c0 14.113-11.482 25.595-25.595 25.595zm-34.539-270.689c9.951-3.349 20.324-.916 27.748 6.508 7.423 7.424 9.856 17.796 6.508 27.747l-6.36 18.901c-8.379-11.276-17.99-21.709-28.73-31.069-6.301-5.491-12.92-10.538-19.801-15.142zm-295.375 34.255c-3.349-9.95-.915-20.323 6.508-27.747 7.424-7.424 17.794-9.858 27.748-6.508l21.47 7.225c-7.142 4.808-14 10.098-20.515 15.865-10.659 9.435-20.175 19.922-28.456 31.237zm165.447-45.495c86.039 0 160.746 61.635 177.869 144.96-4.199-1.473-8.706-2.284-13.402-2.284h-1.506c-8.736-24.784-23.026-47.3-42.071-65.976-2.956-2.899-7.705-2.854-10.605.104-2.9 2.957-2.854 7.706.104 10.606 22.308 21.876 37.514 49.496 43.973 79.872.44 2.073-.02 4.291-1.265 6.084-.135.193-.271.385-.409.575-8.619 11.827-25.268 17.101-46.89 14.856-23.092-2.399-48.573-13.023-71.752-29.915-10.882-7.931-20.653-16.814-29.045-26.405-1.424-1.628-3.481-2.562-5.645-2.562s-4.221.934-5.645 2.562c-8.39 9.589-18.162 18.474-29.046 26.405-23.179 16.892-48.66 27.515-71.752 29.915-21.624 2.246-38.271-3.031-46.858-14.813-.008-.011-.057-.079-.064-.089-1.181-1.626-1.607-3.767-1.17-5.872 15.137-72.916 80.258-125.838 154.843-125.838 31.764 0 62.395 9.376 88.582 27.116 3.43 2.322 8.093 1.427 10.415-2.003 2.323-3.43 1.427-8.093-2.003-10.416-28.68-19.428-62.22-29.697-96.994-29.697-40.045 0-79.096 13.991-109.96 39.395-24.43 20.108-42.871 46.584-53.326 76.097h-3.693c-3.582 0-7.055.471-10.365 1.346 17.466-83.029 91.485-144.023 177.68-144.023zm-232.992 225.729v-16.317c0-14.971 10.947-27.426 25.255-29.799-.108 1.206-.173 2.425-.173 3.66v72.224c-14.223-2.444-25.082-14.858-25.082-29.768zm40.082 30.604v-73.061c0-13.821 11.013-25.111 24.722-25.574-.612 2.41-1.173 4.836-1.679 7.275-1.294 6.232.062 12.696 3.695 17.702.011.015.062.086.072.101 2.128 2.92 4.581 5.539 7.302 7.882-.347 4.302-.533 8.652-.533 12.973 0 28.448 7.517 55.171 20.659 78.298h-28.643c-14.113 0-25.595-11.482-25.595-25.596zm40.962 218.667c-3.62-4.412-5.061-10.134-3.951-15.698 5.297-26.582 17.659-51.41 35.751-71.799 2.75-3.098 2.467-7.838-.632-10.588-3.097-2.75-7.837-2.466-10.588.632-8.734 9.843-16.249 20.632-22.426 32.113-8.086-9.394-12.61-21.355-12.61-33.851v-78.879h37.41c12.443 17.111 28.203 31.661 46.339 42.68-9.044 4.691-17.676 10.186-25.757 16.453-3.272 2.539-3.868 7.25-1.33 10.523 1.479 1.906 3.693 2.904 5.932 2.904 1.606 0 3.225-.514 4.592-1.574 10.178-7.894 21.304-14.46 33.077-19.563 4.526 2.066 9.166 3.922 13.906 5.563.279 28.573 23.599 51.734 52.237 51.734 28.719 0 52.094-23.292 52.243-51.977 2.843-.999 5.649-2.074 8.416-3.227 11.328 5.363 22.002 12.108 31.729 20.084 2.798 2.294 5.517 4.696 8.155 7.188h-21.026c-17.168 0-31.136 13.967-31.136 31.135v59.711c0 4.871 1.233 9.458 3.4 13.47h-188.867c-5.778.002-11.196-2.562-14.864-7.034zm325.597-6.434c0 7.408-6.026 13.434-13.434 13.434h-83.399c-7.408 0-13.435-6.026-13.435-13.434v-59.711c0-8.897 7.238-16.135 16.136-16.135h77.997c8.896 0 16.135 7.238 16.135 16.135zm50.552-145.881c0 40.357-14.219 76.347-35.552 92.449v-6.28c0-8.717-3.605-16.604-9.397-22.261.581-3.558.888-7.168.888-10.785v-82.03c10.173-4.274 18.243-12.58 22.219-22.904 4.325-.23 8.487-1.079 12.408-2.446 6.18 16.24 9.434 34.849 9.434 54.257zm5.943-96.956c0 14.91-10.859 27.324-25.082 29.768v-72.224c0-1.234-.064-2.453-.173-3.66 14.308 2.373 25.255 14.828 25.255 29.799z"/></g></g></svg>