<svg xmlns="http://www.w3.org/2000/svg" xmlns:xlink="http://www.w3.org/1999/xlink" width="500" zoomAndPan="magnify" viewBox="0 0 375 374.999991" height="500" preserveAspectRatio="xMidYMid meet" version="1.0"><defs><g/><clipPath id="id1"><path d="M 185 192 L 190 192 L 190 202.710938 L 185 202.710938 Z M 185 192 " clip-rule="nonzero"/></clipPath><clipPath id="id2"><path d="M 187 192 L 190 192 L 190 202.710938 L 187 202.710938 Z M 187 192 " clip-rule="nonzero"/></clipPath><clipPath id="id3"><path d="M 102.992188 108 L 188 108 L 188 193 L 102.992188 193 Z M 102.992188 108 " clip-rule="nonzero"/></clipPath><clipPath id="id4"><path d="M 187 108 L 271.742188 108 L 271.742188 193 L 187 193 Z M 187 108 " clip-rule="nonzero"/></clipPath><clipPath id="id5"><path d="M 131 87.960938 L 188 87.960938 L 188 138 L 131 138 Z M 131 87.960938 " clip-rule="nonzero"/></clipPath><clipPath id="id6"><path d="M 187 87.960938 L 243 87.960938 L 243 138 L 187 138 Z M 187 87.960938 " clip-rule="nonzero"/></clipPath></defs><g clip-path="url(#id1)"><path fill="#c2181c" d="M 189.558594 192.609375 L 187.363281 192.574219 L 185.167969 192.609375 L 185.167969 202.699219 L 187.363281 200.503906 L 189.558594 202.699219 L 189.558594 192.609375 " fill-opacity="1" fill-rule="nonzero"/></g><g clip-path="url(#id2)"><path fill="#8a0f12" d="M 189.558594 202.699219 L 189.558594 192.609375 L 187.363281 192.574219 L 187.363281 200.503906 L 189.558594 202.699219 " fill-opacity="1" fill-rule="nonzero"/></g><g clip-path="url(#id3)"><path fill="#67354b" d="M 187.363281 192.476562 L 118.808594 168.023438 L 102.984375 108.097656 L 187.363281 138.300781 L 187.363281 192.476562 " fill-opacity="1" fill-rule="nonzero"/></g><g clip-path="url(#id4)"><path fill="#934e72" d="M 187.363281 192.476562 L 255.921875 168.023438 L 271.742188 108.097656 L 187.363281 138.300781 L 187.363281 192.476562 " fill-opacity="1" fill-rule="nonzero"/></g><path fill="#67354b" d="M 189.660156 192.476562 L 185.066406 192.476562 L 185.066406 137.53125 L 189.660156 137.53125 L 189.660156 192.476562 " fill-opacity="1" fill-rule="nonzero"/><path fill="#e2e6ae" d="M 112.75 111.59375 L 112.75 102.703125 L 187.363281 137.53125 L 183.417969 137.53125 L 112.75 111.59375 " fill-opacity="1" fill-rule="nonzero"/><path fill="#c9cc9a" d="M 121.058594 106.582031 L 121.058594 92.273438 L 187.363281 137.53125 Z M 121.058594 106.582031 " fill-opacity="1" fill-rule="nonzero"/><g clip-path="url(#id5)"><path fill="#abad83" d="M 131.871094 99.65625 L 131.871094 87.960938 L 187.363281 137.53125 Z M 131.871094 99.65625 " fill-opacity="1" fill-rule="nonzero"/></g><path fill="#e2e6ae" d="M 261.976562 111.59375 L 261.976562 102.703125 L 187.363281 137.53125 L 191.308594 137.53125 L 261.976562 111.59375 " fill-opacity="1" fill-rule="nonzero"/><path fill="#c9cc9a" d="M 253.667969 106.582031 L 253.667969 92.273438 L 187.363281 137.53125 Z M 253.667969 106.582031 " fill-opacity="1" fill-rule="nonzero"/><g clip-path="url(#id6)"><path fill="#abad83" d="M 242.855469 99.65625 L 242.855469 87.960938 L 187.363281 137.53125 Z M 242.855469 99.65625 " fill-opacity="1" fill-rule="nonzero"/></g><g fill="#934e72" fill-opacity="1"><g transform="translate(78.647693, 251.939969)"><g><path d="M 4.109375 0 C 3.835938 0 3.601562 -0.0976562 3.40625 -0.296875 C 3.207031 -0.492188 3.109375 -0.742188 3.109375 -1.046875 L 3.109375 -28.34375 C 3.109375 -28.65625 3.207031 -28.910156 3.40625 -29.109375 C 3.601562 -29.304688 3.835938 -29.40625 4.109375 -29.40625 L 16.625 -29.40625 C 18.957031 -29.40625 20.867188 -29.066406 22.359375 -28.390625 C 23.859375 -27.722656 24.957031 -26.769531 25.65625 -25.53125 C 26.363281 -24.300781 26.71875 -22.859375 26.71875 -21.203125 C 26.71875 -20.171875 26.523438 -19.257812 26.140625 -18.46875 C 25.765625 -17.6875 25.300781 -17.046875 24.75 -16.546875 C 24.207031 -16.046875 23.6875 -15.664062 23.1875 -15.40625 C 24.28125 -14.90625 25.242188 -14.070312 26.078125 -12.90625 C 26.921875 -11.75 27.34375 -10.375 27.34375 -8.78125 C 27.34375 -7.007812 26.941406 -5.46875 26.140625 -4.15625 C 25.347656 -2.84375 24.179688 -1.820312 22.640625 -1.09375 C 21.097656 -0.363281 19.222656 0 17.015625 0 Z M 9.78125 -4.953125 L 16.21875 -4.953125 C 17.582031 -4.953125 18.613281 -5.335938 19.3125 -6.109375 C 20.019531 -6.878906 20.375 -7.78125 20.375 -8.8125 C 20.375 -9.90625 20.015625 -10.820312 19.296875 -11.5625 C 18.585938 -12.3125 17.5625 -12.6875 16.21875 -12.6875 L 9.78125 -12.6875 Z M 9.78125 -17.515625 L 15.828125 -17.515625 C 17.148438 -17.515625 18.140625 -17.84375 18.796875 -18.5 C 19.453125 -19.15625 19.78125 -20.003906 19.78125 -21.046875 C 19.78125 -22.078125 19.453125 -22.898438 18.796875 -23.515625 C 18.140625 -24.128906 17.148438 -24.4375 15.828125 -24.4375 L 9.78125 -24.4375 Z M 9.78125 -17.515625 "/></g></g></g><g fill="#934e72" fill-opacity="1"><g transform="translate(107.829484, 251.939969)"><g><path d="M 4.109375 0 C 3.835938 0 3.601562 -0.0976562 3.40625 -0.296875 C 3.207031 -0.492188 3.109375 -0.742188 3.109375 -1.046875 L 3.109375 -28.34375 C 3.109375 -28.65625 3.207031 -28.910156 3.40625 -29.109375 C 3.601562 -29.304688 3.835938 -29.40625 4.109375 -29.40625 L 8.65625 -29.40625 C 8.957031 -29.40625 9.207031 -29.304688 9.40625 -29.109375 C 9.601562 -28.910156 9.703125 -28.65625 9.703125 -28.34375 L 9.703125 -18.78125 L 18.3125 -28.609375 C 18.425781 -28.773438 18.613281 -28.945312 18.875 -29.125 C 19.144531 -29.3125 19.503906 -29.40625 19.953125 -29.40625 L 25.078125 -29.40625 C 25.296875 -29.40625 25.492188 -29.3125 25.671875 -29.125 C 25.859375 -28.945312 25.953125 -28.742188 25.953125 -28.515625 C 25.953125 -28.316406 25.894531 -28.148438 25.78125 -28.015625 L 15 -15.328125 L 26.59375 -1.390625 C 26.695312 -1.273438 26.75 -1.101562 26.75 -0.875 C 26.75 -0.65625 26.65625 -0.453125 26.46875 -0.265625 C 26.289062 -0.0859375 26.09375 0 25.875 0 L 20.578125 0 C 20.078125 0 19.695312 -0.109375 19.4375 -0.328125 C 19.1875 -0.554688 19.019531 -0.710938 18.9375 -0.796875 L 9.703125 -11.546875 L 9.703125 -1.046875 C 9.703125 -0.742188 9.601562 -0.492188 9.40625 -0.296875 C 9.207031 -0.0976562 8.957031 0 8.65625 0 Z M 4.109375 0 "/></g></g></g><g fill="#934e72" fill-opacity="1"><g transform="translate(134.995845, 251.939969)"><g/></g></g><g fill="#934e72" fill-opacity="1"><g transform="translate(144.275241, 251.939969)"><g><path d="M 4.109375 0 C 3.835938 0 3.601562 -0.0976562 3.40625 -0.296875 C 3.207031 -0.492188 3.109375 -0.742188 3.109375 -1.046875 L 3.109375 -28.34375 C 3.109375 -28.65625 3.207031 -28.910156 3.40625 -29.109375 C 3.601562 -29.304688 3.835938 -29.40625 4.109375 -29.40625 L 23.1875 -29.40625 C 23.488281 -29.40625 23.738281 -29.304688 23.9375 -29.109375 C 24.132812 -28.910156 24.234375 -28.65625 24.234375 -28.34375 L 24.234375 -24.984375 C 24.234375 -24.679688 24.132812 -24.429688 23.9375 -24.234375 C 23.738281 -24.035156 23.488281 -23.9375 23.1875 -23.9375 L 9.578125 -23.9375 L 9.578125 -17.390625 L 22.265625 -17.390625 C 22.566406 -17.390625 22.816406 -17.289062 23.015625 -17.09375 C 23.210938 -16.894531 23.3125 -16.644531 23.3125 -16.34375 L 23.3125 -13.234375 C 23.3125 -12.953125 23.210938 -12.707031 23.015625 -12.5 C 22.816406 -12.289062 22.566406 -12.1875 22.265625 -12.1875 L 9.578125 -12.1875 L 9.578125 -5.453125 L 23.515625 -5.453125 C 23.828125 -5.453125 24.078125 -5.351562 24.265625 -5.15625 C 24.460938 -4.96875 24.5625 -4.71875 24.5625 -4.40625 L 24.5625 -1.046875 C 24.5625 -0.742188 24.460938 -0.492188 24.265625 -0.296875 C 24.078125 -0.0976562 23.828125 0 23.515625 0 Z M 4.109375 0 "/></g></g></g><g fill="#934e72" fill-opacity="1"><g transform="translate(170.769788, 251.939969)"><g><path d="M 3.65625 0 C 3.375 0 3.128906 -0.0976562 2.921875 -0.296875 C 2.710938 -0.492188 2.609375 -0.742188 2.609375 -1.046875 L 2.609375 -20.796875 C 2.609375 -21.097656 2.710938 -21.347656 2.921875 -21.546875 C 3.128906 -21.742188 3.375 -21.84375 3.65625 -21.84375 L 7.765625 -21.84375 C 8.078125 -21.84375 8.328125 -21.742188 8.515625 -21.546875 C 8.710938 -21.347656 8.8125 -21.097656 8.8125 -20.796875 L 8.8125 -19.15625 C 9.539062 -20.050781 10.484375 -20.789062 11.640625 -21.375 C 12.804688 -21.96875 14.203125 -22.265625 15.828125 -22.265625 C 17.484375 -22.265625 18.941406 -21.890625 20.203125 -21.140625 C 21.460938 -20.398438 22.441406 -19.320312 23.140625 -17.90625 C 23.835938 -16.5 24.1875 -14.785156 24.1875 -12.765625 L 24.1875 -1.046875 C 24.1875 -0.742188 24.085938 -0.492188 23.890625 -0.296875 C 23.703125 -0.0976562 23.453125 0 23.140625 0 L 18.6875 0 C 18.382812 0 18.132812 -0.0976562 17.9375 -0.296875 C 17.738281 -0.492188 17.640625 -0.742188 17.640625 -1.046875 L 17.640625 -12.515625 C 17.640625 -13.992188 17.28125 -15.144531 16.5625 -15.96875 C 15.851562 -16.800781 14.8125 -17.21875 13.4375 -17.21875 C 12.125 -17.21875 11.082031 -16.800781 10.3125 -15.96875 C 9.539062 -15.144531 9.15625 -13.992188 9.15625 -12.515625 L 9.15625 -1.046875 C 9.15625 -0.742188 9.054688 -0.492188 8.859375 -0.296875 C 8.660156 -0.0976562 8.410156 0 8.109375 0 Z M 3.65625 0 "/></g></g></g><g fill="#934e72" fill-opacity="1"><g transform="translate(197.348312, 251.939969)"><g><path d="M 12.890625 9.234375 C 10.816406 9.234375 9.09375 8.960938 7.71875 8.421875 C 6.351562 7.878906 5.269531 7.222656 4.46875 6.453125 C 3.675781 5.679688 3.109375 4.914062 2.765625 4.15625 C 2.429688 3.40625 2.25 2.804688 2.21875 2.359375 C 2.195312 2.078125 2.296875 1.828125 2.515625 1.609375 C 2.742188 1.398438 3 1.296875 3.28125 1.296875 L 7.765625 1.296875 C 8.046875 1.296875 8.269531 1.359375 8.4375 1.484375 C 8.601562 1.617188 8.742188 1.851562 8.859375 2.1875 C 9.023438 2.519531 9.234375 2.875 9.484375 3.25 C 9.742188 3.632812 10.125 3.953125 10.625 4.203125 C 11.125 4.453125 11.8125 4.578125 12.6875 4.578125 C 13.664062 4.578125 14.476562 4.4375 15.125 4.15625 C 15.769531 3.875 16.25 3.394531 16.5625 2.71875 C 16.882812 2.050781 17.046875 1.144531 17.046875 0 L 17.046875 -2.8125 C 16.378906 -2.082031 15.535156 -1.476562 14.515625 -1 C 13.492188 -0.53125 12.238281 -0.296875 10.75 -0.296875 C 9.289062 -0.296875 8.007812 -0.523438 6.90625 -0.984375 C 5.800781 -1.453125 4.882812 -2.109375 4.15625 -2.953125 C 3.425781 -3.804688 2.863281 -4.835938 2.46875 -6.046875 C 2.082031 -7.253906 1.863281 -8.613281 1.8125 -10.125 C 1.78125 -10.875 1.78125 -11.613281 1.8125 -12.34375 C 1.863281 -13.800781 2.082031 -15.128906 2.46875 -16.328125 C 2.863281 -17.535156 3.425781 -18.582031 4.15625 -19.46875 C 4.882812 -20.351562 5.800781 -21.039062 6.90625 -21.53125 C 8.007812 -22.019531 9.289062 -22.265625 10.75 -22.265625 C 12.289062 -22.265625 13.609375 -21.96875 14.703125 -21.375 C 15.796875 -20.789062 16.691406 -20.0625 17.390625 -19.1875 L 17.390625 -20.796875 C 17.390625 -21.066406 17.484375 -21.304688 17.671875 -21.515625 C 17.867188 -21.734375 18.109375 -21.84375 18.390625 -21.84375 L 22.515625 -21.84375 C 22.816406 -21.84375 23.066406 -21.734375 23.265625 -21.515625 C 23.460938 -21.304688 23.5625 -21.066406 23.5625 -20.796875 L 23.609375 -0.59375 C 23.609375 1.507812 23.203125 3.289062 22.390625 4.75 C 21.578125 6.207031 20.378906 7.316406 18.796875 8.078125 C 17.210938 8.847656 15.242188 9.234375 12.890625 9.234375 Z M 12.6875 -5.25 C 13.695312 -5.25 14.515625 -5.472656 15.140625 -5.921875 C 15.773438 -6.367188 16.242188 -6.945312 16.546875 -7.65625 C 16.859375 -8.375 17.023438 -9.125 17.046875 -9.90625 C 17.078125 -10.21875 17.09375 -10.660156 17.09375 -11.234375 C 17.09375 -11.804688 17.078125 -12.25 17.046875 -12.5625 C 17.023438 -13.34375 16.859375 -14.082031 16.546875 -14.78125 C 16.242188 -15.476562 15.773438 -16.054688 15.140625 -16.515625 C 14.515625 -16.984375 13.695312 -17.21875 12.6875 -17.21875 C 11.625 -17.21875 10.78125 -16.984375 10.15625 -16.515625 C 9.539062 -16.054688 9.097656 -15.445312 8.828125 -14.6875 C 8.566406 -13.9375 8.410156 -13.113281 8.359375 -12.21875 C 8.304688 -11.550781 8.304688 -10.894531 8.359375 -10.25 C 8.410156 -9.320312 8.566406 -8.476562 8.828125 -7.71875 C 9.097656 -6.96875 9.539062 -6.367188 10.15625 -5.921875 C 10.78125 -5.472656 11.625 -5.25 12.6875 -5.25 Z M 12.6875 -5.25 "/></g></g></g><g fill="#934e72" fill-opacity="1"><g transform="translate(223.590928, 251.939969)"><g><path d="M 3.703125 0 C 3.390625 0 3.132812 -0.0976562 2.9375 -0.296875 C 2.738281 -0.492188 2.640625 -0.742188 2.640625 -1.046875 L 2.640625 -28.765625 C 2.640625 -29.078125 2.738281 -29.328125 2.9375 -29.515625 C 3.132812 -29.710938 3.390625 -29.8125 3.703125 -29.8125 L 7.890625 -29.8125 C 8.203125 -29.8125 8.457031 -29.710938 8.65625 -29.515625 C 8.851562 -29.328125 8.953125 -29.078125 8.953125 -28.765625 L 8.953125 -1.046875 C 8.953125 -0.742188 8.851562 -0.492188 8.65625 -0.296875 C 8.457031 -0.0976562 8.203125 0 7.890625 0 Z M 3.703125 0 "/></g></g></g><g fill="#934e72" fill-opacity="1"><g transform="translate(235.179673, 251.939969)"><g><path d="M 3.65625 0 C 3.375 0 3.128906 -0.0976562 2.921875 -0.296875 C 2.710938 -0.492188 2.609375 -0.742188 2.609375 -1.046875 L 2.609375 -20.796875 C 2.609375 -21.097656 2.710938 -21.347656 2.921875 -21.546875 C 3.128906 -21.742188 3.375 -21.84375 3.65625 -21.84375 L 7.890625 -21.84375 C 8.171875 -21.84375 8.410156 -21.742188 8.609375 -21.546875 C 8.804688 -21.347656 8.90625 -21.097656 8.90625 -20.796875 L 8.90625 -1.046875 C 8.90625 -0.742188 8.804688 -0.492188 8.609375 -0.296875 C 8.410156 -0.0976562 8.171875 0 7.890625 0 Z M 3.53125 -25.203125 C 3.25 -25.203125 3.007812 -25.296875 2.8125 -25.484375 C 2.613281 -25.679688 2.515625 -25.9375 2.515625 -26.25 L 2.515625 -29.65625 C 2.515625 -29.9375 2.613281 -30.179688 2.8125 -30.390625 C 3.007812 -30.597656 3.25 -30.703125 3.53125 -30.703125 L 7.984375 -30.703125 C 8.265625 -30.703125 8.507812 -30.597656 8.71875 -30.390625 C 8.925781 -30.179688 9.03125 -29.9375 9.03125 -29.65625 L 9.03125 -26.25 C 9.03125 -25.9375 8.925781 -25.679688 8.71875 -25.484375 C 8.507812 -25.296875 8.265625 -25.203125 7.984375 -25.203125 Z M 3.53125 -25.203125 "/></g></g></g><g fill="#934e72" fill-opacity="1"><g transform="translate(246.726429, 251.939969)"><g><path d="M 11.25 0.421875 C 9.519531 0.421875 8.03125 0.21875 6.78125 -0.1875 C 5.53125 -0.59375 4.519531 -1.085938 3.75 -1.671875 C 2.988281 -2.265625 2.414062 -2.863281 2.03125 -3.46875 C 1.65625 -4.070312 1.453125 -4.582031 1.421875 -5 C 1.398438 -5.300781 1.5 -5.550781 1.71875 -5.75 C 1.945312 -5.945312 2.171875 -6.046875 2.390625 -6.046875 L 6.46875 -6.046875 C 6.582031 -6.046875 6.671875 -6.03125 6.734375 -6 C 6.804688 -5.976562 6.898438 -5.910156 7.015625 -5.796875 C 7.378906 -5.546875 7.75 -5.257812 8.125 -4.9375 C 8.5 -4.613281 8.953125 -4.335938 9.484375 -4.109375 C 10.023438 -3.890625 10.671875 -3.78125 11.421875 -3.78125 C 12.347656 -3.78125 13.125 -3.96875 13.75 -4.34375 C 14.382812 -4.71875 14.703125 -5.257812 14.703125 -5.96875 C 14.703125 -6.46875 14.5625 -6.882812 14.28125 -7.21875 C 14 -7.5625 13.453125 -7.867188 12.640625 -8.140625 C 11.828125 -8.421875 10.625 -8.734375 9.03125 -9.078125 C 7.519531 -9.410156 6.226562 -9.851562 5.15625 -10.40625 C 4.09375 -10.96875 3.296875 -11.675781 2.765625 -12.53125 C 2.234375 -13.382812 1.96875 -14.414062 1.96875 -15.625 C 1.96875 -16.71875 2.3125 -17.765625 3 -18.765625 C 3.6875 -19.773438 4.703125 -20.609375 6.046875 -21.265625 C 7.390625 -21.929688 9.070312 -22.265625 11.09375 -22.265625 C 12.625 -22.265625 13.972656 -22.070312 15.140625 -21.6875 C 16.304688 -21.3125 17.28125 -20.835938 18.0625 -20.265625 C 18.84375 -19.691406 19.4375 -19.101562 19.84375 -18.5 C 20.25 -17.894531 20.46875 -17.367188 20.5 -16.921875 C 20.519531 -16.617188 20.429688 -16.367188 20.234375 -16.171875 C 20.046875 -15.972656 19.828125 -15.875 19.578125 -15.875 L 15.828125 -15.875 C 15.691406 -15.875 15.566406 -15.898438 15.453125 -15.953125 C 15.335938 -16.015625 15.238281 -16.085938 15.15625 -16.171875 C 14.820312 -16.367188 14.476562 -16.617188 14.125 -16.921875 C 13.78125 -17.234375 13.367188 -17.5 12.890625 -17.71875 C 12.421875 -17.945312 11.804688 -18.0625 11.046875 -18.0625 C 10.148438 -18.0625 9.457031 -17.859375 8.96875 -17.453125 C 8.476562 -17.046875 8.234375 -16.535156 8.234375 -15.921875 C 8.234375 -15.523438 8.359375 -15.160156 8.609375 -14.828125 C 8.859375 -14.492188 9.367188 -14.1875 10.140625 -13.90625 C 10.910156 -13.625 12.109375 -13.328125 13.734375 -13.015625 C 15.640625 -12.679688 17.148438 -12.175781 18.265625 -11.5 C 19.390625 -10.832031 20.1875 -10.054688 20.65625 -9.171875 C 21.132812 -8.296875 21.375 -7.351562 21.375 -6.34375 C 21.375 -5.03125 20.988281 -3.859375 20.21875 -2.828125 C 19.445312 -1.804688 18.304688 -1.007812 16.796875 -0.4375 C 15.285156 0.132812 13.4375 0.421875 11.25 0.421875 Z M 11.25 0.421875 "/></g></g></g><g fill="#934e72" fill-opacity="1"><g transform="translate(269.526022, 251.939969)"><g><path d="M 3.703125 0 C 3.390625 0 3.132812 -0.0976562 2.9375 -0.296875 C 2.738281 -0.492188 2.640625 -0.742188 2.640625 -1.046875 L 2.640625 -28.765625 C 2.640625 -29.078125 2.738281 -29.328125 2.9375 -29.515625 C 3.132812 -29.710938 3.390625 -29.8125 3.703125 -29.8125 L 8.234375 -29.8125 C 8.535156 -29.8125 8.785156 -29.710938 8.984375 -29.515625 C 9.179688 -29.328125 9.28125 -29.078125 9.28125 -28.765625 L 9.28125 -19.3125 C 10.007812 -20.207031 10.925781 -20.921875 12.03125 -21.453125 C 13.132812 -21.992188 14.457031 -22.265625 16 -22.265625 C 17.65625 -22.265625 19.117188 -21.890625 20.390625 -21.140625 C 21.660156 -20.398438 22.648438 -19.320312 23.359375 -17.90625 C 24.078125 -16.5 24.4375 -14.785156 24.4375 -12.765625 L 24.4375 -1.046875 C 24.4375 -0.742188 24.335938 -0.492188 24.140625 -0.296875 C 23.953125 -0.0976562 23.703125 0 23.390625 0 L 18.8125 0 C 18.53125 0 18.289062 -0.0976562 18.09375 -0.296875 C 17.90625 -0.492188 17.8125 -0.742188 17.8125 -1.046875 L 17.8125 -12.515625 C 17.8125 -13.992188 17.445312 -15.144531 16.71875 -15.96875 C 15.988281 -16.800781 14.953125 -17.21875 13.609375 -17.21875 C 12.296875 -17.21875 11.242188 -16.800781 10.453125 -15.96875 C 9.671875 -15.144531 9.28125 -13.992188 9.28125 -12.515625 L 9.28125 -1.046875 C 9.28125 -0.742188 9.179688 -0.492188 8.984375 -0.296875 C 8.785156 -0.0976562 8.535156 0 8.234375 0 Z M 3.703125 0 "/></g></g></g><g fill="#66344a" fill-opacity="1"><g transform="translate(41.218008, 281.639982)"><g><path d="M 2.0625 0 C 1.914062 0 1.789062 -0.046875 1.6875 -0.140625 C 1.59375 -0.242188 1.546875 -0.375 1.546875 -0.53125 L 1.546875 -14.171875 C 1.546875 -14.328125 1.59375 -14.453125 1.6875 -14.546875 C 1.789062 -14.648438 1.914062 -14.703125 2.0625 -14.703125 L 3.984375 -14.703125 C 4.203125 -14.703125 4.359375 -14.648438 4.453125 -14.546875 C 4.546875 -14.453125 4.609375 -14.378906 4.640625 -14.328125 L 10.234375 -5.59375 L 10.234375 -14.171875 C 10.234375 -14.328125 10.28125 -14.453125 10.375 -14.546875 C 10.46875 -14.648438 10.59375 -14.703125 10.75 -14.703125 L 12.890625 -14.703125 C 13.046875 -14.703125 13.171875 -14.648438 13.265625 -14.546875 C 13.367188 -14.453125 13.421875 -14.328125 13.421875 -14.171875 L 13.421875 -0.53125 C 13.421875 -0.382812 13.367188 -0.257812 13.265625 -0.15625 C 13.171875 -0.0507812 13.046875 0 12.890625 0 L 10.96875 0 C 10.75 0 10.59375 -0.0507812 10.5 -0.15625 C 10.40625 -0.257812 10.34375 -0.332031 10.3125 -0.375 L 4.75 -8.84375 L 4.75 -0.53125 C 4.75 -0.375 4.695312 -0.242188 4.59375 -0.140625 C 4.5 -0.046875 4.375 0 4.21875 0 Z M 2.0625 0 "/></g></g></g><g fill="#66344a" fill-opacity="1"><g transform="translate(56.191068, 281.639982)"><g><path d="M 6.328125 0.203125 C 5.160156 0.203125 4.179688 0.015625 3.390625 -0.359375 C 2.609375 -0.742188 2.007812 -1.296875 1.59375 -2.015625 C 1.1875 -2.734375 0.960938 -3.566406 0.921875 -4.515625 C 0.910156 -4.796875 0.90625 -5.113281 0.90625 -5.46875 C 0.90625 -5.820312 0.910156 -6.132812 0.921875 -6.40625 C 0.960938 -7.375 1.195312 -8.207031 1.625 -8.90625 C 2.0625 -9.613281 2.671875 -10.160156 3.453125 -10.546875 C 4.242188 -10.929688 5.203125 -11.125 6.328125 -11.125 C 7.429688 -11.125 8.375 -10.929688 9.15625 -10.546875 C 9.9375 -10.160156 10.546875 -9.613281 10.984375 -8.90625 C 11.421875 -8.207031 11.664062 -7.375 11.71875 -6.40625 C 11.726562 -6.132812 11.734375 -5.820312 11.734375 -5.46875 C 11.734375 -5.113281 11.726562 -4.796875 11.71875 -4.515625 C 11.664062 -3.566406 11.429688 -2.734375 11.015625 -2.015625 C 10.597656 -1.296875 10 -0.742188 9.21875 -0.359375 C 8.4375 0.015625 7.472656 0.203125 6.328125 0.203125 Z M 6.328125 -2.125 C 7.003906 -2.125 7.515625 -2.332031 7.859375 -2.75 C 8.203125 -3.164062 8.394531 -3.789062 8.4375 -4.625 C 8.457031 -4.832031 8.46875 -5.109375 8.46875 -5.453125 C 8.46875 -5.804688 8.457031 -6.085938 8.4375 -6.296875 C 8.394531 -7.109375 8.203125 -7.726562 7.859375 -8.15625 C 7.515625 -8.582031 7.003906 -8.796875 6.328125 -8.796875 C 5.640625 -8.796875 5.117188 -8.582031 4.765625 -8.15625 C 4.410156 -7.726562 4.210938 -7.109375 4.171875 -6.296875 C 4.160156 -6.085938 4.15625 -5.804688 4.15625 -5.453125 C 4.15625 -5.109375 4.160156 -4.832031 4.171875 -4.625 C 4.210938 -3.789062 4.410156 -3.164062 4.765625 -2.75 C 5.117188 -2.332031 5.640625 -2.125 6.328125 -2.125 Z M 6.328125 -2.125 "/></g></g></g><g fill="#66344a" fill-opacity="1"><g transform="translate(68.812115, 281.639982)"><g/></g></g><g fill="#66344a" fill-opacity="1"><g transform="translate(73.453129, 281.639982)"><g><path d="M 2.0625 0 C 1.914062 0 1.789062 -0.046875 1.6875 -0.140625 C 1.59375 -0.242188 1.546875 -0.375 1.546875 -0.53125 L 1.546875 -14.171875 C 1.546875 -14.328125 1.59375 -14.453125 1.6875 -14.546875 C 1.789062 -14.648438 1.914062 -14.703125 2.0625 -14.703125 L 11.59375 -14.703125 C 11.75 -14.703125 11.875 -14.648438 11.96875 -14.546875 C 12.0625 -14.453125 12.109375 -14.328125 12.109375 -14.171875 L 12.109375 -12.5 C 12.109375 -12.34375 12.0625 -12.210938 11.96875 -12.109375 C 11.875 -12.015625 11.75 -11.96875 11.59375 -11.96875 L 4.78125 -11.96875 L 4.78125 -8.6875 L 11.125 -8.6875 C 11.28125 -8.6875 11.40625 -8.640625 11.5 -8.546875 C 11.601562 -8.453125 11.65625 -8.328125 11.65625 -8.171875 L 11.65625 -6.609375 C 11.65625 -6.472656 11.601562 -6.351562 11.5 -6.25 C 11.40625 -6.144531 11.28125 -6.09375 11.125 -6.09375 L 4.78125 -6.09375 L 4.78125 -2.734375 L 11.765625 -2.734375 C 11.910156 -2.734375 12.03125 -2.679688 12.125 -2.578125 C 12.226562 -2.484375 12.28125 -2.359375 12.28125 -2.203125 L 12.28125 -0.53125 C 12.28125 -0.375 12.226562 -0.242188 12.125 -0.140625 C 12.03125 -0.046875 11.910156 0 11.765625 0 Z M 2.0625 0 "/></g></g></g><g fill="#66344a" fill-opacity="1"><g transform="translate(86.704185, 281.639982)"><g><path d="M 1.828125 0 C 1.679688 0 1.554688 -0.046875 1.453125 -0.140625 C 1.347656 -0.242188 1.296875 -0.375 1.296875 -0.53125 L 1.296875 -10.390625 C 1.296875 -10.546875 1.347656 -10.671875 1.453125 -10.765625 C 1.554688 -10.867188 1.679688 -10.921875 1.828125 -10.921875 L 3.890625 -10.921875 C 4.035156 -10.921875 4.15625 -10.867188 4.25 -10.765625 C 4.351562 -10.671875 4.40625 -10.546875 4.40625 -10.390625 L 4.40625 -9.578125 C 4.769531 -10.023438 5.242188 -10.394531 5.828125 -10.6875 C 6.410156 -10.976562 7.109375 -11.125 7.921875 -11.125 C 8.742188 -11.125 9.46875 -10.9375 10.09375 -10.5625 C 10.726562 -10.195312 11.21875 -9.660156 11.5625 -8.953125 C 11.914062 -8.242188 12.09375 -7.390625 12.09375 -6.390625 L 12.09375 -0.53125 C 12.09375 -0.375 12.039062 -0.242188 11.9375 -0.140625 C 11.84375 -0.046875 11.722656 0 11.578125 0 L 9.34375 0 C 9.1875 0 9.054688 -0.046875 8.953125 -0.140625 C 8.859375 -0.242188 8.8125 -0.375 8.8125 -0.53125 L 8.8125 -6.265625 C 8.8125 -7.003906 8.632812 -7.578125 8.28125 -7.984375 C 7.925781 -8.398438 7.40625 -8.609375 6.71875 -8.609375 C 6.0625 -8.609375 5.539062 -8.398438 5.15625 -7.984375 C 4.769531 -7.578125 4.578125 -7.003906 4.578125 -6.265625 L 4.578125 -0.53125 C 4.578125 -0.375 4.523438 -0.242188 4.421875 -0.140625 C 4.328125 -0.046875 4.203125 0 4.046875 0 Z M 1.828125 0 "/></g></g></g><g fill="#66344a" fill-opacity="1"><g transform="translate(99.99724, 281.639982)"><g><path d="M 6.453125 4.625 C 5.410156 4.625 4.546875 4.484375 3.859375 4.203125 C 3.171875 3.929688 2.628906 3.601562 2.234375 3.21875 C 1.835938 2.832031 1.554688 2.453125 1.390625 2.078125 C 1.222656 1.703125 1.128906 1.398438 1.109375 1.171875 C 1.097656 1.035156 1.144531 0.914062 1.25 0.8125 C 1.363281 0.707031 1.492188 0.65625 1.640625 0.65625 L 3.890625 0.65625 C 4.023438 0.65625 4.132812 0.6875 4.21875 0.75 C 4.300781 0.8125 4.375 0.925781 4.4375 1.09375 C 4.519531 1.257812 4.625 1.4375 4.75 1.625 C 4.875 1.8125 5.0625 1.96875 5.3125 2.09375 C 5.5625 2.21875 5.90625 2.28125 6.34375 2.28125 C 6.832031 2.28125 7.238281 2.210938 7.5625 2.078125 C 7.882812 1.941406 8.125 1.703125 8.28125 1.359375 C 8.445312 1.023438 8.53125 0.570312 8.53125 0 L 8.53125 -1.40625 C 8.1875 -1.039062 7.757812 -0.738281 7.25 -0.5 C 6.738281 -0.257812 6.113281 -0.140625 5.375 -0.140625 C 4.644531 -0.140625 4.003906 -0.253906 3.453125 -0.484375 C 2.898438 -0.722656 2.441406 -1.054688 2.078125 -1.484375 C 1.710938 -1.910156 1.429688 -2.421875 1.234375 -3.015625 C 1.035156 -3.617188 0.925781 -4.300781 0.90625 -5.0625 C 0.882812 -5.4375 0.882812 -5.804688 0.90625 -6.171875 C 0.925781 -6.898438 1.035156 -7.566406 1.234375 -8.171875 C 1.429688 -8.773438 1.710938 -9.296875 2.078125 -9.734375 C 2.441406 -10.171875 2.898438 -10.507812 3.453125 -10.75 C 4.003906 -11 4.644531 -11.125 5.375 -11.125 C 6.144531 -11.125 6.800781 -10.976562 7.34375 -10.6875 C 7.894531 -10.394531 8.34375 -10.03125 8.6875 -9.59375 L 8.6875 -10.390625 C 8.6875 -10.535156 8.734375 -10.660156 8.828125 -10.765625 C 8.929688 -10.867188 9.054688 -10.921875 9.203125 -10.921875 L 11.25 -10.921875 C 11.40625 -10.921875 11.53125 -10.867188 11.625 -10.765625 C 11.726562 -10.660156 11.78125 -10.535156 11.78125 -10.390625 L 11.796875 -0.296875 C 11.796875 0.753906 11.59375 1.644531 11.1875 2.375 C 10.78125 3.101562 10.179688 3.660156 9.390625 4.046875 C 8.609375 4.429688 7.628906 4.625 6.453125 4.625 Z M 6.34375 -2.625 C 6.84375 -2.625 7.25 -2.734375 7.5625 -2.953125 C 7.882812 -3.179688 8.117188 -3.472656 8.265625 -3.828125 C 8.421875 -4.191406 8.507812 -4.566406 8.53125 -4.953125 C 8.539062 -5.109375 8.546875 -5.328125 8.546875 -5.609375 C 8.546875 -5.898438 8.539062 -6.125 8.53125 -6.28125 C 8.507812 -6.664062 8.421875 -7.035156 8.265625 -7.390625 C 8.117188 -7.742188 7.882812 -8.035156 7.5625 -8.265625 C 7.25 -8.492188 6.84375 -8.609375 6.34375 -8.609375 C 5.8125 -8.609375 5.390625 -8.492188 5.078125 -8.265625 C 4.773438 -8.035156 4.554688 -7.726562 4.421875 -7.34375 C 4.285156 -6.96875 4.203125 -6.554688 4.171875 -6.109375 C 4.148438 -5.773438 4.148438 -5.445312 4.171875 -5.125 C 4.203125 -4.664062 4.285156 -4.242188 4.421875 -3.859375 C 4.554688 -3.484375 4.773438 -3.179688 5.078125 -2.953125 C 5.390625 -2.734375 5.8125 -2.625 6.34375 -2.625 Z M 6.34375 -2.625 "/></g></g></g><g fill="#66344a" fill-opacity="1"><g transform="translate(113.122296, 281.639982)"><g><path d="M 1.84375 0 C 1.6875 0 1.5625 -0.046875 1.46875 -0.140625 C 1.375 -0.242188 1.328125 -0.375 1.328125 -0.53125 L 1.328125 -14.390625 C 1.328125 -14.535156 1.375 -14.65625 1.46875 -14.75 C 1.5625 -14.851562 1.6875 -14.90625 1.84375 -14.90625 L 3.953125 -14.90625 C 4.097656 -14.90625 4.21875 -14.851562 4.3125 -14.75 C 4.414062 -14.65625 4.46875 -14.535156 4.46875 -14.390625 L 4.46875 -0.53125 C 4.46875 -0.375 4.414062 -0.242188 4.3125 -0.140625 C 4.21875 -0.046875 4.097656 0 3.953125 0 Z M 1.84375 0 "/></g></g></g><g fill="#66344a" fill-opacity="1"><g transform="translate(118.918316, 281.639982)"><g><path d="M 1.828125 0 C 1.679688 0 1.554688 -0.046875 1.453125 -0.140625 C 1.347656 -0.242188 1.296875 -0.375 1.296875 -0.53125 L 1.296875 -10.390625 C 1.296875 -10.546875 1.347656 -10.671875 1.453125 -10.765625 C 1.554688 -10.867188 1.679688 -10.921875 1.828125 -10.921875 L 3.953125 -10.921875 C 4.085938 -10.921875 4.203125 -10.867188 4.296875 -10.765625 C 4.398438 -10.671875 4.453125 -10.546875 4.453125 -10.390625 L 4.453125 -0.53125 C 4.453125 -0.375 4.398438 -0.242188 4.296875 -0.140625 C 4.203125 -0.046875 4.085938 0 3.953125 0 Z M 1.765625 -12.59375 C 1.617188 -12.59375 1.5 -12.640625 1.40625 -12.734375 C 1.3125 -12.835938 1.265625 -12.96875 1.265625 -13.125 L 1.265625 -14.828125 C 1.265625 -14.960938 1.3125 -15.082031 1.40625 -15.1875 C 1.5 -15.289062 1.617188 -15.34375 1.765625 -15.34375 L 3.984375 -15.34375 C 4.128906 -15.34375 4.253906 -15.289062 4.359375 -15.1875 C 4.460938 -15.082031 4.515625 -14.960938 4.515625 -14.828125 L 4.515625 -13.125 C 4.515625 -12.96875 4.460938 -12.835938 4.359375 -12.734375 C 4.253906 -12.640625 4.128906 -12.59375 3.984375 -12.59375 Z M 1.765625 -12.59375 "/></g></g></g><g fill="#66344a" fill-opacity="1"><g transform="translate(124.693337, 281.639982)"><g><path d="M 5.625 0.203125 C 4.757812 0.203125 4.015625 0.101562 3.390625 -0.09375 C 2.765625 -0.300781 2.257812 -0.550781 1.875 -0.84375 C 1.488281 -1.132812 1.203125 -1.429688 1.015625 -1.734375 C 0.828125 -2.035156 0.726562 -2.289062 0.71875 -2.5 C 0.695312 -2.65625 0.742188 -2.78125 0.859375 -2.875 C 0.972656 -2.976562 1.085938 -3.03125 1.203125 -3.03125 L 3.234375 -3.03125 C 3.285156 -3.03125 3.328125 -3.019531 3.359375 -3 C 3.398438 -2.988281 3.445312 -2.953125 3.5 -2.890625 C 3.6875 -2.765625 3.875 -2.617188 4.0625 -2.453125 C 4.25 -2.296875 4.472656 -2.160156 4.734375 -2.046875 C 5.003906 -1.941406 5.332031 -1.890625 5.71875 -1.890625 C 6.175781 -1.890625 6.5625 -1.984375 6.875 -2.171875 C 7.1875 -2.359375 7.34375 -2.628906 7.34375 -2.984375 C 7.34375 -3.234375 7.273438 -3.441406 7.140625 -3.609375 C 7.003906 -3.773438 6.734375 -3.925781 6.328125 -4.0625 C 5.921875 -4.207031 5.316406 -4.363281 4.515625 -4.53125 C 3.753906 -4.695312 3.109375 -4.921875 2.578125 -5.203125 C 2.046875 -5.484375 1.644531 -5.835938 1.375 -6.265625 C 1.113281 -6.691406 0.984375 -7.207031 0.984375 -7.8125 C 0.984375 -8.351562 1.15625 -8.875 1.5 -9.375 C 1.84375 -9.882812 2.347656 -10.300781 3.015625 -10.625 C 3.691406 -10.957031 4.535156 -11.125 5.546875 -11.125 C 6.316406 -11.125 6.988281 -11.03125 7.5625 -10.84375 C 8.144531 -10.65625 8.632812 -10.414062 9.03125 -10.125 C 9.425781 -9.84375 9.722656 -9.550781 9.921875 -9.25 C 10.128906 -8.945312 10.238281 -8.6875 10.25 -8.46875 C 10.257812 -8.3125 10.210938 -8.179688 10.109375 -8.078125 C 10.015625 -7.984375 9.90625 -7.9375 9.78125 -7.9375 L 7.921875 -7.9375 C 7.847656 -7.9375 7.78125 -7.945312 7.71875 -7.96875 C 7.664062 -8 7.617188 -8.035156 7.578125 -8.078125 C 7.410156 -8.179688 7.238281 -8.304688 7.0625 -8.453125 C 6.882812 -8.609375 6.675781 -8.742188 6.4375 -8.859375 C 6.207031 -8.972656 5.898438 -9.03125 5.515625 -9.03125 C 5.066406 -9.03125 4.71875 -8.925781 4.46875 -8.71875 C 4.226562 -8.519531 4.109375 -8.265625 4.109375 -7.953125 C 4.109375 -7.765625 4.171875 -7.582031 4.296875 -7.40625 C 4.429688 -7.238281 4.691406 -7.082031 5.078125 -6.9375 C 5.460938 -6.800781 6.054688 -6.660156 6.859375 -6.515625 C 7.816406 -6.347656 8.570312 -6.09375 9.125 -5.75 C 9.6875 -5.414062 10.085938 -5.023438 10.328125 -4.578125 C 10.566406 -4.140625 10.6875 -3.671875 10.6875 -3.171875 C 10.6875 -2.515625 10.492188 -1.929688 10.109375 -1.421875 C 9.722656 -0.910156 9.148438 -0.507812 8.390625 -0.21875 C 7.640625 0.0625 6.71875 0.203125 5.625 0.203125 Z M 5.625 0.203125 "/></g></g></g><g fill="#66344a" fill-opacity="1"><g transform="translate(136.096378, 281.639982)"><g><path d="M 1.84375 0 C 1.6875 0 1.5625 -0.046875 1.46875 -0.140625 C 1.375 -0.242188 1.328125 -0.375 1.328125 -0.53125 L 1.328125 -14.390625 C 1.328125 -14.535156 1.375 -14.65625 1.46875 -14.75 C 1.5625 -14.851562 1.6875 -14.90625 1.84375 -14.90625 L 4.109375 -14.90625 C 4.265625 -14.90625 4.390625 -14.851562 4.484375 -14.75 C 4.585938 -14.65625 4.640625 -14.535156 4.640625 -14.390625 L 4.640625 -9.65625 C 5.003906 -10.101562 5.460938 -10.457031 6.015625 -10.71875 C 6.566406 -10.988281 7.226562 -11.125 8 -11.125 C 8.820312 -11.125 9.550781 -10.9375 10.1875 -10.5625 C 10.832031 -10.195312 11.332031 -9.660156 11.6875 -8.953125 C 12.039062 -8.242188 12.21875 -7.390625 12.21875 -6.390625 L 12.21875 -0.53125 C 12.21875 -0.375 12.164062 -0.242188 12.0625 -0.140625 C 11.96875 -0.046875 11.847656 0 11.703125 0 L 9.40625 0 C 9.269531 0 9.148438 -0.046875 9.046875 -0.140625 C 8.953125 -0.242188 8.90625 -0.375 8.90625 -0.53125 L 8.90625 -6.265625 C 8.90625 -7.003906 8.722656 -7.578125 8.359375 -7.984375 C 7.992188 -8.398438 7.472656 -8.609375 6.796875 -8.609375 C 6.140625 -8.609375 5.613281 -8.398438 5.21875 -7.984375 C 4.832031 -7.578125 4.640625 -7.003906 4.640625 -6.265625 L 4.640625 -0.53125 C 4.640625 -0.375 4.585938 -0.242188 4.484375 -0.140625 C 4.390625 -0.046875 4.265625 0 4.109375 0 Z M 1.84375 0 "/></g></g></g><g fill="#66344a" fill-opacity="1"><g transform="translate(149.515433, 281.639982)"><g><path d="M 1.171875 1.578125 C 1.046875 1.578125 0.945312 1.53125 0.875 1.4375 C 0.8125 1.34375 0.785156 1.234375 0.796875 1.109375 L 1.390625 -2.703125 C 1.410156 -2.890625 1.476562 -3.054688 1.59375 -3.203125 C 1.707031 -3.347656 1.875 -3.421875 2.09375 -3.421875 L 4.3125 -3.421875 C 4.414062 -3.421875 4.503906 -3.378906 4.578125 -3.296875 C 4.648438 -3.210938 4.6875 -3.125 4.6875 -3.03125 C 4.6875 -2.925781 4.671875 -2.832031 4.640625 -2.75 L 3.171875 1.015625 C 3.117188 1.148438 3.035156 1.273438 2.921875 1.390625 C 2.816406 1.515625 2.65625 1.578125 2.4375 1.578125 Z M 1.171875 1.578125 "/></g></g></g><g fill="#66344a" fill-opacity="1"><g transform="translate(155.206454, 281.639982)"><g/></g></g><g fill="#66344a" fill-opacity="1"><g transform="translate(159.847467, 281.639982)"><g><path d="M 1.828125 0 C 1.679688 0 1.554688 -0.046875 1.453125 -0.140625 C 1.347656 -0.242188 1.296875 -0.375 1.296875 -0.53125 L 1.296875 -10.390625 C 1.296875 -10.546875 1.347656 -10.671875 1.453125 -10.765625 C 1.554688 -10.867188 1.679688 -10.921875 1.828125 -10.921875 L 3.890625 -10.921875 C 4.035156 -10.921875 4.15625 -10.867188 4.25 -10.765625 C 4.351562 -10.671875 4.40625 -10.546875 4.40625 -10.390625 L 4.40625 -9.578125 C 4.769531 -10.023438 5.242188 -10.394531 5.828125 -10.6875 C 6.410156 -10.976562 7.109375 -11.125 7.921875 -11.125 C 8.742188 -11.125 9.46875 -10.9375 10.09375 -10.5625 C 10.726562 -10.195312 11.21875 -9.660156 11.5625 -8.953125 C 11.914062 -8.242188 12.09375 -7.390625 12.09375 -6.390625 L 12.09375 -0.53125 C 12.09375 -0.375 12.039062 -0.242188 11.9375 -0.140625 C 11.84375 -0.046875 11.722656 0 11.578125 0 L 9.34375 0 C 9.1875 0 9.054688 -0.046875 8.953125 -0.140625 C 8.859375 -0.242188 8.8125 -0.375 8.8125 -0.53125 L 8.8125 -6.265625 C 8.8125 -7.003906 8.632812 -7.578125 8.28125 -7.984375 C 7.925781 -8.398438 7.40625 -8.609375 6.71875 -8.609375 C 6.0625 -8.609375 5.539062 -8.398438 5.15625 -7.984375 C 4.769531 -7.578125 4.578125 -7.003906 4.578125 -6.265625 L 4.578125 -0.53125 C 4.578125 -0.375 4.523438 -0.242188 4.421875 -0.140625 C 4.328125 -0.046875 4.203125 0 4.046875 0 Z M 1.828125 0 "/></g></g></g><g fill="#66344a" fill-opacity="1"><g transform="translate(173.140523, 281.639982)"><g><path d="M 6.328125 0.203125 C 5.160156 0.203125 4.179688 0.015625 3.390625 -0.359375 C 2.609375 -0.742188 2.007812 -1.296875 1.59375 -2.015625 C 1.1875 -2.734375 0.960938 -3.566406 0.921875 -4.515625 C 0.910156 -4.796875 0.90625 -5.113281 0.90625 -5.46875 C 0.90625 -5.820312 0.910156 -6.132812 0.921875 -6.40625 C 0.960938 -7.375 1.195312 -8.207031 1.625 -8.90625 C 2.0625 -9.613281 2.671875 -10.160156 3.453125 -10.546875 C 4.242188 -10.929688 5.203125 -11.125 6.328125 -11.125 C 7.429688 -11.125 8.375 -10.929688 9.15625 -10.546875 C 9.9375 -10.160156 10.546875 -9.613281 10.984375 -8.90625 C 11.421875 -8.207031 11.664062 -7.375 11.71875 -6.40625 C 11.726562 -6.132812 11.734375 -5.820312 11.734375 -5.46875 C 11.734375 -5.113281 11.726562 -4.796875 11.71875 -4.515625 C 11.664062 -3.566406 11.429688 -2.734375 11.015625 -2.015625 C 10.597656 -1.296875 10 -0.742188 9.21875 -0.359375 C 8.4375 0.015625 7.472656 0.203125 6.328125 0.203125 Z M 6.328125 -2.125 C 7.003906 -2.125 7.515625 -2.332031 7.859375 -2.75 C 8.203125 -3.164062 8.394531 -3.789062 8.4375 -4.625 C 8.457031 -4.832031 8.46875 -5.109375 8.46875 -5.453125 C 8.46875 -5.804688 8.457031 -6.085938 8.4375 -6.296875 C 8.394531 -7.109375 8.203125 -7.726562 7.859375 -8.15625 C 7.515625 -8.582031 7.003906 -8.796875 6.328125 -8.796875 C 5.640625 -8.796875 5.117188 -8.582031 4.765625 -8.15625 C 4.410156 -7.726562 4.210938 -7.109375 4.171875 -6.296875 C 4.160156 -6.085938 4.15625 -5.804688 4.15625 -5.453125 C 4.15625 -5.109375 4.160156 -4.832031 4.171875 -4.625 C 4.210938 -3.789062 4.410156 -3.164062 4.765625 -2.75 C 5.117188 -2.332031 5.640625 -2.125 6.328125 -2.125 Z M 6.328125 -2.125 "/></g></g></g><g fill="#66344a" fill-opacity="1"><g transform="translate(185.76157, 281.639982)"><g/></g></g><g fill="#66344a" fill-opacity="1"><g transform="translate(190.402584, 281.639982)"><g><path d="M 1.828125 0 C 1.679688 0 1.554688 -0.046875 1.453125 -0.140625 C 1.347656 -0.242188 1.296875 -0.375 1.296875 -0.53125 L 1.296875 -10.390625 C 1.296875 -10.546875 1.347656 -10.671875 1.453125 -10.765625 C 1.554688 -10.867188 1.679688 -10.921875 1.828125 -10.921875 L 3.78125 -10.921875 C 3.9375 -10.921875 4.0625 -10.867188 4.15625 -10.765625 C 4.257812 -10.671875 4.3125 -10.546875 4.3125 -10.390625 L 4.3125 -9.6875 C 4.601562 -10.070312 4.992188 -10.40625 5.484375 -10.6875 C 5.984375 -10.96875 6.578125 -11.113281 7.265625 -11.125 C 8.878906 -11.15625 9.992188 -10.539062 10.609375 -9.28125 C 10.929688 -9.820312 11.390625 -10.265625 11.984375 -10.609375 C 12.585938 -10.953125 13.253906 -11.125 13.984375 -11.125 C 14.710938 -11.125 15.367188 -10.957031 15.953125 -10.625 C 16.546875 -10.300781 17.015625 -9.800781 17.359375 -9.125 C 17.710938 -8.445312 17.890625 -7.578125 17.890625 -6.515625 L 17.890625 -0.53125 C 17.890625 -0.375 17.835938 -0.242188 17.734375 -0.140625 C 17.628906 -0.046875 17.503906 0 17.359375 0 L 15.28125 0 C 15.132812 0 15.007812 -0.046875 14.90625 -0.140625 C 14.8125 -0.242188 14.765625 -0.375 14.765625 -0.53125 L 14.765625 -6.34375 C 14.765625 -6.914062 14.679688 -7.363281 14.515625 -7.6875 C 14.359375 -8.007812 14.144531 -8.242188 13.875 -8.390625 C 13.601562 -8.535156 13.296875 -8.609375 12.953125 -8.609375 C 12.660156 -8.609375 12.378906 -8.535156 12.109375 -8.390625 C 11.835938 -8.242188 11.613281 -8.007812 11.4375 -7.6875 C 11.257812 -7.363281 11.171875 -6.914062 11.171875 -6.34375 L 11.171875 -0.53125 C 11.171875 -0.375 11.117188 -0.242188 11.015625 -0.140625 C 10.921875 -0.046875 10.804688 0 10.671875 0 L 8.59375 0 C 8.4375 0 8.304688 -0.046875 8.203125 -0.140625 C 8.109375 -0.242188 8.0625 -0.375 8.0625 -0.53125 L 8.0625 -6.34375 C 8.0625 -6.914062 7.976562 -7.363281 7.8125 -7.6875 C 7.644531 -8.007812 7.421875 -8.242188 7.140625 -8.390625 C 6.867188 -8.535156 6.578125 -8.609375 6.265625 -8.609375 C 5.960938 -8.609375 5.675781 -8.535156 5.40625 -8.390625 C 5.132812 -8.242188 4.910156 -8.007812 4.734375 -7.6875 C 4.554688 -7.363281 4.46875 -6.921875 4.46875 -6.359375 L 4.46875 -0.53125 C 4.46875 -0.375 4.414062 -0.242188 4.3125 -0.140625 C 4.21875 -0.046875 4.097656 0 3.953125 0 Z M 1.828125 0 "/></g></g></g><g fill="#66344a" fill-opacity="1"><g transform="translate(209.49166, 281.639982)"><g><path d="M 4.53125 0.203125 C 3.789062 0.203125 3.125 0.0625 2.53125 -0.21875 C 1.945312 -0.507812 1.476562 -0.898438 1.125 -1.390625 C 0.78125 -1.878906 0.609375 -2.425781 0.609375 -3.03125 C 0.609375 -4.019531 1.007812 -4.800781 1.8125 -5.375 C 2.625 -5.945312 3.6875 -6.335938 5 -6.546875 L 7.75 -6.953125 L 7.75 -7.328125 C 7.75 -7.867188 7.625 -8.285156 7.375 -8.578125 C 7.125 -8.878906 6.679688 -9.03125 6.046875 -9.03125 C 5.585938 -9.03125 5.21875 -8.9375 4.9375 -8.75 C 4.664062 -8.570312 4.457031 -8.335938 4.3125 -8.046875 C 4.195312 -7.859375 4.023438 -7.765625 3.796875 -7.765625 L 1.8125 -7.765625 C 1.65625 -7.765625 1.535156 -7.8125 1.453125 -7.90625 C 1.367188 -8 1.332031 -8.109375 1.34375 -8.234375 C 1.34375 -8.472656 1.429688 -8.753906 1.609375 -9.078125 C 1.796875 -9.398438 2.078125 -9.71875 2.453125 -10.03125 C 2.835938 -10.34375 3.328125 -10.601562 3.921875 -10.8125 C 4.515625 -11.019531 5.226562 -11.125 6.0625 -11.125 C 6.945312 -11.125 7.703125 -11.019531 8.328125 -10.8125 C 8.960938 -10.601562 9.472656 -10.304688 9.859375 -9.921875 C 10.242188 -9.546875 10.523438 -9.109375 10.703125 -8.609375 C 10.878906 -8.117188 10.96875 -7.585938 10.96875 -7.015625 L 10.96875 -0.53125 C 10.96875 -0.375 10.914062 -0.242188 10.8125 -0.140625 C 10.71875 -0.046875 10.597656 0 10.453125 0 L 8.375 0 C 8.238281 0 8.117188 -0.046875 8.015625 -0.140625 C 7.921875 -0.242188 7.875 -0.375 7.875 -0.53125 L 7.875 -1.296875 C 7.695312 -1.035156 7.453125 -0.785156 7.140625 -0.546875 C 6.828125 -0.316406 6.457031 -0.132812 6.03125 0 C 5.601562 0.132812 5.101562 0.203125 4.53125 0.203125 Z M 5.375 -1.96875 C 5.832031 -1.96875 6.242188 -2.066406 6.609375 -2.265625 C 6.972656 -2.460938 7.257812 -2.765625 7.46875 -3.171875 C 7.6875 -3.578125 7.796875 -4.085938 7.796875 -4.703125 L 7.796875 -5.0625 L 5.84375 -4.75 C 5.09375 -4.625 4.539062 -4.429688 4.1875 -4.171875 C 3.84375 -3.921875 3.671875 -3.613281 3.671875 -3.25 C 3.671875 -2.988281 3.75 -2.757812 3.90625 -2.5625 C 4.070312 -2.375 4.285156 -2.226562 4.546875 -2.125 C 4.804688 -2.019531 5.082031 -1.96875 5.375 -1.96875 Z M 5.375 -1.96875 "/></g></g></g><g fill="#66344a" fill-opacity="1"><g transform="translate(221.671709, 281.639982)"><g><path d="M 1.828125 0 C 1.679688 0 1.554688 -0.046875 1.453125 -0.140625 C 1.347656 -0.242188 1.296875 -0.375 1.296875 -0.53125 L 1.296875 -10.390625 C 1.296875 -10.546875 1.347656 -10.671875 1.453125 -10.765625 C 1.554688 -10.867188 1.679688 -10.921875 1.828125 -10.921875 L 3.953125 -10.921875 C 4.085938 -10.921875 4.203125 -10.867188 4.296875 -10.765625 C 4.398438 -10.671875 4.453125 -10.546875 4.453125 -10.390625 L 4.453125 -0.53125 C 4.453125 -0.375 4.398438 -0.242188 4.296875 -0.140625 C 4.203125 -0.046875 4.085938 0 3.953125 0 Z M 1.765625 -12.59375 C 1.617188 -12.59375 1.5 -12.640625 1.40625 -12.734375 C 1.3125 -12.835938 1.265625 -12.96875 1.265625 -13.125 L 1.265625 -14.828125 C 1.265625 -14.960938 1.3125 -15.082031 1.40625 -15.1875 C 1.5 -15.289062 1.617188 -15.34375 1.765625 -15.34375 L 3.984375 -15.34375 C 4.128906 -15.34375 4.253906 -15.289062 4.359375 -15.1875 C 4.460938 -15.082031 4.515625 -14.960938 4.515625 -14.828125 L 4.515625 -13.125 C 4.515625 -12.96875 4.460938 -12.835938 4.359375 -12.734375 C 4.253906 -12.640625 4.128906 -12.59375 3.984375 -12.59375 Z M 1.765625 -12.59375 "/></g></g></g><g fill="#66344a" fill-opacity="1"><g transform="translate(227.446729, 281.639982)"><g><path d="M 1.828125 0 C 1.679688 0 1.554688 -0.046875 1.453125 -0.140625 C 1.347656 -0.242188 1.296875 -0.375 1.296875 -0.53125 L 1.296875 -10.390625 C 1.296875 -10.546875 1.347656 -10.671875 1.453125 -10.765625 C 1.554688 -10.867188 1.679688 -10.921875 1.828125 -10.921875 L 3.890625 -10.921875 C 4.035156 -10.921875 4.15625 -10.867188 4.25 -10.765625 C 4.351562 -10.671875 4.40625 -10.546875 4.40625 -10.390625 L 4.40625 -9.578125 C 4.769531 -10.023438 5.242188 -10.394531 5.828125 -10.6875 C 6.410156 -10.976562 7.109375 -11.125 7.921875 -11.125 C 8.742188 -11.125 9.46875 -10.9375 10.09375 -10.5625 C 10.726562 -10.195312 11.21875 -9.660156 11.5625 -8.953125 C 11.914062 -8.242188 12.09375 -7.390625 12.09375 -6.390625 L 12.09375 -0.53125 C 12.09375 -0.375 12.039062 -0.242188 11.9375 -0.140625 C 11.84375 -0.046875 11.722656 0 11.578125 0 L 9.34375 0 C 9.1875 0 9.054688 -0.046875 8.953125 -0.140625 C 8.859375 -0.242188 8.8125 -0.375 8.8125 -0.53125 L 8.8125 -6.265625 C 8.8125 -7.003906 8.632812 -7.578125 8.28125 -7.984375 C 7.925781 -8.398438 7.40625 -8.609375 6.71875 -8.609375 C 6.0625 -8.609375 5.539062 -8.398438 5.15625 -7.984375 C 4.769531 -7.578125 4.578125 -7.003906 4.578125 -6.265625 L 4.578125 -0.53125 C 4.578125 -0.375 4.523438 -0.242188 4.421875 -0.140625 C 4.328125 -0.046875 4.203125 0 4.046875 0 Z M 1.828125 0 "/></g></g></g><g fill="#66344a" fill-opacity="1"><g transform="translate(240.739785, 281.639982)"><g/></g></g><g fill="#66344a" fill-opacity="1"><g transform="translate(245.380798, 281.639982)"><g><path d="M 1.84375 3.984375 C 1.6875 3.984375 1.5625 3.9375 1.46875 3.84375 C 1.375 3.75 1.328125 3.625 1.328125 3.46875 L 1.328125 -10.390625 C 1.328125 -10.546875 1.375 -10.671875 1.46875 -10.765625 C 1.5625 -10.867188 1.6875 -10.921875 1.84375 -10.921875 L 3.84375 -10.921875 C 4 -10.921875 4.125 -10.867188 4.21875 -10.765625 C 4.320312 -10.671875 4.375 -10.546875 4.375 -10.390625 L 4.375 -9.59375 C 4.707031 -10.039062 5.140625 -10.40625 5.671875 -10.6875 C 6.210938 -10.976562 6.882812 -11.125 7.6875 -11.125 C 8.394531 -11.125 9.019531 -11.007812 9.5625 -10.78125 C 10.101562 -10.550781 10.554688 -10.222656 10.921875 -9.796875 C 11.296875 -9.367188 11.585938 -8.851562 11.796875 -8.25 C 12.003906 -7.644531 12.125 -6.96875 12.15625 -6.21875 C 12.175781 -5.945312 12.1875 -5.691406 12.1875 -5.453125 C 12.1875 -5.222656 12.175781 -4.96875 12.15625 -4.6875 C 12.125 -3.96875 12.007812 -3.304688 11.8125 -2.703125 C 11.613281 -2.109375 11.320312 -1.59375 10.9375 -1.15625 C 10.5625 -0.71875 10.101562 -0.378906 9.5625 -0.140625 C 9.019531 0.0859375 8.394531 0.203125 7.6875 0.203125 C 6.957031 0.203125 6.332031 0.078125 5.8125 -0.171875 C 5.300781 -0.429688 4.875 -0.785156 4.53125 -1.234375 L 4.53125 3.46875 C 4.53125 3.625 4.476562 3.75 4.375 3.84375 C 4.28125 3.9375 4.160156 3.984375 4.015625 3.984375 Z M 6.71875 -2.3125 C 7.25 -2.3125 7.664062 -2.425781 7.96875 -2.65625 C 8.28125 -2.882812 8.503906 -3.1875 8.640625 -3.5625 C 8.773438 -3.945312 8.859375 -4.363281 8.890625 -4.8125 C 8.910156 -5.238281 8.910156 -5.671875 8.890625 -6.109375 C 8.859375 -6.554688 8.773438 -6.96875 8.640625 -7.34375 C 8.503906 -7.726562 8.28125 -8.035156 7.96875 -8.265625 C 7.664062 -8.492188 7.25 -8.609375 6.71875 -8.609375 C 6.195312 -8.609375 5.78125 -8.488281 5.46875 -8.25 C 5.15625 -8.007812 4.925781 -7.707031 4.78125 -7.34375 C 4.632812 -6.976562 4.550781 -6.585938 4.53125 -6.171875 C 4.519531 -5.921875 4.515625 -5.660156 4.515625 -5.390625 C 4.515625 -5.128906 4.519531 -4.863281 4.53125 -4.59375 C 4.550781 -4.207031 4.632812 -3.84375 4.78125 -3.5 C 4.9375 -3.15625 5.175781 -2.867188 5.5 -2.640625 C 5.820312 -2.421875 6.226562 -2.3125 6.71875 -2.3125 Z M 6.71875 -2.3125 "/></g></g></g><g fill="#66344a" fill-opacity="1"><g transform="translate(258.442855, 281.639982)"><g><path d="M 1.828125 0 C 1.679688 0 1.554688 -0.046875 1.453125 -0.140625 C 1.347656 -0.242188 1.296875 -0.375 1.296875 -0.53125 L 1.296875 -10.390625 C 1.296875 -10.535156 1.347656 -10.660156 1.453125 -10.765625 C 1.554688 -10.867188 1.679688 -10.921875 1.828125 -10.921875 L 3.890625 -10.921875 C 4.035156 -10.921875 4.15625 -10.867188 4.25 -10.765625 C 4.351562 -10.660156 4.40625 -10.535156 4.40625 -10.390625 L 4.40625 -9.5625 C 4.757812 -9.988281 5.191406 -10.320312 5.703125 -10.5625 C 6.222656 -10.800781 6.8125 -10.921875 7.46875 -10.921875 L 8.375 -10.921875 C 8.53125 -10.921875 8.65625 -10.867188 8.75 -10.765625 C 8.851562 -10.671875 8.90625 -10.546875 8.90625 -10.390625 L 8.90625 -8.5625 C 8.90625 -8.425781 8.851562 -8.304688 8.75 -8.203125 C 8.65625 -8.109375 8.53125 -8.0625 8.375 -8.0625 L 6.546875 -8.0625 C 5.921875 -8.0625 5.4375 -7.882812 5.09375 -7.53125 C 4.75 -7.1875 4.578125 -6.707031 4.578125 -6.09375 L 4.578125 -0.53125 C 4.578125 -0.375 4.523438 -0.242188 4.421875 -0.140625 C 4.316406 -0.046875 4.191406 0 4.046875 0 Z M 1.828125 0 "/></g></g></g><g fill="#66344a" fill-opacity="1"><g transform="translate(267.598883, 281.639982)"><g><path d="M 6.328125 0.203125 C 5.160156 0.203125 4.179688 0.015625 3.390625 -0.359375 C 2.609375 -0.742188 2.007812 -1.296875 1.59375 -2.015625 C 1.1875 -2.734375 0.960938 -3.566406 0.921875 -4.515625 C 0.910156 -4.796875 0.90625 -5.113281 0.90625 -5.46875 C 0.90625 -5.820312 0.910156 -6.132812 0.921875 -6.40625 C 0.960938 -7.375 1.195312 -8.207031 1.625 -8.90625 C 2.0625 -9.613281 2.671875 -10.160156 3.453125 -10.546875 C 4.242188 -10.929688 5.203125 -11.125 6.328125 -11.125 C 7.429688 -11.125 8.375 -10.929688 9.15625 -10.546875 C 9.9375 -10.160156 10.546875 -9.613281 10.984375 -8.90625 C 11.421875 -8.207031 11.664062 -7.375 11.71875 -6.40625 C 11.726562 -6.132812 11.734375 -5.820312 11.734375 -5.46875 C 11.734375 -5.113281 11.726562 -4.796875 11.71875 -4.515625 C 11.664062 -3.566406 11.429688 -2.734375 11.015625 -2.015625 C 10.597656 -1.296875 10 -0.742188 9.21875 -0.359375 C 8.4375 0.015625 7.472656 0.203125 6.328125 0.203125 Z M 6.328125 -2.125 C 7.003906 -2.125 7.515625 -2.332031 7.859375 -2.75 C 8.203125 -3.164062 8.394531 -3.789062 8.4375 -4.625 C 8.457031 -4.832031 8.46875 -5.109375 8.46875 -5.453125 C 8.46875 -5.804688 8.457031 -6.085938 8.4375 -6.296875 C 8.394531 -7.109375 8.203125 -7.726562 7.859375 -8.15625 C 7.515625 -8.582031 7.003906 -8.796875 6.328125 -8.796875 C 5.640625 -8.796875 5.117188 -8.582031 4.765625 -8.15625 C 4.410156 -7.726562 4.210938 -7.109375 4.171875 -6.296875 C 4.160156 -6.085938 4.15625 -5.804688 4.15625 -5.453125 C 4.15625 -5.109375 4.160156 -4.832031 4.171875 -4.625 C 4.210938 -3.789062 4.410156 -3.164062 4.765625 -2.75 C 5.117188 -2.332031 5.640625 -2.125 6.328125 -2.125 Z M 6.328125 -2.125 "/></g></g></g><g fill="#66344a" fill-opacity="1"><g transform="translate(280.219931, 281.639982)"><g><path d="M 6.453125 4.625 C 5.410156 4.625 4.546875 4.484375 3.859375 4.203125 C 3.171875 3.929688 2.628906 3.601562 2.234375 3.21875 C 1.835938 2.832031 1.554688 2.453125 1.390625 2.078125 C 1.222656 1.703125 1.128906 1.398438 1.109375 1.171875 C 1.097656 1.035156 1.144531 0.914062 1.25 0.8125 C 1.363281 0.707031 1.492188 0.65625 1.640625 0.65625 L 3.890625 0.65625 C 4.023438 0.65625 4.132812 0.6875 4.21875 0.75 C 4.300781 0.8125 4.375 0.925781 4.4375 1.09375 C 4.519531 1.257812 4.625 1.4375 4.75 1.625 C 4.875 1.8125 5.0625 1.96875 5.3125 2.09375 C 5.5625 2.21875 5.90625 2.28125 6.34375 2.28125 C 6.832031 2.28125 7.238281 2.210938 7.5625 2.078125 C 7.882812 1.941406 8.125 1.703125 8.28125 1.359375 C 8.445312 1.023438 8.53125 0.570312 8.53125 0 L 8.53125 -1.40625 C 8.1875 -1.039062 7.757812 -0.738281 7.25 -0.5 C 6.738281 -0.257812 6.113281 -0.140625 5.375 -0.140625 C 4.644531 -0.140625 4.003906 -0.253906 3.453125 -0.484375 C 2.898438 -0.722656 2.441406 -1.054688 2.078125 -1.484375 C 1.710938 -1.910156 1.429688 -2.421875 1.234375 -3.015625 C 1.035156 -3.617188 0.925781 -4.300781 0.90625 -5.0625 C 0.882812 -5.4375 0.882812 -5.804688 0.90625 -6.171875 C 0.925781 -6.898438 1.035156 -7.566406 1.234375 -8.171875 C 1.429688 -8.773438 1.710938 -9.296875 2.078125 -9.734375 C 2.441406 -10.171875 2.898438 -10.507812 3.453125 -10.75 C 4.003906 -11 4.644531 -11.125 5.375 -11.125 C 6.144531 -11.125 6.800781 -10.976562 7.34375 -10.6875 C 7.894531 -10.394531 8.34375 -10.03125 8.6875 -9.59375 L 8.6875 -10.390625 C 8.6875 -10.535156 8.734375 -10.660156 8.828125 -10.765625 C 8.929688 -10.867188 9.054688 -10.921875 9.203125 -10.921875 L 11.25 -10.921875 C 11.40625 -10.921875 11.53125 -10.867188 11.625 -10.765625 C 11.726562 -10.660156 11.78125 -10.535156 11.78125 -10.390625 L 11.796875 -0.296875 C 11.796875 0.753906 11.59375 1.644531 11.1875 2.375 C 10.78125 3.101562 10.179688 3.660156 9.390625 4.046875 C 8.609375 4.429688 7.628906 4.625 6.453125 4.625 Z M 6.34375 -2.625 C 6.84375 -2.625 7.25 -2.734375 7.5625 -2.953125 C 7.882812 -3.179688 8.117188 -3.472656 8.265625 -3.828125 C 8.421875 -4.191406 8.507812 -4.566406 8.53125 -4.953125 C 8.539062 -5.109375 8.546875 -5.328125 8.546875 -5.609375 C 8.546875 -5.898438 8.539062 -6.125 8.53125 -6.28125 C 8.507812 -6.664062 8.421875 -7.035156 8.265625 -7.390625 C 8.117188 -7.742188 7.882812 -8.035156 7.5625 -8.265625 C 7.25 -8.492188 6.84375 -8.609375 6.34375 -8.609375 C 5.8125 -8.609375 5.390625 -8.492188 5.078125 -8.265625 C 4.773438 -8.035156 4.554688 -7.726562 4.421875 -7.34375 C 4.285156 -6.96875 4.203125 -6.554688 4.171875 -6.109375 C 4.148438 -5.773438 4.148438 -5.445312 4.171875 -5.125 C 4.203125 -4.664062 4.285156 -4.242188 4.421875 -3.859375 C 4.554688 -3.484375 4.773438 -3.179688 5.078125 -2.953125 C 5.390625 -2.734375 5.8125 -2.625 6.34375 -2.625 Z M 6.34375 -2.625 "/></g></g></g><g fill="#66344a" fill-opacity="1"><g transform="translate(293.344975, 281.639982)"><g><path d="M 1.828125 0 C 1.679688 0 1.554688 -0.046875 1.453125 -0.140625 C 1.347656 -0.242188 1.296875 -0.375 1.296875 -0.53125 L 1.296875 -10.390625 C 1.296875 -10.535156 1.347656 -10.660156 1.453125 -10.765625 C 1.554688 -10.867188 1.679688 -10.921875 1.828125 -10.921875 L 3.890625 -10.921875 C 4.035156 -10.921875 4.15625 -10.867188 4.25 -10.765625 C 4.351562 -10.660156 4.40625 -10.535156 4.40625 -10.390625 L 4.40625 -9.5625 C 4.757812 -9.988281 5.191406 -10.320312 5.703125 -10.5625 C 6.222656 -10.800781 6.8125 -10.921875 7.46875 -10.921875 L 8.375 -10.921875 C 8.53125 -10.921875 8.65625 -10.867188 8.75 -10.765625 C 8.851562 -10.671875 8.90625 -10.546875 8.90625 -10.390625 L 8.90625 -8.5625 C 8.90625 -8.425781 8.851562 -8.304688 8.75 -8.203125 C 8.65625 -8.109375 8.53125 -8.0625 8.375 -8.0625 L 6.546875 -8.0625 C 5.921875 -8.0625 5.4375 -7.882812 5.09375 -7.53125 C 4.75 -7.1875 4.578125 -6.707031 4.578125 -6.09375 L 4.578125 -0.53125 C 4.578125 -0.375 4.523438 -0.242188 4.421875 -0.140625 C 4.316406 -0.046875 4.191406 0 4.046875 0 Z M 1.828125 0 "/></g></g></g><g fill="#66344a" fill-opacity="1"><g transform="translate(302.501026, 281.639982)"><g><path d="M 4.53125 0.203125 C 3.789062 0.203125 3.125 0.0625 2.53125 -0.21875 C 1.945312 -0.507812 1.476562 -0.898438 1.125 -1.390625 C 0.78125 -1.878906 0.609375 -2.425781 0.609375 -3.03125 C 0.609375 -4.019531 1.007812 -4.800781 1.8125 -5.375 C 2.625 -5.945312 3.6875 -6.335938 5 -6.546875 L 7.75 -6.953125 L 7.75 -7.328125 C 7.75 -7.867188 7.625 -8.285156 7.375 -8.578125 C 7.125 -8.878906 6.679688 -9.03125 6.046875 -9.03125 C 5.585938 -9.03125 5.21875 -8.9375 4.9375 -8.75 C 4.664062 -8.570312 4.457031 -8.335938 4.3125 -8.046875 C 4.195312 -7.859375 4.023438 -7.765625 3.796875 -7.765625 L 1.8125 -7.765625 C 1.65625 -7.765625 1.535156 -7.8125 1.453125 -7.90625 C 1.367188 -8 1.332031 -8.109375 1.34375 -8.234375 C 1.34375 -8.472656 1.429688 -8.753906 1.609375 -9.078125 C 1.796875 -9.398438 2.078125 -9.71875 2.453125 -10.03125 C 2.835938 -10.34375 3.328125 -10.601562 3.921875 -10.8125 C 4.515625 -11.019531 5.226562 -11.125 6.0625 -11.125 C 6.945312 -11.125 7.703125 -11.019531 8.328125 -10.8125 C 8.960938 -10.601562 9.472656 -10.304688 9.859375 -9.921875 C 10.242188 -9.546875 10.523438 -9.109375 10.703125 -8.609375 C 10.878906 -8.117188 10.96875 -7.585938 10.96875 -7.015625 L 10.96875 -0.53125 C 10.96875 -0.375 10.914062 -0.242188 10.8125 -0.140625 C 10.71875 -0.046875 10.597656 0 10.453125 0 L 8.375 0 C 8.238281 0 8.117188 -0.046875 8.015625 -0.140625 C 7.921875 -0.242188 7.875 -0.375 7.875 -0.53125 L 7.875 -1.296875 C 7.695312 -1.035156 7.453125 -0.785156 7.140625 -0.546875 C 6.828125 -0.316406 6.457031 -0.132812 6.03125 0 C 5.601562 0.132812 5.101562 0.203125 4.53125 0.203125 Z M 5.375 -1.96875 C 5.832031 -1.96875 6.242188 -2.066406 6.609375 -2.265625 C 6.972656 -2.460938 7.257812 -2.765625 7.46875 -3.171875 C 7.6875 -3.578125 7.796875 -4.085938 7.796875 -4.703125 L 7.796875 -5.0625 L 5.84375 -4.75 C 5.09375 -4.625 4.539062 -4.429688 4.1875 -4.171875 C 3.84375 -3.921875 3.671875 -3.613281 3.671875 -3.25 C 3.671875 -2.988281 3.75 -2.757812 3.90625 -2.5625 C 4.070312 -2.375 4.285156 -2.226562 4.546875 -2.125 C 4.804688 -2.019531 5.082031 -1.96875 5.375 -1.96875 Z M 5.375 -1.96875 "/></g></g></g><g fill="#66344a" fill-opacity="1"><g transform="translate(314.681064, 281.639982)"><g><path d="M 1.828125 0 C 1.679688 0 1.554688 -0.046875 1.453125 -0.140625 C 1.347656 -0.242188 1.296875 -0.375 1.296875 -0.53125 L 1.296875 -10.390625 C 1.296875 -10.546875 1.347656 -10.671875 1.453125 -10.765625 C 1.554688 -10.867188 1.679688 -10.921875 1.828125 -10.921875 L 3.78125 -10.921875 C 3.9375 -10.921875 4.0625 -10.867188 4.15625 -10.765625 C 4.257812 -10.671875 4.3125 -10.546875 4.3125 -10.390625 L 4.3125 -9.6875 C 4.601562 -10.070312 4.992188 -10.40625 5.484375 -10.6875 C 5.984375 -10.96875 6.578125 -11.113281 7.265625 -11.125 C 8.878906 -11.15625 9.992188 -10.539062 10.609375 -9.28125 C 10.929688 -9.820312 11.390625 -10.265625 11.984375 -10.609375 C 12.585938 -10.953125 13.253906 -11.125 13.984375 -11.125 C 14.710938 -11.125 15.367188 -10.957031 15.953125 -10.625 C 16.546875 -10.300781 17.015625 -9.800781 17.359375 -9.125 C 17.710938 -8.445312 17.890625 -7.578125 17.890625 -6.515625 L 17.890625 -0.53125 C 17.890625 -0.375 17.835938 -0.242188 17.734375 -0.140625 C 17.628906 -0.046875 17.503906 0 17.359375 0 L 15.28125 0 C 15.132812 0 15.007812 -0.046875 14.90625 -0.140625 C 14.8125 -0.242188 14.765625 -0.375 14.765625 -0.53125 L 14.765625 -6.34375 C 14.765625 -6.914062 14.679688 -7.363281 14.515625 -7.6875 C 14.359375 -8.007812 14.144531 -8.242188 13.875 -8.390625 C 13.601562 -8.535156 13.296875 -8.609375 12.953125 -8.609375 C 12.660156 -8.609375 12.378906 -8.535156 12.109375 -8.390625 C 11.835938 -8.242188 11.613281 -8.007812 11.4375 -7.6875 C 11.257812 -7.363281 11.171875 -6.914062 11.171875 -6.34375 L 11.171875 -0.53125 C 11.171875 -0.375 11.117188 -0.242188 11.015625 -0.140625 C 10.921875 -0.046875 10.804688 0 10.671875 0 L 8.59375 0 C 8.4375 0 8.304688 -0.046875 8.203125 -0.140625 C 8.109375 -0.242188 8.0625 -0.375 8.0625 -0.53125 L 8.0625 -6.34375 C 8.0625 -6.914062 7.976562 -7.363281 7.8125 -7.6875 C 7.644531 -8.007812 7.421875 -8.242188 7.140625 -8.390625 C 6.867188 -8.535156 6.578125 -8.609375 6.265625 -8.609375 C 5.960938 -8.609375 5.675781 -8.535156 5.40625 -8.390625 C 5.132812 -8.242188 4.910156 -8.007812 4.734375 -7.6875 C 4.554688 -7.363281 4.46875 -6.921875 4.46875 -6.359375 L 4.46875 -0.53125 C 4.46875 -0.375 4.414062 -0.242188 4.3125 -0.140625 C 4.21875 -0.046875 4.097656 0 3.953125 0 Z M 1.828125 0 "/></g></g></g></svg>