<svg xmlns="http://www.w3.org/2000/svg" xmlns:xlink="http://www.w3.org/1999/xlink" width="530" zoomAndPan="magnify" viewBox="0 0 397.5 209.999996" height="280" preserveAspectRatio="xMidYMid meet" version="1.0"><defs><g/><clipPath id="id1"><path d="M 75.59375 75.515625 L 134.84375 75.515625 L 134.84375 134.765625 L 75.59375 134.765625 Z M 75.59375 75.515625 " clip-rule="nonzero"/></clipPath></defs><path fill="#f9cf00" d="M 102.59375 88.867188 C 102.238281 82.078125 96.640625 76.683594 89.789062 76.683594 C 82.933594 76.683594 76.960938 82.445312 76.960938 89.558594 C 76.960938 96.667969 82.300781 102.015625 89.03125 102.40625 C 89.28125 102.421875 89.535156 102.429688 89.789062 102.429688 C 96.871094 102.429688 102.613281 96.667969 102.613281 89.558594 C 102.613281 89.324219 102.605469 89.09375 102.59375 88.867188 Z M 102.59375 88.867188 " fill-opacity="1" fill-rule="nonzero"/><path fill="#00c178" d="M 121.3125 107.863281 C 128.179688 108.105469 133.675781 113.773438 133.675781 120.726562 C 133.675781 127.683594 127.933594 133.601562 120.851562 133.601562 C 113.765625 133.601562 108.316406 128.125 108.035156 121.265625 C 108.027344 121.085938 108.027344 120.910156 108.027344 120.726562 C 108.027344 113.617188 113.765625 107.855469 120.851562 107.855469 C 121.003906 107.855469 121.160156 107.855469 121.3125 107.863281 Z M 121.3125 107.863281 " fill-opacity="1" fill-rule="nonzero"/><path fill="#f56262" d="M 102.402344 120.726562 C 102.402344 120.910156 102.398438 121.09375 102.386719 121.277344 C 102.101562 128.132812 96.476562 133.601562 89.574219 133.601562 C 82.675781 133.601562 76.75 127.839844 76.75 120.726562 C 76.75 113.617188 82.207031 108.144531 89.046875 107.867188 C 89.222656 107.859375 89.398438 107.855469 89.574219 107.855469 C 96.660156 107.855469 102.402344 113.617188 102.402344 120.726562 Z M 102.402344 120.726562 " fill-opacity="1" fill-rule="nonzero"/><path fill="#00bef9" d="M 121.328125 102.421875 C 121.171875 102.425781 121.011719 102.429688 120.851562 102.429688 C 113.765625 102.429688 108.027344 96.667969 108.027344 89.558594 C 108.027344 89.339844 108.03125 89.125 108.039062 88.910156 C 108.375 82.101562 113.984375 76.683594 120.851562 76.683594 C 127.71875 76.683594 133.675781 82.445312 133.675781 89.558594 C 133.675781 96.667969 128.191406 102.167969 121.328125 102.421875 Z M 121.328125 102.421875 " fill-opacity="1" fill-rule="nonzero"/><path fill="#000000" d="M 93.742188 121.855469 C 93.105469 121.855469 92.585938 122.378906 92.585938 123.019531 C 92.585938 124.769531 91.234375 126.191406 89.574219 126.191406 C 87.917969 126.191406 86.566406 124.769531 86.566406 123.019531 C 86.566406 121.269531 87.917969 119.847656 89.574219 119.847656 L 90.675781 119.847656 C 91.316406 119.847656 91.835938 119.324219 91.835938 118.683594 C 91.835938 118.042969 91.316406 117.523438 90.675781 117.523438 C 90.101562 117.523438 89.632812 117.015625 89.632812 116.390625 C 89.632812 115.769531 90.101562 115.261719 90.675781 115.261719 C 91.316406 115.261719 91.835938 114.742188 91.835938 114.101562 C 91.835938 113.460938 91.316406 112.9375 90.675781 112.9375 C 88.203125 112.9375 86.574219 115.609375 87.652344 117.894531 C 85.664062 118.691406 84.25 120.6875 84.25 123.019531 C 84.25 126.050781 86.640625 128.519531 89.574219 128.519531 C 92.511719 128.519531 94.902344 126.050781 94.902344 123.019531 C 94.902344 122.378906 94.382812 121.855469 93.742188 121.855469 Z M 93.742188 121.855469 " fill-opacity="1" fill-rule="nonzero"/><path fill="#000000" d="M 126.0625 117.75 C 126.0625 117.109375 125.542969 116.585938 124.90625 116.585938 L 122.007812 116.585938 L 122.007812 114.101562 C 122.007812 113.460938 121.488281 112.9375 120.851562 112.9375 C 120.210938 112.9375 119.691406 113.460938 119.691406 114.101562 L 119.691406 116.585938 L 116.796875 116.585938 C 116.15625 116.585938 115.636719 117.109375 115.636719 117.75 C 115.636719 118.390625 116.15625 118.914062 116.796875 118.914062 L 119.675781 118.914062 C 119.523438 121.539062 118.25 124.167969 115.960938 126.550781 C 115.519531 127.011719 115.53125 127.75 115.992188 128.195312 C 116.21875 128.410156 116.507812 128.519531 116.796875 128.519531 C 117.101562 128.519531 117.402344 128.402344 117.628906 128.164062 C 119.035156 126.699219 120.113281 125.140625 120.851562 123.53125 C 121.585938 125.140625 122.664062 126.699219 124.070312 128.164062 C 124.296875 128.402344 124.601562 128.519531 124.90625 128.519531 C 125.207031 128.519531 125.484375 128.410156 125.707031 128.195312 C 126.167969 127.75 126.183594 127.011719 125.738281 126.550781 C 123.453125 124.167969 122.175781 121.539062 122.023438 118.914062 L 124.90625 118.914062 C 125.542969 118.914062 126.0625 118.390625 126.0625 117.75 Z M 126.0625 117.75 " fill-opacity="1" fill-rule="nonzero"/><path fill="#000000" d="M 92.238281 93.195312 L 93.050781 95.652344 C 93.210938 96.140625 93.664062 96.453125 94.148438 96.453125 C 94.9375 96.453125 95.496094 95.675781 95.246094 94.921875 L 90.9375 81.855469 C 90.9375 81.855469 90.933594 81.84375 90.933594 81.839844 C 90.929688 81.835938 90.929688 81.828125 90.925781 81.824219 C 90.71875 81.246094 90.195312 80.871094 89.59375 80.871094 C 88.992188 80.871094 88.46875 81.246094 88.261719 81.828125 C 88.261719 81.835938 88.257812 81.84375 88.253906 81.851562 L 83.90625 94.917969 C 83.703125 95.527344 84.03125 96.1875 84.636719 96.390625 C 85.246094 96.59375 85.898438 96.261719 86.101562 95.65625 L 86.921875 93.195312 Z M 89.59375 85.171875 L 91.472656 90.871094 L 87.695312 90.871094 Z M 89.59375 85.171875 " fill-opacity="1" fill-rule="nonzero"/><g clip-path="url(#id1)"><path fill="#000000" d="M 122.621094 106.804688 C 122.726562 105.675781 122.730469 104.59375 122.628906 103.480469 C 129.5 102.601562 134.832031 96.691406 134.832031 89.558594 C 134.832031 81.816406 128.558594 75.519531 120.847656 75.519531 C 113.800781 75.519531 107.957031 80.78125 107.003906 87.59375 C 105.882812 87.480469 104.746094 87.472656 103.628906 87.570312 C 102.664062 80.765625 96.824219 75.519531 89.785156 75.519531 C 82.078125 75.519531 75.804688 81.816406 75.804688 89.558594 C 75.804688 96.59375 80.992188 102.441406 87.730469 103.441406 C 87.628906 104.566406 87.625 105.65625 87.738281 106.8125 C 80.894531 107.71875 75.589844 113.613281 75.589844 120.726562 C 75.589844 128.46875 81.863281 134.765625 89.574219 134.765625 C 96.65625 134.765625 102.527344 129.453125 103.4375 122.589844 C 104.625 122.710938 105.796875 122.707031 106.988281 122.582031 C 107.898438 129.449219 113.765625 134.765625 120.851562 134.765625 C 128.5625 134.765625 134.835938 128.46875 134.835938 120.726562 C 134.835938 113.589844 129.5 107.679688 122.621094 106.804688 Z M 120.851562 77.84375 C 127.285156 77.84375 132.519531 83.097656 132.519531 89.554688 C 132.519531 96.011719 127.285156 101.265625 120.851562 101.265625 C 114.417969 101.265625 109.183594 96.011719 109.183594 89.554688 C 109.183594 83.097656 114.417969 77.84375 120.851562 77.84375 Z M 78.121094 89.558594 C 78.121094 83.097656 83.355469 77.847656 89.785156 77.847656 C 96.21875 77.847656 101.453125 83.097656 101.453125 89.558594 C 101.453125 96.015625 96.222656 101.265625 89.785156 101.265625 C 83.351562 101.265625 78.121094 96.015625 78.121094 89.558594 Z M 89.574219 132.441406 C 83.140625 132.441406 77.90625 127.1875 77.90625 120.730469 C 77.90625 114.273438 83.140625 109.019531 89.574219 109.019531 C 96.007812 109.019531 101.242188 114.273438 101.242188 120.730469 C 101.242188 127.1875 96.007812 132.441406 89.574219 132.441406 Z M 103.550781 120.265625 C 103.3125 112.898438 97.390625 106.949219 90.054688 106.703125 C 89.941406 105.628906 89.945312 104.601562 90.042969 103.589844 C 97.523438 103.453125 103.589844 97.390625 103.765625 89.894531 C 104.792969 89.800781 105.839844 89.808594 106.871094 89.921875 C 107.058594 97.3125 112.96875 103.300781 120.308594 103.582031 C 120.410156 104.621094 120.414062 105.625 120.300781 106.707031 C 113 106.988281 107.117188 112.921875 106.875 120.261719 C 105.769531 120.382812 104.648438 120.386719 103.550781 120.269531 Z M 120.851562 132.441406 C 114.417969 132.441406 109.183594 127.1875 109.183594 120.730469 C 109.183594 114.273438 114.417969 109.019531 120.851562 109.019531 C 127.285156 109.019531 132.519531 114.273438 132.519531 120.730469 C 132.519531 127.1875 127.285156 132.441406 120.851562 132.441406 Z M 120.851562 132.441406 " fill-opacity="1" fill-rule="nonzero"/></g><path fill="#000000" d="M 115.636719 87.351562 L 116.640625 87.351562 C 117.371094 89.105469 118.300781 90.789062 119.402344 92.367188 C 118.5625 93.414062 117.632812 94.40625 116.625 95.320312 C 116.148438 95.753906 116.113281 96.488281 116.542969 96.964844 C 116.972656 97.4375 117.707031 97.476562 118.179688 97.042969 C 119.136719 96.171875 120.03125 95.238281 120.851562 94.257812 C 121.671875 95.238281 122.566406 96.171875 123.523438 97.042969 C 123.996094 97.472656 124.726562 97.441406 125.15625 96.960938 C 125.589844 96.488281 125.550781 95.75 125.078125 95.320312 C 124.070312 94.402344 123.140625 93.414062 122.296875 92.363281 C 123.402344 90.785156 124.328125 89.101562 125.0625 87.351562 L 126.0625 87.351562 C 126.699219 87.351562 127.21875 86.828125 127.21875 86.1875 C 127.21875 85.546875 126.699219 85.023438 126.0625 85.023438 L 121.957031 85.023438 L 121.957031 83.042969 C 121.957031 82.402344 121.4375 81.878906 120.800781 81.878906 C 120.160156 81.878906 119.640625 82.402344 119.640625 83.042969 L 119.640625 85.023438 L 115.636719 85.023438 C 114.996094 85.023438 114.476562 85.546875 114.476562 86.1875 C 114.476562 86.828125 114.996094 87.351562 115.636719 87.351562 Z M 120.851562 90.367188 C 120.21875 89.394531 119.65625 88.386719 119.175781 87.351562 L 120.792969 87.351562 C 120.792969 87.351562 120.796875 87.351562 120.800781 87.351562 C 120.804688 87.351562 120.808594 87.351562 120.8125 87.351562 L 122.527344 87.351562 C 122.042969 88.386719 121.484375 89.394531 120.851562 90.367188 Z M 120.851562 90.367188 " fill-opacity="1" fill-rule="nonzero"/><g fill="#000000" fill-opacity="1"><g transform="translate(147.23172, 124.68421)"><g><path d="M 1.78125 -0.90625 L 4.359375 -0.90625 L 4.359375 0 L 0.78125 0 L 0.78125 -5.953125 L 1.78125 -5.953125 Z M 1.78125 -0.90625 "/></g></g></g><g fill="#000000" fill-opacity="1"><g transform="translate(153.244375, 124.68421)"><g><path d="M 4.625 -1.34375 L 1.625 -1.34375 L 1.046875 0 L 0.015625 0 L 2.640625 -5.953125 L 3.65625 -5.953125 L 6.265625 0 L 5.1875 0 Z M 4.234375 -2.234375 L 3.125 -4.875 L 2 -2.234375 Z M 4.234375 -2.234375 "/></g></g></g><g fill="#000000" fill-opacity="1"><g transform="translate(160.989489, 124.68421)"><g><path d="M 5.9375 0 L 4.953125 0 L 1.78125 -4.265625 L 1.78125 0 L 0.78125 0 L 0.78125 -5.953125 L 1.765625 -5.953125 L 4.953125 -1.671875 L 4.953125 -5.953125 L 5.9375 -5.953125 Z M 5.9375 0 "/></g></g></g><g fill="#000000" fill-opacity="1"><g transform="translate(169.193199, 124.68421)"><g><path d="M 4.859375 -2.921875 L 5.734375 -2.921875 L 5.734375 -0.734375 C 5.421875 -0.492188 5.054688 -0.300781 4.640625 -0.15625 C 4.222656 -0.0195312 3.816406 0.046875 3.421875 0.046875 C 2.535156 0.046875 1.789062 -0.242188 1.1875 -0.828125 C 0.582031 -1.410156 0.28125 -2.125 0.28125 -2.96875 C 0.28125 -3.820312 0.585938 -4.535156 1.203125 -5.109375 C 1.816406 -5.679688 2.570312 -5.96875 3.46875 -5.96875 C 3.894531 -5.96875 4.3125 -5.894531 4.71875 -5.75 C 5.125 -5.601562 5.472656 -5.398438 5.765625 -5.140625 L 5.1875 -4.40625 C 4.707031 -4.851562 4.132812 -5.078125 3.46875 -5.078125 C 2.863281 -5.078125 2.351562 -4.875 1.9375 -4.46875 C 1.519531 -4.0625 1.3125 -3.5625 1.3125 -2.96875 C 1.3125 -2.375 1.519531 -1.875 1.9375 -1.46875 C 2.363281 -1.0625 2.878906 -0.859375 3.484375 -0.859375 C 3.941406 -0.859375 4.398438 -0.992188 4.859375 -1.265625 Z M 4.859375 -2.921875 "/></g></g></g><g fill="#000000" fill-opacity="1"><g transform="translate(177.031732, 124.68421)"><g><path d="M 5.84375 -5.953125 L 5.84375 -2.46875 C 5.84375 -1.6875 5.613281 -1.070312 5.15625 -0.625 C 4.695312 -0.175781 4.0625 0.046875 3.25 0.046875 C 2.445312 0.046875 1.8125 -0.175781 1.34375 -0.625 C 0.882812 -1.070312 0.65625 -1.6875 0.65625 -2.46875 L 0.65625 -5.953125 L 1.671875 -5.953125 L 1.671875 -2.46875 C 1.671875 -1.96875 1.8125 -1.570312 2.09375 -1.28125 C 2.382812 -1 2.773438 -0.859375 3.265625 -0.859375 C 3.753906 -0.859375 4.140625 -1 4.421875 -1.28125 C 4.703125 -1.5625 4.84375 -1.957031 4.84375 -2.46875 L 4.84375 -5.953125 Z M 5.84375 -5.953125 "/></g></g></g><g fill="#000000" fill-opacity="1"><g transform="translate(184.997647, 124.68421)"><g><path d="M 4.625 -1.34375 L 1.625 -1.34375 L 1.046875 0 L 0.015625 0 L 2.640625 -5.953125 L 3.65625 -5.953125 L 6.265625 0 L 5.1875 0 Z M 4.234375 -2.234375 L 3.125 -4.875 L 2 -2.234375 Z M 4.234375 -2.234375 "/></g></g></g><g fill="#000000" fill-opacity="1"><g transform="translate(192.742758, 124.68421)"><g><path d="M 4.859375 -2.921875 L 5.734375 -2.921875 L 5.734375 -0.734375 C 5.421875 -0.492188 5.054688 -0.300781 4.640625 -0.15625 C 4.222656 -0.0195312 3.816406 0.046875 3.421875 0.046875 C 2.535156 0.046875 1.789062 -0.242188 1.1875 -0.828125 C 0.582031 -1.410156 0.28125 -2.125 0.28125 -2.96875 C 0.28125 -3.820312 0.585938 -4.535156 1.203125 -5.109375 C 1.816406 -5.679688 2.570312 -5.96875 3.46875 -5.96875 C 3.894531 -5.96875 4.3125 -5.894531 4.71875 -5.75 C 5.125 -5.601562 5.472656 -5.398438 5.765625 -5.140625 L 5.1875 -4.40625 C 4.707031 -4.851562 4.132812 -5.078125 3.46875 -5.078125 C 2.863281 -5.078125 2.351562 -4.875 1.9375 -4.46875 C 1.519531 -4.0625 1.3125 -3.5625 1.3125 -2.96875 C 1.3125 -2.375 1.519531 -1.875 1.9375 -1.46875 C 2.363281 -1.0625 2.878906 -0.859375 3.484375 -0.859375 C 3.941406 -0.859375 4.398438 -0.992188 4.859375 -1.265625 Z M 4.859375 -2.921875 "/></g></g></g><g fill="#000000" fill-opacity="1"><g transform="translate(200.581289, 124.68421)"><g><path d="M 5.03125 -5.046875 L 1.78125 -5.046875 L 1.78125 -3.4375 L 4.6875 -3.4375 L 4.6875 -2.546875 L 1.78125 -2.546875 L 1.78125 -0.90625 L 5.140625 -0.90625 L 5.140625 0 L 0.78125 0 L 0.78125 -5.953125 L 5.03125 -5.953125 Z M 5.03125 -5.046875 "/></g></g></g><g fill="#000000" fill-opacity="1"><g transform="translate(207.630018, 124.68421)"><g/></g></g><g fill="#000000" fill-opacity="1"><g transform="translate(211.29875, 124.68421)"><g><path d="M 4.625 -1.34375 L 1.625 -1.34375 L 1.046875 0 L 0.015625 0 L 2.640625 -5.953125 L 3.65625 -5.953125 L 6.265625 0 L 5.1875 0 Z M 4.234375 -2.234375 L 3.125 -4.875 L 2 -2.234375 Z M 4.234375 -2.234375 "/></g></g></g><g fill="#000000" fill-opacity="1"><g transform="translate(219.043861, 124.68421)"><g><path d="M 0.78125 -5.953125 L 3.15625 -5.953125 C 3.90625 -5.953125 4.484375 -5.773438 4.890625 -5.421875 C 5.304688 -5.066406 5.515625 -4.566406 5.515625 -3.921875 C 5.515625 -3.242188 5.304688 -2.71875 4.890625 -2.34375 C 4.484375 -1.976562 3.90625 -1.796875 3.15625 -1.796875 L 1.78125 -1.796875 L 1.78125 0 L 0.78125 0 Z M 1.78125 -5.046875 L 1.78125 -2.6875 L 3.109375 -2.6875 C 4.066406 -2.6875 4.546875 -3.085938 4.546875 -3.890625 C 4.546875 -4.660156 4.066406 -5.046875 3.109375 -5.046875 Z M 1.78125 -5.046875 "/></g></g></g><g fill="#000000" fill-opacity="1"><g transform="translate(226.236957, 124.68421)"><g><path d="M 0.78125 -5.953125 L 3.15625 -5.953125 C 3.90625 -5.953125 4.484375 -5.773438 4.890625 -5.421875 C 5.304688 -5.066406 5.515625 -4.566406 5.515625 -3.921875 C 5.515625 -3.242188 5.304688 -2.71875 4.890625 -2.34375 C 4.484375 -1.976562 3.90625 -1.796875 3.15625 -1.796875 L 1.78125 -1.796875 L 1.78125 0 L 0.78125 0 Z M 1.78125 -5.046875 L 1.78125 -2.6875 L 3.109375 -2.6875 C 4.066406 -2.6875 4.546875 -3.085938 4.546875 -3.890625 C 4.546875 -4.660156 4.066406 -5.046875 3.109375 -5.046875 Z M 1.78125 -5.046875 "/></g></g></g><g fill="#000000" fill-opacity="1"><g transform="translate(233.430053, 124.68421)"><g><path d="M 1.78125 -0.90625 L 4.359375 -0.90625 L 4.359375 0 L 0.78125 0 L 0.78125 -5.953125 L 1.78125 -5.953125 Z M 1.78125 -0.90625 "/></g></g></g><g fill="#000000" fill-opacity="1"><g transform="translate(239.442706, 124.68421)"><g><path d="M 1.78125 0 L 0.78125 0 L 0.78125 -5.953125 L 1.78125 -5.953125 Z M 1.78125 0 "/></g></g></g><g fill="#000000" fill-opacity="1"><g transform="translate(243.485103, 124.68421)"><g><path d="M 3.421875 -5.96875 C 3.835938 -5.96875 4.242188 -5.882812 4.640625 -5.71875 C 5.046875 -5.5625 5.390625 -5.34375 5.671875 -5.0625 L 5.09375 -4.328125 C 4.875 -4.554688 4.617188 -4.738281 4.328125 -4.875 C 4.035156 -5.007812 3.738281 -5.078125 3.4375 -5.078125 C 2.84375 -5.078125 2.335938 -4.875 1.921875 -4.46875 C 1.515625 -4.070312 1.3125 -3.578125 1.3125 -2.984375 C 1.3125 -2.398438 1.515625 -1.90625 1.921875 -1.5 C 2.335938 -1.09375 2.84375 -0.890625 3.4375 -0.890625 C 4.050781 -0.890625 4.601562 -1.125 5.09375 -1.59375 L 5.6875 -0.9375 C 5.382812 -0.632812 5.023438 -0.394531 4.609375 -0.21875 C 4.203125 -0.0390625 3.796875 0.046875 3.390625 0.046875 C 2.515625 0.046875 1.773438 -0.242188 1.171875 -0.828125 C 0.578125 -1.410156 0.28125 -2.128906 0.28125 -2.984375 C 0.28125 -3.828125 0.582031 -4.535156 1.1875 -5.109375 C 1.789062 -5.679688 2.535156 -5.96875 3.421875 -5.96875 Z M 3.421875 -5.96875 "/></g></g></g><g fill="#000000" fill-opacity="1"><g transform="translate(250.882023, 124.68421)"><g><path d="M 4.625 -1.34375 L 1.625 -1.34375 L 1.046875 0 L 0.015625 0 L 2.640625 -5.953125 L 3.65625 -5.953125 L 6.265625 0 L 5.1875 0 Z M 4.234375 -2.234375 L 3.125 -4.875 L 2 -2.234375 Z M 4.234375 -2.234375 "/></g></g></g><g fill="#000000" fill-opacity="1"><g transform="translate(258.627135, 124.68421)"><g><path d="M 4.84375 -5.046875 L 2.953125 -5.046875 L 2.953125 0 L 1.953125 0 L 1.953125 -5.046875 L 0.078125 -5.046875 L 0.078125 -5.953125 L 4.84375 -5.953125 Z M 4.84375 -5.046875 "/></g></g></g><g fill="#000000" fill-opacity="1"><g transform="translate(265.021941, 124.68421)"><g><path d="M 1.78125 0 L 0.78125 0 L 0.78125 -5.953125 L 1.78125 -5.953125 Z M 1.78125 0 "/></g></g></g><g fill="#000000" fill-opacity="1"><g transform="translate(269.064338, 124.68421)"><g><path d="M 1.1875 -5.109375 C 1.800781 -5.679688 2.550781 -5.96875 3.4375 -5.96875 C 4.332031 -5.96875 5.082031 -5.679688 5.6875 -5.109375 C 6.289062 -4.535156 6.59375 -3.820312 6.59375 -2.96875 C 6.59375 -2.125 6.289062 -1.410156 5.6875 -0.828125 C 5.082031 -0.242188 4.332031 0.046875 3.4375 0.046875 C 2.550781 0.046875 1.800781 -0.242188 1.1875 -0.828125 C 0.582031 -1.410156 0.28125 -2.125 0.28125 -2.96875 C 0.28125 -3.820312 0.582031 -4.535156 1.1875 -5.109375 Z M 3.453125 -5.078125 C 2.859375 -5.078125 2.351562 -4.875 1.9375 -4.46875 C 1.519531 -4.0625 1.3125 -3.5625 1.3125 -2.96875 C 1.3125 -2.382812 1.519531 -1.882812 1.9375 -1.46875 C 2.363281 -1.0625 2.867188 -0.859375 3.453125 -0.859375 C 4.035156 -0.859375 4.53125 -1.0625 4.9375 -1.46875 C 5.351562 -1.882812 5.5625 -2.382812 5.5625 -2.96875 C 5.5625 -3.5625 5.351562 -4.0625 4.9375 -4.46875 C 4.53125 -4.875 4.035156 -5.078125 3.453125 -5.078125 Z M 3.453125 -5.078125 "/></g></g></g><g fill="#000000" fill-opacity="1"><g transform="translate(277.420902, 124.68421)"><g><path d="M 5.9375 0 L 4.953125 0 L 1.78125 -4.265625 L 1.78125 0 L 0.78125 0 L 0.78125 -5.953125 L 1.765625 -5.953125 L 4.953125 -1.671875 L 4.953125 -5.953125 L 5.9375 -5.953125 Z M 5.9375 0 "/></g></g></g><g fill="#000000" fill-opacity="1"><g transform="translate(143.611153, 100.716909)"><g><path d="M 3.53125 0 C 2.425781 0 1.875 -0.550781 1.875 -1.65625 L 1.875 -15.53125 C 1.875 -16.632812 2.425781 -17.1875 3.53125 -17.1875 L 9.390625 -17.1875 C 11.191406 -17.1875 12.585938 -16.789062 13.578125 -16 C 14.566406 -15.207031 15.0625 -14.113281 15.0625 -12.71875 C 15.0625 -11.789062 14.828125 -10.992188 14.359375 -10.328125 C 13.890625 -9.660156 13.238281 -9.175781 12.40625 -8.875 C 13.382812 -8.59375 14.144531 -8.109375 14.6875 -7.421875 C 15.226562 -6.734375 15.5 -5.859375 15.5 -4.796875 C 15.5 -3.273438 14.984375 -2.09375 13.953125 -1.25 C 12.921875 -0.414062 11.488281 0 9.65625 0 Z M 4.875 -9.890625 L 8.84375 -9.890625 C 10.976562 -9.890625 12.046875 -10.710938 12.046875 -12.359375 C 12.046875 -13.992188 10.976562 -14.8125 8.84375 -14.8125 L 4.875 -14.8125 Z M 4.875 -2.359375 L 9.265625 -2.359375 C 11.410156 -2.359375 12.484375 -3.222656 12.484375 -4.953125 C 12.484375 -6.671875 11.410156 -7.53125 9.265625 -7.53125 L 4.875 -7.53125 Z M 4.875 -2.359375 "/></g></g></g><g fill="#000000" fill-opacity="1"><g transform="translate(161.17731, 100.716909)"><g><path d="M 3.4375 0.1875 C 2.394531 0.1875 1.875 -0.34375 1.875 -1.40625 L 1.875 -15.796875 C 1.875 -16.847656 2.394531 -17.375 3.4375 -17.375 C 4.476562 -17.375 5 -16.847656 5 -15.796875 L 5 -9.578125 L 5.046875 -9.578125 L 12.046875 -16.59375 C 12.304688 -16.851562 12.566406 -17.046875 12.828125 -17.171875 C 13.085938 -17.304688 13.378906 -17.375 13.703125 -17.375 C 14.171875 -17.375 14.503906 -17.25 14.703125 -17 C 14.910156 -16.757812 14.992188 -16.476562 14.953125 -16.15625 C 14.910156 -15.832031 14.753906 -15.535156 14.484375 -15.265625 L 8.0625 -8.921875 L 14.8125 -2.078125 C 15.15625 -1.742188 15.332031 -1.398438 15.34375 -1.046875 C 15.363281 -0.691406 15.253906 -0.394531 15.015625 -0.15625 C 14.785156 0.0703125 14.441406 0.1875 13.984375 0.1875 C 13.597656 0.1875 13.285156 0.109375 13.046875 -0.046875 C 12.816406 -0.210938 12.546875 -0.445312 12.234375 -0.75 L 5.046875 -7.953125 L 5 -7.953125 L 5 -1.40625 C 5 -0.34375 4.476562 0.1875 3.4375 0.1875 Z M 3.4375 0.1875 "/></g></g></g><g fill="#000000" fill-opacity="1"><g transform="translate(178.183107, 100.716909)"><g/></g></g><g fill="#000000" fill-opacity="1"><g transform="translate(185.589794, 100.716909)"><g><path d="M 3.53125 0 C 2.425781 0 1.875 -0.550781 1.875 -1.65625 L 1.875 -15.53125 C 1.875 -16.632812 2.425781 -17.1875 3.53125 -17.1875 L 12.234375 -17.1875 C 13.078125 -17.1875 13.5 -16.78125 13.5 -15.96875 C 13.5 -15.125 13.078125 -14.703125 12.234375 -14.703125 L 4.875 -14.703125 L 4.875 -9.96875 L 11.703125 -9.96875 C 12.546875 -9.96875 12.96875 -9.550781 12.96875 -8.71875 C 12.96875 -7.894531 12.546875 -7.484375 11.703125 -7.484375 L 4.875 -7.484375 L 4.875 -2.484375 L 12.234375 -2.484375 C 13.078125 -2.484375 13.5 -2.070312 13.5 -1.25 C 13.5 -0.414062 13.078125 0 12.234375 0 Z M 3.53125 0 "/></g></g></g><g fill="#000000" fill-opacity="1"><g transform="translate(200.938898, 100.716909)"><g><path d="M 3.34375 0.1875 C 2.363281 0.1875 1.875 -0.3125 1.875 -1.3125 L 1.875 -15.8125 C 1.875 -16.320312 2 -16.707031 2.25 -16.96875 C 2.5 -17.238281 2.828125 -17.375 3.234375 -17.375 C 3.609375 -17.375 3.890625 -17.304688 4.078125 -17.171875 C 4.265625 -17.035156 4.488281 -16.804688 4.75 -16.484375 L 13.453125 -5.1875 L 13.453125 -15.890625 C 13.453125 -16.878906 13.941406 -17.375 14.921875 -17.375 C 15.878906 -17.375 16.359375 -16.878906 16.359375 -15.890625 L 16.359375 -1.265625 C 16.359375 -0.804688 16.242188 -0.445312 16.015625 -0.1875 C 15.785156 0.0625 15.476562 0.1875 15.09375 0.1875 C 14.71875 0.1875 14.421875 0.113281 14.203125 -0.03125 C 13.984375 -0.175781 13.742188 -0.410156 13.484375 -0.734375 L 4.78125 -12.046875 L 4.78125 -1.3125 C 4.78125 -0.3125 4.300781 0.1875 3.34375 0.1875 Z M 3.34375 0.1875 "/></g></g></g><g fill="#000000" fill-opacity="1"><g transform="translate(219.96684, 100.716909)"><g><path d="M 10.140625 0.25 C 8.234375 0.25 6.625 -0.109375 5.3125 -0.828125 C 4.007812 -1.546875 3.015625 -2.5625 2.328125 -3.875 C 1.648438 -5.1875 1.3125 -6.75 1.3125 -8.5625 C 1.3125 -10.375 1.660156 -11.941406 2.359375 -13.265625 C 3.054688 -14.597656 4.0625 -15.625 5.375 -16.34375 C 6.695312 -17.0625 8.273438 -17.421875 10.109375 -17.421875 C 11.023438 -17.421875 11.941406 -17.3125 12.859375 -17.09375 C 13.773438 -16.875 14.640625 -16.503906 15.453125 -15.984375 C 15.804688 -15.773438 16.007812 -15.492188 16.0625 -15.140625 C 16.125 -14.796875 16.070312 -14.46875 15.90625 -14.15625 C 15.75 -13.851562 15.507812 -13.640625 15.1875 -13.515625 C 14.863281 -13.390625 14.503906 -13.441406 14.109375 -13.671875 C 13.492188 -14.023438 12.867188 -14.285156 12.234375 -14.453125 C 11.597656 -14.617188 10.890625 -14.703125 10.109375 -14.703125 C 8.296875 -14.703125 6.921875 -14.171875 5.984375 -13.109375 C 5.046875 -12.054688 4.578125 -10.539062 4.578125 -8.5625 C 4.578125 -6.5625 5.054688 -5.039062 6.015625 -4 C 6.972656 -2.957031 8.394531 -2.4375 10.28125 -2.4375 C 10.820312 -2.4375 11.367188 -2.476562 11.921875 -2.5625 C 12.484375 -2.65625 13.039062 -2.789062 13.59375 -2.96875 L 13.59375 -6.96875 L 10.921875 -6.96875 C 10.078125 -6.96875 9.65625 -7.359375 9.65625 -8.140625 C 9.65625 -8.898438 10.078125 -9.28125 10.921875 -9.28125 L 14.9375 -9.28125 C 15.78125 -9.28125 16.203125 -8.859375 16.203125 -8.015625 L 16.203125 -2.09375 C 16.203125 -1.34375 15.910156 -0.863281 15.328125 -0.65625 C 14.617188 -0.394531 13.800781 -0.175781 12.875 0 C 11.945312 0.164062 11.035156 0.25 10.140625 0.25 Z M 10.140625 0.25 "/></g></g></g><g fill="#000000" fill-opacity="1"><g transform="translate(238.702431, 100.716909)"><g><path d="M 3.46875 0 C 2.40625 0 1.875 -0.535156 1.875 -1.609375 L 1.875 -15.671875 C 1.875 -16.722656 2.394531 -17.25 3.4375 -17.25 C 4.476562 -17.25 5 -16.722656 5 -15.671875 L 5 -2.65625 L 12.0625 -2.65625 C 12.976562 -2.65625 13.4375 -2.21875 13.4375 -1.34375 C 13.4375 -0.445312 12.976562 0 12.0625 0 Z M 3.46875 0 "/></g></g></g><g fill="#000000" fill-opacity="1"><g transform="translate(253.198821, 100.716909)"><g><path d="M 3.4375 0.1875 C 2.394531 0.1875 1.875 -0.34375 1.875 -1.40625 L 1.875 -15.765625 C 1.875 -16.835938 2.394531 -17.375 3.4375 -17.375 C 4.476562 -17.375 5 -16.835938 5 -15.765625 L 5 -1.40625 C 5 -0.34375 4.476562 0.1875 3.4375 0.1875 Z M 3.4375 0.1875 "/></g></g></g><g fill="#000000" fill-opacity="1"><g transform="translate(260.873504, 100.716909)"><g><path d="M 7.796875 0.25 C 6.710938 0.25 5.65625 0.128906 4.625 -0.109375 C 3.59375 -0.359375 2.691406 -0.726562 1.921875 -1.21875 C 1.546875 -1.457031 1.316406 -1.753906 1.234375 -2.109375 C 1.160156 -2.472656 1.191406 -2.8125 1.328125 -3.125 C 1.460938 -3.445312 1.679688 -3.664062 1.984375 -3.78125 C 2.285156 -3.90625 2.628906 -3.847656 3.015625 -3.609375 C 3.734375 -3.179688 4.488281 -2.867188 5.28125 -2.671875 C 6.082031 -2.484375 6.921875 -2.390625 7.796875 -2.390625 C 9.078125 -2.390625 10.007812 -2.601562 10.59375 -3.03125 C 11.1875 -3.46875 11.484375 -4.023438 11.484375 -4.703125 C 11.484375 -5.273438 11.273438 -5.722656 10.859375 -6.046875 C 10.441406 -6.367188 9.726562 -6.632812 8.71875 -6.84375 L 6.046875 -7.40625 C 2.992188 -8.0625 1.46875 -9.628906 1.46875 -12.109375 C 1.46875 -13.179688 1.75 -14.113281 2.3125 -14.90625 C 2.882812 -15.707031 3.671875 -16.328125 4.671875 -16.765625 C 5.679688 -17.203125 6.847656 -17.421875 8.171875 -17.421875 C 9.140625 -17.421875 10.0625 -17.300781 10.9375 -17.0625 C 11.820312 -16.820312 12.613281 -16.460938 13.3125 -15.984375 C 13.632812 -15.765625 13.828125 -15.488281 13.890625 -15.15625 C 13.953125 -14.820312 13.910156 -14.507812 13.765625 -14.21875 C 13.617188 -13.9375 13.390625 -13.742188 13.078125 -13.640625 C 12.765625 -13.535156 12.394531 -13.601562 11.96875 -13.84375 C 11.363281 -14.1875 10.753906 -14.429688 10.140625 -14.578125 C 9.523438 -14.722656 8.859375 -14.796875 8.140625 -14.796875 C 7.015625 -14.796875 6.132812 -14.554688 5.5 -14.078125 C 4.875 -13.609375 4.5625 -12.992188 4.5625 -12.234375 C 4.5625 -11.648438 4.753906 -11.179688 5.140625 -10.828125 C 5.535156 -10.484375 6.203125 -10.210938 7.140625 -10.015625 L 9.796875 -9.453125 C 11.410156 -9.117188 12.609375 -8.582031 13.390625 -7.84375 C 14.179688 -7.113281 14.578125 -6.140625 14.578125 -4.921875 C 14.578125 -3.898438 14.300781 -3 13.75 -2.21875 C 13.195312 -1.4375 12.410156 -0.828125 11.390625 -0.390625 C 10.378906 0.0351562 9.179688 0.25 7.796875 0.25 Z M 7.796875 0.25 "/></g></g></g><g fill="#000000" fill-opacity="1"><g transform="translate(277.050951, 100.716909)"><g><path d="M 3.4375 0.1875 C 2.394531 0.1875 1.875 -0.34375 1.875 -1.40625 L 1.875 -15.765625 C 1.875 -16.835938 2.394531 -17.375 3.4375 -17.375 C 4.476562 -17.375 5 -16.835938 5 -15.765625 L 5 -10.015625 L 13.84375 -10.015625 L 13.84375 -15.765625 C 13.84375 -16.835938 14.363281 -17.375 15.40625 -17.375 C 16.445312 -17.375 16.96875 -16.835938 16.96875 -15.765625 L 16.96875 -1.40625 C 16.96875 -0.34375 16.445312 0.1875 15.40625 0.1875 C 14.363281 0.1875 13.84375 -0.34375 13.84375 -1.40625 L 13.84375 -7.40625 L 5 -7.40625 L 5 -1.40625 C 5 -0.34375 4.476562 0.1875 3.4375 0.1875 Z M 3.4375 0.1875 "/></g></g></g></svg>