<?xml version="1.0" encoding="UTF-8" standalone="no"?>
<!-- Created with Inkscape (http://www.inkscape.org/) -->

<svg
   version="1.1"
   id="svg567"
   xml:space="preserve"
   width="682.66669"
   height="682.66669"
   viewBox="0 0 682.66669 682.66669"
   xmlns="http://www.w3.org/2000/svg"
   xmlns:svg="http://www.w3.org/2000/svg"><defs
     id="defs571"><clipPath
       clipPathUnits="userSpaceOnUse"
       id="clipPath581"><path
         d="M 0,512 H 512 V 0 H 0 Z"
         id="path579" /></clipPath></defs><g
     id="g573"
     transform="matrix(1.3333333,0,0,-1.3333333,0,682.66667)"><g
       id="g575"><g
         id="g577"
         clip-path="url(#clipPath581)"><g
           id="g583"
           transform="translate(253,502)"><path
             d="m 0,0 h 209 c 22.091,0 40,-17.909 40,-40 v -412 c 0,-22.091 -17.909,-40 -40,-40 H 0"
             style="fill:none;stroke:#000000;stroke-width:20;stroke-linecap:round;stroke-linejoin:round;stroke-miterlimit:10;stroke-dasharray:none;stroke-opacity:1"
             id="path585" /></g><g
           id="g587"
           transform="translate(58,448.0003)"><path
             d="m 0,0 v 14 c 0,22.091 17.909,40 40,40 h 310 c 22.091,0 40,-17.909 40,-40 v -161"
             style="fill:none;stroke:#000000;stroke-width:20;stroke-linecap:round;stroke-linejoin:round;stroke-miterlimit:10;stroke-dasharray:none;stroke-opacity:1"
             id="path589" /></g><g
           id="g591"
           transform="translate(58,280)"><path
             d="M 0,0 V 120"
             style="fill:none;stroke:#000000;stroke-width:20;stroke-linecap:round;stroke-linejoin:round;stroke-miterlimit:10;stroke-dasharray:none;stroke-opacity:1"
             id="path593" /></g><g
           id="g595"
           transform="translate(58,112)"><path
             d="M 0,0 V 120"
             style="fill:none;stroke:#000000;stroke-width:20;stroke-linecap:round;stroke-linejoin:round;stroke-miterlimit:10;stroke-dasharray:none;stroke-opacity:1"
             id="path597" /></g><g
           id="g599"
           transform="translate(448,211.0001)"><path
             d="m 0,0 v -161 c 0,-22.092 -17.909,-40 -40,-40 h -310 c -22.091,0 -40,17.908 -40,40 v 14"
             style="fill:none;stroke:#000000;stroke-width:20;stroke-linecap:round;stroke-linejoin:round;stroke-miterlimit:10;stroke-dasharray:none;stroke-opacity:1"
             id="path601" /></g><g
           id="g603"
           transform="translate(82,400)"><path
             d="m 0,0 h -48 c -13.255,0 -24,10.745 -24,24 0,13.255 10.745,24 24,24 H 0 C 13.255,48 24,37.255 24,24 24,10.745 13.255,0 0,0 Z"
             style="fill:none;stroke:#000000;stroke-width:20;stroke-linecap:round;stroke-linejoin:round;stroke-miterlimit:10;stroke-dasharray:none;stroke-opacity:1"
             id="path605" /></g><g
           id="g607"
           transform="translate(82,232)"><path
             d="m 0,0 h -48 c -13.255,0 -24,10.745 -24,24 0,13.255 10.745,24 24,24 H 0 C 13.255,48 24,37.255 24,24 24,10.745 13.255,0 0,0 Z"
             style="fill:none;stroke:#000000;stroke-width:20;stroke-linecap:round;stroke-linejoin:round;stroke-miterlimit:10;stroke-dasharray:none;stroke-opacity:1"
             id="path609" /></g><g
           id="g611"
           transform="translate(82,64)"><path
             d="m 0,0 h -48 c -13.255,0 -24,10.745 -24,24 0,13.255 10.745,24 24,24 H 0 C 13.255,48 24,37.255 24,24 24,10.745 13.255,0 0,0 Z"
             style="fill:none;stroke:#000000;stroke-width:20;stroke-linecap:round;stroke-linejoin:round;stroke-miterlimit:10;stroke-dasharray:none;stroke-opacity:1"
             id="path613" /></g><g
           id="g615"
           transform="translate(253.0001,261.897)"><path
             d="m 0,0 v 0 c -59.647,0 -108,-48.353 -108,-108 v -0.014 H 108 V -108 C 108,-48.353 59.647,0 0,0 Z"
             style="fill:none;stroke:#000000;stroke-width:20;stroke-linecap:round;stroke-linejoin:round;stroke-miterlimit:10;stroke-dasharray:none;stroke-opacity:1"
             id="path617" /></g><g
           id="g619"
           transform="translate(253,261.7581)"><path
             d="M 0,0 V -46.411"
             style="fill:none;stroke:#000000;stroke-width:20;stroke-linecap:round;stroke-linejoin:round;stroke-miterlimit:10;stroke-dasharray:none;stroke-opacity:1"
             id="path621" /></g><g
           id="g623"
           transform="translate(253,358.1166)"><path
             d="m 0,0 v 0 c -22.091,0 -40,-17.909 -40,-40 v -16.22 c 0,-22.091 17.909,-40 40,-40 22.091,0 40,17.909 40,40 V -40 C 40,-17.909 22.091,0 0,0 Z"
             style="fill:none;stroke:#000000;stroke-width:20;stroke-linecap:round;stroke-linejoin:round;stroke-miterlimit:10;stroke-dasharray:none;stroke-opacity:1"
             id="path625" /></g><g
           id="g627"
           transform="translate(188.127,97.8834)"><path
             d="M 0,0 H 129.746"
             style="fill:none;stroke:#000000;stroke-width:20;stroke-linecap:round;stroke-linejoin:round;stroke-miterlimit:10;stroke-dasharray:none;stroke-opacity:1"
             id="path629" /></g><g
           id="g631"
           transform="translate(448,256)"><path
             d="M 0,0 V 0"
             style="fill:none;stroke:#000000;stroke-width:20;stroke-linecap:round;stroke-linejoin:round;stroke-miterlimit:10;stroke-dasharray:none;stroke-opacity:1"
             id="path633" /></g></g></g></g></svg>
