<svg xmlns="http://www.w3.org/2000/svg" width="9.912" height="9.913" viewBox="0 0 9.912 9.913">
  <g id="arrow-up-short" transform="translate(20.035 -10.123) rotate(90)">
    <path id="Path_17074" data-name="Path 17074" d="M17.583,12.375a.708.708,0,0,1,.708.708v7.079a.708.708,0,0,1-1.416,0V13.083A.708.708,0,0,1,17.583,12.375Z" transform="translate(-2.503 -0.835)" fill="#ff7519" fill-rule="evenodd"/>
    <path id="Path_17075" data-name="Path 17075" d="M14.578,10.331a.708.708,0,0,1,1,0l4.247,4.247a.709.709,0,1,1-1,1L15.08,11.834l-3.747,3.747a.709.709,0,1,1-1-1l4.247-4.247Z" fill="#ff7519" fill-rule="evenodd"/>
  </g>
</svg>
