<svg xmlns="http://www.w3.org/2000/svg" width="20.43" height="21.165" viewBox="0 0 20.43 21.165">
  <g id="ic_nen_va_khong_nen" transform="translate(0 0)">
    <path id="Path_16056" data-name="Path 16056" d="M-475.2-73.791c-.031.014-.075,0-.147-.049a4.7,4.7,0,0,0-3.082-.818.3.3,0,0,1-.165-.02c-.055-.029-.066-.1-.066-.206.007-2.156-.019-4.311.015-6.465a1.408,1.408,0,0,0-1.544-1.522c-.292.017-.585,0-.876.005-.143.005-.186-.041-.184-.182.007-.576.005-1.152,0-1.728a1.134,1.134,0,0,0-1.263-1.272q-3.61,0-7.219,0a1.134,1.134,0,0,0-1.258,1.253c0,.551-.015,1.1.007,1.653.009.242-.075.29-.292.278-.308-.017-.619-.01-.927,0a1.319,1.319,0,0,0-1.374,1.376q-.01,4.661,0,9.322a1.308,1.308,0,0,0,1.391,1.376q4.526,0,9.048-.005c.167,0,.235.02.244.126a.684.684,0,0,1-.009.147,4.8,4.8,0,0,0,0,1.546l.014.082c.01.056.022.111.034.165a4.962,4.962,0,0,0,.661,1.582l.087.138,0,0a4.9,4.9,0,0,0,4.045,2.127,4.911,4.911,0,0,0,4.907-4.732v-.358A4.9,4.9,0,0,0-475.2-73.791Zm-14.789-9.322c.014-.559.012-1.118,0-1.677,0-.193.058-.262.257-.261q3.618.008,7.238,0c.187,0,.249.061.247.244-.009.568-.015,1.137,0,1.7.007.216-.078.239-.259.237-1.2-.005-2.4,0-3.605,0s-2.421,0-3.632.005C-489.937-82.865-490-82.914-489.991-83.114Zm7.56,11.126a.42.42,0,0,1-.078.113.316.316,0,0,1-.245.082q-4.684-.01-9.37-.005c-.358,0-.447-.085-.448-.44v-9.169c0-.366.1-.46.46-.46q2.994,0,5.988,0h5.939c.448,0,.525.077.525.522q0,3.344,0,6.689a.321.321,0,0,1-.068.239.4.4,0,0,1-.142.089A4.783,4.783,0,0,0-482.431-71.988Zm4.369,6.1a3.9,3.9,0,0,1-3.9-3.9,3.891,3.891,0,0,1,3.895-3.878,3.882,3.882,0,0,1,3.886,3.885A3.894,3.894,0,0,1-478.063-65.891Z" transform="translate(493.579 86.052)" fill="#010101"/>
    <path id="Path_16057" data-name="Path 16057" d="M-486.541-83.6h5.939c.448,0,.525.077.525.522q0,3.344,0,6.689a.289.289,0,0,1-.21.327,4.783,4.783,0,0,0-2.564,2.342.3.3,0,0,1-.322.193q-4.687-.008-9.372,0c-.36,0-.448-.085-.448-.44v-9.169c0-.366.1-.46.46-.46Q-489.535-83.6-486.541-83.6Zm3.452,5.061c0-.375,0-.752,0-1.127a.5.5,0,0,0-.545-.542c-.334-.005-.668-.01-1,0-.186.007-.268-.029-.254-.24.02-.324.008-.651.005-.977-.005-.4-.182-.585-.578-.586q-1.066-.005-2.129,0a.513.513,0,0,0-.586.583c-.005.341-.009.684,0,1.026.005.157-.046.2-.2.193-.351-.01-.7-.007-1.052,0a.489.489,0,0,0-.546.54q-.008,1.1,0,2.2a.5.5,0,0,0,.563.554c.351.005.7.007,1.052,0,.145-.005.184.044.181.184-.01.351-.009.7,0,1.052a.5.5,0,0,0,.557.561q1.089.01,2.178,0a.5.5,0,0,0,.554-.561c.005-.351.009-.7,0-1.052,0-.141.039-.189.182-.184.36.009.718.009,1.077,0a.5.5,0,0,0,.54-.551C-483.085-77.818-483.089-78.176-483.089-78.536Z" transform="translate(493.994 87.781)" fill="#ffebd8"/>
    <path id="Path_16058" data-name="Path 16058" d="M-478.984-74.9a3.9,3.9,0,0,1-3.88,3.9,3.9,3.9,0,0,1-3.9-3.9,3.891,3.891,0,0,1,3.895-3.878A3.881,3.881,0,0,1-478.984-74.9Zm-5.72-.263a.457.457,0,0,0-.384.29.483.483,0,0,0,.109.573c.31.314.624.626.938.937.329.324.578.327.9,0q1.153-1.181,2.3-2.366a1.055,1.055,0,0,0,.181-.237.453.453,0,0,0-.09-.552.47.47,0,0,0-.573-.1.825.825,0,0,0-.249.2c-.629.646-1.261,1.289-1.883,1.94-.114.121-.179.121-.288,0-.162-.179-.341-.343-.513-.513A.559.559,0,0,0-484.7-75.167Z" transform="translate(498.379 91.169)" fill="#c5e9bb"/>
    <path id="Path_16059" data-name="Path 16059" d="M-484.334-79.193c0,.36,0,.718,0,1.077a.5.5,0,0,1-.54.551c-.36.009-.718.009-1.077,0-.143-.005-.186.043-.182.184.01.349.007.7,0,1.052a.5.5,0,0,1-.554.561q-1.089.01-2.178,0a.5.5,0,0,1-.557-.561c-.007-.351-.008-.7,0-1.052,0-.14-.036-.189-.181-.184-.351.009-.7.007-1.052,0a.5.5,0,0,1-.563-.554q-.008-1.1,0-2.2a.489.489,0,0,1,.546-.54c.351-.005.7-.009,1.052,0,.152.005.2-.036.2-.193-.012-.343-.009-.685,0-1.026a.513.513,0,0,1,.586-.583q1.064-.005,2.129,0c.4,0,.573.186.578.586,0,.326.015.653-.005.977-.014.211.068.247.254.24.334-.014.668-.009,1,0a.5.5,0,0,1,.545.542C-484.331-79.945-484.334-79.568-484.334-79.193Zm-5.19.627c.2,0,.356,0,.515,0,.4.005.58.181.586.581q.01.514,0,1.028c0,.141.044.189.186.186.3-.009.6-.014.9,0,.176.007.208-.063.2-.216-.009-.326-.005-.653,0-.978,0-.416.182-.6.593-.6.334,0,.668-.01,1,0,.17.007.213-.055.206-.215-.012-.291-.017-.585,0-.876.012-.188-.061-.218-.227-.213-.326.012-.653.005-.978,0-.406,0-.593-.193-.6-.6,0-.343-.005-.685,0-1.028,0-.128-.031-.176-.165-.17-.317.009-.636.01-.953,0-.155-.005-.176.063-.172.193q.01.514,0,1.028a.518.518,0,0,1-.588.583c-.218,0-.435,0-.653,0-.552,0-.558,0-.549.559,0,.239-.107.545.049.7S-489.719-78.581-489.525-78.566Z" transform="translate(495.24 88.438)" fill="#030303"/>
    <path id="Path_16060" data-name="Path 16060" d="M-485.377-76.039a.559.559,0,0,1,.448.174c.172.17.351.334.513.513.109.121.174.121.288,0,.622-.651,1.255-1.294,1.883-1.94a.825.825,0,0,1,.249-.2.47.47,0,0,1,.573.1.453.453,0,0,1,.09.552,1.053,1.053,0,0,1-.181.237q-1.151,1.184-2.3,2.366c-.319.326-.568.322-.9,0q-.471-.468-.938-.937a.483.483,0,0,1-.109-.573A.457.457,0,0,1-485.377-76.039Z" transform="translate(499.052 92.041)" fill="#030403"/>
    <path id="Path_16061" data-name="Path 16061" d="M-489.927-78.979c-.194-.015-.5.1-.639-.039s-.046-.459-.049-.7c-.009-.559,0-.559.549-.559.218,0,.435,0,.653,0a.518.518,0,0,0,.588-.583q.01-.514,0-1.028c0-.13.017-.2.172-.193.317.012.636.01.953,0,.135-.005.169.043.165.17-.007.343-.005.685,0,1.028,0,.411.191.6.6.6.326,0,.653.009.978,0,.165-.005.239.026.227.213-.017.291-.012.585,0,.876.007.16-.036.222-.206.215-.334-.014-.668-.007-1,0-.411,0-.59.186-.593.6,0,.326-.007.653,0,.978.005.153-.027.223-.2.216-.3-.015-.6-.01-.9,0-.141,0-.189-.044-.186-.186q.01-.514,0-1.028c-.007-.4-.186-.576-.586-.581C-489.571-78.981-489.729-78.979-489.927-78.979Z" transform="translate(495.642 88.851)" fill="#ff5151"/>
    <path id="Path_16062" data-name="Path 16062" d="M-477.533-74.486c0,.06,0,.119,0,.179a4.911,4.911,0,0,1-4.907,4.732,4.9,4.9,0,0,1-4.045-2.127l0,0a4.868,4.868,0,0,1-.748-1.72c-.012-.055-.024-.109-.034-.165l-.014-.082a4.921,4.921,0,0,1-.068-.815,4.956,4.956,0,0,1,.078-.878,4.9,4.9,0,0,1,.382-1.2,4.932,4.932,0,0,1,2.784-2.543,4.849,4.849,0,0,1,1.13-.261,5.048,5.048,0,0,1,.537-.029,4.88,4.88,0,0,1,2.857.917,4.9,4.9,0,0,1,2.051,3.815C-477.535-74.605-477.533-74.546-477.533-74.486Z" transform="translate(497.963 90.74)" fill="none"/>
  </g>
</svg>
