<svg xmlns="http://www.w3.org/2000/svg" width="47.913" height="43.03" viewBox="0 0 47.913 43.03">
  <g id="Group_48" data-name="Group 48" transform="translate(0.5 1.5)">
    <path id="Path_15908" data-name="Path 15908" d="M460.6,667.341q3.435-1.176,6.854-2.346c.522-.178,1.042-.361,1.572-.514a3.459,3.459,0,0,1,4.5,1.981,3.419,3.419,0,0,1-1.976,4.5c-3.107,1.426-6.246,2.782-9.374,4.163-2.523,1.114-5.044,2.23-7.573,3.327a11.729,11.729,0,0,1-11.109-.648c-2.046-1.183-4.142-2.28-6.234-3.379a1.465,1.465,0,0,0-2,.488,3.228,3.228,0,0,1-2.011.908c-1.647.13-3.312.016-4.968.052-.981.022-1.415-.389-1.412-1.369q.017-7.705,0-15.411c0-1.048.42-1.5,1.491-1.469,1.6.049,3.207-.056,4.8.049a2.745,2.745,0,0,1,1.906.741c.732,1.086,1.681,1.068,2.739,1.045a17.871,17.871,0,0,1,3.473.03,15.635,15.635,0,0,1,5.149,1.405,14.9,14.9,0,0,0,8.74,2.312C459.014,662.982,459.6,663.581,460.6,667.341Zm-24.591-6.061c0,3.552-.014,6.911.023,10.27,0,.3.3.83.521.865,3.3.524,5.694,2.832,8.534,4.251a8.834,8.834,0,0,0,7.523.618c6.105-2.537,12.136-5.254,18.191-7.912a1.659,1.659,0,0,0,1.031-2.292,1.642,1.642,0,0,0-2.325-.908c-1.666.578-3.38,1.038-5,1.724a30.379,30.379,0,0,1-14.822,2.492c-.712-.065-1.448.053-2.144-.072-.337-.06-.609-.486-.911-.747a4.1,4.1,0,0,1,.932-.91,2.816,2.816,0,0,1,1.143-.041c2.65,0,5.3.011,7.949-.016a1.854,1.854,0,1,0,.042-3.707,27.151,27.151,0,0,0-3.31,0,8.183,8.183,0,0,1-6.067-1.614C443.96,660.609,440.067,661.234,436.009,661.281Zm-7.222,12.872a31.217,31.217,0,0,0,4.2-.066,1.875,1.875,0,0,0,1.176-1.374q.147-5.964.007-11.933a1.875,1.875,0,0,0-1.183-1.372,31.116,31.116,0,0,0-4.2-.066Z" transform="translate(-426.861 -638.514)" fill="#ff7519"/>
    <path id="Path_15908_-_Outline" data-name="Path 15908 - Outline" d="M428.245,657.119l.122,0c.3.009.631.014,1.01.014.334,0,.675,0,1-.007s.675-.007,1.013-.007c.715,0,1.268.015,1.792.05a3.312,3.312,0,0,1,2.288.96,1.911,1.911,0,0,0,1.891.831c.139,0,.284,0,.423-.006.294-.006.6-.021.893-.035.4-.019.822-.039,1.236-.039a8.076,8.076,0,0,1,1.442.112c.249.045.508.088.759.13a13.255,13.255,0,0,1,4.557,1.336,14.618,14.618,0,0,0,7.636,2.267c.27,0,.546-.008.821-.024.48-.028.886-.041,1.239-.041a4.017,4.017,0,0,1,3.189,1,7.047,7.047,0,0,1,1.381,3.035l1.172-.4q2.592-.888,5.177-1.771l.22-.075c.447-.153.908-.312,1.375-.446a5.236,5.236,0,0,1,1.445-.212,3.761,3.761,0,0,1,3.658,2.5,3.917,3.917,0,0,1-.018,2.976,4.263,4.263,0,0,1-2.218,2.149c-2.3,1.056-4.657,2.09-6.935,3.09q-1.223.537-2.445,1.075l-1.046.462c-2.138.944-4.349,1.921-6.53,2.866a13.034,13.034,0,0,1-5.189,1.137,12.644,12.644,0,0,1-6.369-1.811c-1.964-1.136-4.013-2.212-5.994-3.253l-.222-.117a1.155,1.155,0,0,0-.528-.157c-.169,0-.443.055-.865.534a3.721,3.721,0,0,1-2.347,1.076c-.568.045-1.192.066-1.965.066-.385,0-.776,0-1.153-.01s-.762-.01-1.141-.01c-.269,0-.51,0-.737.007a1.667,1.667,0,0,1-1.923-1.87c.013-6.041.013-10.937,0-15.408a2.009,2.009,0,0,1,.489-1.5A1.871,1.871,0,0,1,428.245,657.119Zm1.132,1.016c-.389,0-.73,0-1.041-.014h-.091a.978.978,0,0,0-.687.183,1.134,1.134,0,0,0-.2.786c.015,4.472.016,9.37,0,15.414a.993.993,0,0,0,.179.694.943.943,0,0,0,.661.175h.061c.235-.005.483-.008.759-.008.386,0,.776,0,1.154.01s.762.01,1.141.01c.745,0,1.344-.02,1.886-.063a2.718,2.718,0,0,0,1.676-.741,2.162,2.162,0,0,1,1.615-.872,2.115,2.115,0,0,1,.994.272l.222.117c1.99,1.045,4.047,2.126,6.029,3.272a11.66,11.66,0,0,0,5.868,1.677,12.043,12.043,0,0,0,4.791-1.055c2.179-.944,4.388-1.92,6.524-2.863l1.046-.462q1.223-.54,2.447-1.076c2.274-1,4.626-2.031,6.92-3.084a2.914,2.914,0,0,0,1.717-3.866,2.76,2.76,0,0,0-2.721-1.849,4.24,4.24,0,0,0-1.169.173c-.443.127-.892.282-1.327.431l-.221.076q-2.587.883-5.177,1.771l-2.185.748-.138-.519c-.877-3.309-1.367-3.807-3.744-3.807-.334,0-.721.013-1.182.039-.294.017-.589.025-.878.025a15.574,15.574,0,0,1-8.144-2.405,12.544,12.544,0,0,0-4.215-1.212c-.253-.043-.514-.087-.768-.132a7.117,7.117,0,0,0-1.266-.1c-.39,0-.8.019-1.188.038-.3.014-.613.029-.92.036-.145,0-.295.006-.445.006a2.894,2.894,0,0,1-2.72-1.272,2.384,2.384,0,0,0-1.525-.521c-.5-.033-1.034-.048-1.726-.048-.333,0-.674,0-1,.007S429.716,658.135,429.378,658.135Zm1.827.669a13.291,13.291,0,0,1,1.852.109,2.325,2.325,0,0,1,1.614,1.856c.094,3.956.091,7.979-.007,11.957a2.325,2.325,0,0,1-1.607,1.857,13.338,13.338,0,0,1-1.852.109c-.392,0-.795-.01-1.185-.019s-.817-.019-1.233-.019h-.5V658.842h.5c.416,0,.831-.01,1.232-.02S430.812,658.8,431.2,658.8Zm0,14.888a12.379,12.379,0,0,0,1.714-.1,1.6,1.6,0,0,0,.745-.891c.1-3.962.1-7.969.007-11.909a1.587,1.587,0,0,0-.753-.889,12.335,12.335,0,0,0-1.714-.1c-.38,0-.759.009-1.161.019-.248.006-.5.012-.756.016v13.819c.256,0,.509.01.757.016C430.445,673.682,430.825,673.691,431.2,673.691Zm8.8-13.006c2.519,0,5.187.268,7.625,2.212a7.278,7.278,0,0,0,4.725,1.552c.318,0,.65-.015.986-.045.426-.038.888-.056,1.411-.056s1.079.019,1.6.038l.356.012a2.5,2.5,0,0,1,1.724.67,2.315,2.315,0,0,1,.642,1.707,2.252,2.252,0,0,1-2.42,2.329c-1.439.015-2.85.017-4.041.017l-2.964,0h-.947c-.136,0-.269-.011-.4-.022s-.22-.018-.315-.018a.51.51,0,0,0-.212.029,1.761,1.761,0,0,0-.469.441,1.242,1.242,0,0,0,.315.275,4.324,4.324,0,0,0,.746.053c.123,0,.245,0,.375,0s.262,0,.395,0c.227,0,.413.007.586.023.849.077,1.709.117,2.556.117a30.366,30.366,0,0,0,12.026-2.571c1.087-.461,2.225-.824,3.325-1.176.562-.18,1.143-.365,1.706-.561a3.13,3.13,0,0,1,1.02-.188,2.013,2.013,0,0,1,1.933,1.382A2.152,2.152,0,0,1,471,669.831c-1.5.656-3.014,1.327-4.483,1.976-4.481,1.98-9.115,4.027-13.717,5.94a8.09,8.09,0,0,1-3.121.622,10.823,10.823,0,0,1-4.818-1.255,31.234,31.234,0,0,1-2.774-1.634,14.855,14.855,0,0,0-5.615-2.57c-.576-.091-.938-.928-.943-1.354-.029-2.636-.027-5.241-.025-8q0-1.127,0-2.277v-.494l.494-.006c.607-.007,1.221-.027,1.814-.047C438.538,660.71,439.283,660.685,440.007,660.685Zm12.35,4.763a8.349,8.349,0,0,1-5.348-1.77,10.563,10.563,0,0,0-7-1.993c-.707,0-1.412.023-2.157.048-.439.015-.889.03-1.342.039q0,.9,0,1.786c0,2.755,0,5.357.025,7.987a.922.922,0,0,0,.181.39,16.009,16.009,0,0,1,5.913,2.7,30.474,30.474,0,0,0,2.684,1.583,9.84,9.84,0,0,0,4.37,1.149,7.1,7.1,0,0,0,2.737-.546c4.592-1.909,9.221-3.953,13.7-5.931,1.47-.649,2.989-1.321,4.486-1.977a1.165,1.165,0,0,0,.768-1.648,1.02,1.02,0,0,0-1-.754,2.141,2.141,0,0,0-.692.133c-.575.2-1.162.387-1.729.568-1.078.345-2.194.7-3.239,1.144a31.344,31.344,0,0,1-12.416,2.65c-.877,0-1.768-.041-2.647-.121-.143-.013-.3-.019-.5-.019-.124,0-.252,0-.376,0s-.261,0-.393,0a5.261,5.261,0,0,1-.922-.068,1.723,1.723,0,0,1-.911-.621c-.084-.09-.164-.175-.238-.239l-.4-.347.371-.38c.08-.082.16-.177.245-.277a2.678,2.678,0,0,1,.824-.732,1.436,1.436,0,0,1,.654-.132c.136,0,.269.011.4.022.113.009.219.018.313.018q1.215,0,2.431,0h1.482c1.189,0,2.6,0,4.031-.017a1.355,1.355,0,1,0,.031-2.707l-.358-.013c-.516-.018-1.049-.037-1.568-.037-.494,0-.926.017-1.323.052C453.066,665.432,452.7,665.448,452.357,665.448Z" transform="translate(-426.861 -638.514)" fill="#ff7519"/>
    <path id="Path_15921" data-name="Path 15921" d="M-400.116,305.183a6.065,6.065,0,0,1-2.4-.524,7.529,7.529,0,0,1-3.079-2.367,8.383,8.383,0,0,1-1.5-3.49c-.006-.03-.012-.06-.018-.089a3.017,3.017,0,0,1-.059-1.171l0-.025a.513.513,0,0,0,0-.2l-.035-.171.006-.174a7.993,7.993,0,0,1,.686-2.762,37.709,37.709,0,0,1,4.149-7.264l.072-.1a7.921,7.921,0,0,1,.523-.7,2.512,2.512,0,0,1,1.9-.885,2.348,2.348,0,0,1,1.927.992,33.122,33.122,0,0,1,4.986,8.887,7.808,7.808,0,0,1-.484,5.956,7.457,7.457,0,0,1-4.383,3.772,4.481,4.481,0,0,1-1.389.264h-.118A5.293,5.293,0,0,1-400.116,305.183Zm-4.086-7.211c.006.036.017.088.026.129s.017.083.025.124a4.614,4.614,0,0,0,2.822,3.678,3.054,3.054,0,0,0,1.213.28c.056,0,.111,0,.167-.006a1.708,1.708,0,0,1,.548-.089,1.78,1.78,0,0,1,.292.024c.109-.023.257-.07.382-.109a4.479,4.479,0,0,0,2.62-2.278,4.79,4.79,0,0,0,.305-3.652,28.455,28.455,0,0,0-4.1-7.41,34.161,34.161,0,0,0-3.826,6.666,5.8,5.8,0,0,0-.463,1.608A3.52,3.52,0,0,1-404.2,297.973Z" transform="translate(425.521 -286.755)" fill="#ff7519"/>
  </g>
</svg>
