<svg xmlns="http://www.w3.org/2000/svg" width="19.118" height="22.72" viewBox="0 0 19.118 22.72">
  <g id="ic_ynghia_hien_mau" transform="translate(-23.693 -10.637)">
    <path id="Path_16055" data-name="Path 16055" d="M0,0H10.067L13.2,2.857l2.994,3.71v12.48H0Z" transform="translate(26.534 11.429)" fill="#ffebd8"/>
    <path id="file" d="M15.08,1.125H3.375v19.6H20.69V6.735Zm4.3,6.151v.056h-4.9v-4.9h.056ZM4.682,19.42V2.432h8.494V8.639h6.207V19.42Z" transform="translate(22.12 9.512)"/>
    <path id="Path_16054" data-name="Path 16054" d="M-400.426,301.212a3.68,3.68,0,0,1-2.04-.306,5.248,5.248,0,0,1-3.169-4.082,1.7,1.7,0,0,1-.06-.616,1.72,1.72,0,0,0,0-.664,5.652,5.652,0,0,1,.495-1.927,30.835,30.835,0,0,1,3.417-5.969,6.958,6.958,0,0,1,.427-.583.791.791,0,0,1,1.259,0A27.319,27.319,0,0,1-396,294.332a5.344,5.344,0,0,1-3.336,6.7,2.563,2.563,0,0,1-.832.165A.231.231,0,0,0-400.426,301.212Z" transform="translate(429.896 -268.393)" fill="#ff5151" stroke="#000" stroke-width="1"/>
  </g>
</svg>
