<svg xmlns="http://www.w3.org/2000/svg" width="40" height="40" viewBox="0 0 40 40">
  <g id="ic_bd_target" transform="translate(-188 -288.381)">
    <path id="Path_16423" data-name="Path 16423" d="M10,0H30A10,10,0,0,1,40,10V30A10,10,0,0,1,30,40H10A10,10,0,0,1,0,30V10A10,10,0,0,1,10,0Z" transform="translate(188 288.381)" fill="#ff5151"/>
    <g id="target-line" transform="translate(195.043 295.24)">
      <path id="Path_110" data-name="Path 110" d="M15.043,2A13.043,13.043,0,1,0,28.087,15.043,13.043,13.043,0,0,0,15.043,2Zm0,24.457A11.413,11.413,0,1,1,26.457,15.043,11.413,11.413,0,0,1,15.043,26.457Z" transform="translate(-2 -2)" fill="#fff"/>
      <path id="Path_111" data-name="Path 111" d="M16,7.2a8.8,8.8,0,1,0,8.8,8.8A8.8,8.8,0,0,0,16,7.2Zm0,16.3A7.5,7.5,0,1,1,23.5,16,7.5,7.5,0,0,1,16,23.5Z" transform="translate(-2.961 -2.961)" fill="#fff"/>
      <path id="Path_112" data-name="Path 112" d="M16.949,12.31a4.639,4.639,0,1,0,4.639,4.639A4.639,4.639,0,0,0,16.949,12.31Zm0,7.965a3.329,3.329,0,1,1,0,.008Z" transform="translate(-3.905 -3.905)" fill="#fff"/>
    </g>
  </g>
</svg>
