<svg xmlns="http://www.w3.org/2000/svg" width="20.587" height="22.48" viewBox="0 0 20.587 22.48">
  <g id="ic_cau_hoi_thuong_gap" transform="translate(0.249 0.285)">
    <path id="Path_16064" data-name="Path 16064" d="M-426.647-80.306a5.461,5.461,0,0,1-1.41-.628,5.053,5.053,0,0,1-2.373-3.511,1.18,1.18,0,0,1-.025-.269v-2.416a.343.343,0,0,1,.376-.184,1.361,1.361,0,0,0,.165.008,1.748,1.748,0,0,1,.8.391,1.594,1.594,0,0,1,.55,1.243,3.719,3.719,0,0,0,.243,1.462,3.375,3.375,0,0,0,3.126,2.124,7.872,7.872,0,0,0,1.459-.058A3.391,3.391,0,0,0-421-85.291a3.729,3.729,0,0,1,.038-.722,1.6,1.6,0,0,1,1.263-1.272.576.576,0,0,0,.057-.019c.194,0,.408-.067.535.158a13.347,13.347,0,0,1-.111,2.945,5.062,5.062,0,0,1-3.609,3.867c-.029.009-.056.02-.085.03a5.337,5.337,0,0,1-1.01.15A11.049,11.049,0,0,1-426.647-80.306Z" transform="translate(430.49 92.639)" fill="#ff5151" stroke="#201814" stroke-miterlimit="10" stroke-width="0.5"/>
    <g id="Path_16065" data-name="Path 16065" transform="translate(430.224 92.454)" fill="#3888ce" stroke-miterlimit="10">
      <path d="M -417.79150390625 -70.50888061523438 C -417.8063354492188 -70.50888061523438 -419.4425659179688 -70.530517578125 -419.4976196289062 -70.53762817382812 C -420.5523071289062 -70.69062042236328 -421.4928894042969 -71.06055450439453 -422.2970886230469 -71.63771057128906 C -424.1129455566406 -72.94038391113281 -425.0631408691406 -74.73204040527344 -425.1212158203125 -76.96287536621094 C -425.1303405761719 -77.32730865478516 -425.1275939941406 -77.69587707519531 -425.1248779296875 -78.05231475830078 C -425.1235656738281 -78.22504425048828 -425.1222839355469 -78.39773559570312 -425.1222839355469 -78.57033538818359 L -425.1222839355469 -78.83110809326172 L -424.8617248535156 -78.82011413574219 L -424.31982421875 -78.79725646972656 L -424.0848388671875 -78.78733825683594 L -424.0804138183594 -78.55217742919922 C -424.0759582519531 -78.31451416015625 -424.0798950195312 -78.07490539550781 -424.083740234375 -77.84318542480469 C -424.0908203125 -77.41257476806641 -424.0975341796875 -77.00584411621094 -424.0559387207031 -76.59654998779297 C -423.8312377929688 -74.36697387695312 -422.6913146972656 -72.80049896240234 -420.6678161621094 -71.94041442871094 C -419.9959716796875 -71.65464782714844 -419.2900695800781 -71.509765625 -418.5696411132812 -71.509765625 C -415.8782653808594 -71.509765625 -413.544189453125 -73.52086639404297 -413.1404113769531 -76.18776702880859 C -413.0974426269531 -76.4678955078125 -413.0765686035156 -76.77512359619141 -413.0765686035156 -77.12746429443359 C -413.0772094726562 -78.52935028076172 -413.0769958496094 -79.93175506591797 -413.0767822265625 -81.33403778076172 L -413.0765686035156 -83.43699645996094 L -413.0765686035156 -83.68743896484375 L -412.8261413574219 -83.68699645996094 L -412.28515625 -83.68605041503906 L -412.0356140136719 -83.68560791015625 L -412.0356140136719 -83.43605041503906 C -412.0356140136719 -82.84794616699219 -412.0358276367188 -82.25978088378906 -412.0360412597656 -81.67156982421875 C -412.0365905761719 -80.12385559082031 -412.0371704101562 -78.52344512939453 -412.03369140625 -76.94992828369141 C -412.0308227539062 -75.48501586914062 -412.5659790039062 -74.02953338623047 -413.5405883789062 -72.85157012939453 C -414.5155639648438 -71.67316436767578 -415.8463439941406 -70.87418365478516 -417.2877502441406 -70.60182952880859 C -417.4374694824219 -70.57376098632812 -417.5859069824219 -70.54483032226562 -417.7343139648438 -70.51497650146484 L -417.7583923339844 -70.50890350341797 L -417.79150390625 -70.50888061523438 Z" stroke="none"/>
      <path d="M -412.8265686035156 -83.43699645996094 C -412.8265686035156 -81.33413696289062 -412.8275146484375 -79.23032379150391 -412.8265686035156 -77.12746429443359 C -412.8265686035156 -76.79985809326172 -412.8436889648438 -76.47319030761719 -412.8932189941406 -76.15033721923828 C -413.4494018554688 -72.47698974609375 -417.3467407226562 -70.25605773925781 -420.7655944824219 -71.71033477783203 C -422.8875122070312 -72.61223602294922 -424.0722961425781 -74.26556396484375 -424.3046569824219 -76.57127380371094 C -424.371337890625 -77.22747802734375 -424.3179931640625 -77.888427734375 -424.3303833007812 -78.54747772216797 L -424.8722839355469 -78.57033538818359 C -424.8722839355469 -78.03699493408203 -424.8846740722656 -77.50271606445312 -424.8713073730469 -76.96939086914062 C -424.8151245117188 -74.81128692626953 -423.9037170410156 -73.09795379638672 -422.1513366699219 -71.8408203125 C -421.3484497070312 -71.26461791992188 -420.4436950683594 -70.92747497558594 -419.4656066894531 -70.78556823730469 C -419.4360961914062 -70.78175354003906 -417.7925109863281 -70.75822448730469 -417.7893981933594 -70.75890350341797 C -417.6380004882812 -70.78937530517578 -417.486572265625 -70.81890869140625 -417.3341674804688 -70.84748077392578 C -414.4713134765625 -71.38843536376953 -412.2779846191406 -74.04176330566406 -412.28369140625 -76.94937896728516 C -412.2884521484375 -79.11128997802734 -412.2856140136719 -81.27414703369141 -412.2856140136719 -83.43605041503906 L -412.8265686035156 -83.43699645996094 M -413.3265686035156 -83.93787384033203 L -411.7856140136719 -83.93516540527344 L -411.7856140136719 -83.43605041503906 C -411.7856140136719 -82.84791564941406 -411.7858276367188 -82.25971984863281 -411.7860412597656 -81.67148590087891 C -411.7865905761719 -80.12392425537109 -411.7871704101562 -78.52367401123047 -411.78369140625 -76.95047760009766 C -411.7807006835938 -75.42727661132812 -412.3362426757812 -73.9150390625 -413.3479919433594 -72.69219970703125 C -414.3600463867188 -71.46895599365234 -415.7427368164062 -70.63935089111328 -417.2413330078125 -70.35617065429688 C -417.388427734375 -70.32859039306641 -417.5339660644531 -70.30023956298828 -417.6794128417969 -70.27101898193359 L -417.7278442382812 -70.25890350341797 L -417.79150390625 -70.25888061523438 C -417.8064880371094 -70.25888061523438 -419.4478759765625 -70.27914428710938 -419.529541015625 -70.28966522216797 L -419.5374145507812 -70.29074859619141 C -420.6282348632812 -70.44902038574219 -421.6058044433594 -70.83386993408203 -422.44287109375 -71.43460083007812 C -424.32568359375 -72.78531646728516 -425.3109130859375 -74.64312744140625 -425.3711242675781 -76.95637512207031 C -425.38037109375 -77.32511901855469 -425.3775939941406 -77.69575500488281 -425.3748779296875 -78.05419921875 C -425.3735656738281 -78.22629547119141 -425.3722839355469 -78.39836883544922 -425.3722839355469 -78.57033538818359 L -425.3722839355469 -79.09188079833984 L -423.8392944335938 -79.02720642089844 L -423.8304748535156 -78.55687713623047 C -423.825927734375 -78.31480407714844 -423.8298950195312 -78.07295989990234 -423.8337707519531 -77.83906555175781 C -423.8407287597656 -77.41603851318359 -423.8473205566406 -77.01645660400391 -423.8072204589844 -76.621826171875 C -423.5923461914062 -74.48968505859375 -422.5032043457031 -72.9921875 -420.5700073242188 -72.17049407958984 C -419.9292297363281 -71.89793395996094 -419.2562561035156 -71.759765625 -418.5696411132812 -71.759765625 C -416.0008544921875 -71.759765625 -413.7730407714844 -73.67947387695312 -413.3876037597656 -76.22518920898438 C -413.3464660644531 -76.49312591552734 -413.3265686035156 -76.78795623779297 -413.3265686035156 -77.12746429443359 C -413.3272094726562 -78.52928924560547 -413.3269958496094 -79.93174743652344 -413.3267822265625 -81.33406829833984 L -413.3265686035156 -83.93787384033203 Z" stroke="none" fill="#201814"/>
    </g>
    <path id="Path_16066" data-name="Path 16066" d="M-411.792-83.68h-.541a2.41,2.41,0,0,1-2.065-1.726,2.438,2.438,0,0,1,1.665-3.068,2.452,2.452,0,0,1,3.03,1.7c.017.061.06.5.059.53,0,.322-.019.622-.026.646A2.44,2.44,0,0,1-411.792-83.68Zm-.275-3.694a1.259,1.259,0,0,0-1.253,1.261,1.264,1.264,0,0,0,1.266,1.25,1.264,1.264,0,0,0,1.253-1.263A1.258,1.258,0,0,0-412.067-87.375Z" transform="translate(429.731 92.698)" fill="#ffc919" stroke="#201814" stroke-miterlimit="10" stroke-width="0.5"/>
    <path id="Path_16067" data-name="Path 16067" d="M-419.706-91.616a.981.981,0,0,1-.666.565.946.946,0,0,1-1.117-.617.929.929,0,0,1,.509-1.171,1.281,1.281,0,0,1,.739-.018.977.977,0,0,1,.579.682A1.164,1.164,0,0,1-419.706-91.616Z" transform="translate(430.065 92.905)" fill="#ffc919" stroke="#201814" stroke-miterlimit="10" stroke-width="0.5"/>
    <path id="Path_16068" data-name="Path 16068" d="M-428.135-92.852a.936.936,0,0,1,.575,1.008.932.932,0,0,1-.827.811.916.916,0,0,1-.92-.448c-.028-.041-.049-.087-.074-.13a1.283,1.283,0,0,1-.052-.56,1.085,1.085,0,0,1,.6-.691A1.8,1.8,0,0,1-428.135-92.852Z" transform="translate(430.442 92.904)" fill="#ffc919" stroke="#201814" stroke-miterlimit="10" stroke-width="0.5"/>
    <path id="Path_16069" data-name="Path 16069" d="M-429.483-92.134a1.283,1.283,0,0,0,.052.56.864.864,0,0,0-.486.823q0,1.609,0,3.216a1.361,1.361,0,0,1-.165-.008.343.343,0,0,0-.376.184l.013-.613s-.108-2.87,0-3.272A1.448,1.448,0,0,1-429.483-92.134Z" transform="translate(430.492 92.868)" fill="#5d8bbc" stroke="#000" stroke-miterlimit="10" stroke-width="0.5"/>
    <path id="Path_16070" data-name="Path 16070" d="M-424.406-78.382l-.542-.023a1.8,1.8,0,0,1-1.51-1.55,11.049,11.049,0,0,0,2.728.15,5.337,5.337,0,0,0,1.01-.15,1.787,1.787,0,0,1-1.537,1.55Z" transform="translate(430.299 92.288)" fill="#ffc919" stroke="#201814" stroke-miterlimit="10" stroke-width="0.5"/>
    <path id="Path_16071" data-name="Path 16071" d="M-419.614-91.58a1.164,1.164,0,0,0,.044-.56,1.353,1.353,0,0,1,.978,1.21c.018,1.185,0,2.37,0,3.553-.128-.225-.341-.161-.535-.158,0-1.066,0-2.13,0-3.2A.885.885,0,0,0-419.614-91.58Z" transform="translate(429.974 92.868)" fill="#5d8bbb" stroke="#201814" stroke-miterlimit="10" stroke-width="0.5"/>
    <path id="Path_16072" data-name="Path 16072" d="M-412.008-87.315a1.258,1.258,0,0,1,1.266,1.249A1.264,1.264,0,0,1-412-84.8a1.264,1.264,0,0,1-1.266-1.25A1.259,1.259,0,0,1-412.008-87.315Zm.007,1.97a.72.72,0,0,0,.721-.716.717.717,0,0,0-.721-.715.716.716,0,0,0-.721.716A.718.718,0,0,0-412-85.345Z" transform="translate(429.671 92.638)"/>
    <path id="Path_16073" data-name="Path 16073" d="M-411.974-85.318a.718.718,0,0,1-.721-.715.716.716,0,0,1,.721-.716.717.717,0,0,1,.721.715A.72.72,0,0,1-411.974-85.318Z" transform="translate(429.644 92.611)" fill="#ffc919"/>
  </g>
</svg>
