<svg xmlns="http://www.w3.org/2000/svg" width="16.851" height="15.306" viewBox="0 0 16.851 15.306">
  <g id="Ticket-Star" transform="translate(0 0)">
    <g id="Group-3" transform="translate(0 0)">
      <path id="Fill-1" d="M1.264,10.926v1.723a2.225,2.225,0,0,0,2.225,2.226H13.36a2.229,2.229,0,0,0,2.227-2.224V10.925a2.518,2.518,0,0,1,0-4.876V4.327A2.228,2.228,0,0,0,13.364,2.1H3.492A2.23,2.23,0,0,0,1.264,4.323V6.107A2.449,2.449,0,0,1,2.369,6.7a2.442,2.442,0,0,1,.779,1.71,2.555,2.555,0,0,1-1.885,2.516m12.1,5.213H3.49A3.488,3.488,0,0,1,0,12.649V10.374a.632.632,0,0,1,.632-.632A1.255,1.255,0,0,0,1.886,8.488a1.2,1.2,0,0,0-.379-.863,1.146,1.146,0,0,0-.853-.318A.645.645,0,0,1,.193,7.13.634.634,0,0,1,0,6.675V4.324A3.5,3.5,0,0,1,3.492.834h9.868a3.5,3.5,0,0,1,3.492,3.494V6.6a.632.632,0,0,1-.632.632,1.255,1.255,0,1,0,0,2.509.632.632,0,0,1,.632.632v2.275a3.5,3.5,0,0,1-3.491,3.49" transform="translate(0 -0.834)" fill="#ff7519" fill-rule="evenodd"/>
    </g>
    <path id="Fill-4" d="M7.807,8.862l.429.418a.983.983,0,0,1,.282.871l-.1.588.53-.279a.973.973,0,0,1,.917,0l.527.276-.1-.589a.986.986,0,0,1,.283-.87L11,8.862l-.594-.086a.978.978,0,0,1-.737-.538L9.4,7.7l-.265.538a.979.979,0,0,1-.739.537Zm2.961,3.375a.978.978,0,0,1-.458-.115l-.9-.474-.906.475A.981.981,0,0,1,7.075,11.09l.173-1.008-.732-.714A.981.981,0,0,1,7.057,7.7l1.014-.148.452-.918a.981.981,0,0,1,1.76,0l.453.917L11.75,7.7a.981.981,0,0,1,.543,1.674l-.733.714.174,1.007a.982.982,0,0,1-.966,1.148Z" transform="translate(-0.979 -1.801)" fill="#ff7519" fill-rule="evenodd"/>
  </g>
</svg>
