<svg id="Calendar" xmlns="http://www.w3.org/2000/svg" width="13.954" height="15.505" viewBox="0 0 13.954 15.505">
  <path id="Path_16633" data-name="Path 16633" d="M9.916,0a.552.552,0,0,1,.512.569h0v.8a3.473,3.473,0,0,1,3.526,3.833h0v6.411c0,2.578-1.47,3.888-4.362,3.888H4.362C1.47,15.5,0,14.195,0,11.617H0V5.205A3.521,3.521,0,0,1,1.6,1.914h0l.076-.043a.531.531,0,0,1,.492.022.553.553,0,0,1-.055.981A2.436,2.436,0,0,0,1.065,5.205h0v.206H10.9a.542.542,0,0,1,0,1.083H1.065v5.122c0,1.968.957,2.784,3.3,2.8H9.593c2.305,0,3.29-.837,3.29-2.8h0V5.2a2.407,2.407,0,0,0-2.454-2.743h0v.521a.538.538,0,0,1-1.072-.041h0V.522l.01-.086A.544.544,0,0,1,9.529.142.527.527,0,0,1,9.916,0Zm.307,11.005.086.006a.67.67,0,0,1,.392.193.692.692,0,0,1,.2.487.674.674,0,1,1-.674-.686Zm-3.232,0,.085.005a.674.674,0,1,1-.085-.005Zm-3.232,0,.086.006a.67.67,0,0,1,.392.193.692.692,0,0,1,.2.487.674.674,0,1,1-.674-.686Zm6.465-2.777.086.005a.67.67,0,0,1,.392.193.692.692,0,0,1,.2.487.674.674,0,1,1-.674-.686Zm-3.232,0,.085.005a.674.674,0,1,1-.085-.005Zm-3.232,0,.086.005a.67.67,0,0,1,.392.193.692.692,0,0,1,.2.487.674.674,0,1,1-.674-.686Zm.3-8.147A.543.543,0,0,1,4.6.57h0v.747H7.644a.542.542,0,0,1,0,1.083H4.584v.542a.546.546,0,0,1-.158.385.528.528,0,0,1-.381.156h0l-.078-.008a.54.54,0,0,1-.441-.541h0V.57L3.541.489A.541.541,0,0,1,4.062.083Z" transform="translate(0 0)" fill="#ff7519"/>
</svg>
