<svg id="Location" xmlns="http://www.w3.org/2000/svg" width="13.918" height="16.449" viewBox="0 0 13.918 16.449">
  <path id="Combined-Shape" d="M6.959,1a6.994,6.994,0,0,1,6.959,7.012c0,4.753-5.446,9.437-6.959,9.437S0,12.766,0,8.012A6.994,6.994,0,0,1,6.959,1Zm0,1.265A5.727,5.727,0,0,0,1.265,8.012c0,4.031,4.744,7.959,5.694,8.168.95-.21,5.694-4.138,5.694-8.168A5.727,5.727,0,0,0,6.959,2.265Zm0,2.952A2.741,2.741,0,1,1,4.218,7.96,2.745,2.745,0,0,1,6.959,5.218Zm0,1.265A1.476,1.476,0,1,0,8.436,7.96,1.478,1.478,0,0,0,6.959,6.483Z" transform="translate(0.001 -1)" fill="#ff7519" fill-rule="evenodd"/>
</svg>
