<svg xmlns="http://www.w3.org/2000/svg" width="21.665" height="23.917" viewBox="0 0 21.665 23.917">
  <g id="ic_noti" transform="translate(-3.373 -1.125)">
    <path id="Path_16050" data-name="Path 16050" d="M22.343,14.816V12.671H20.694v2.474a.751.751,0,0,0,.247.577l2.227,2.227v1.32H5.024V17.95l2.227-2.227a.751.751,0,0,0,.247-.577V11.022a6.6,6.6,0,0,1,6.6-6.6,6.506,6.506,0,0,1,3.3.9V3.434a8.008,8.008,0,0,0-2.474-.66V1.125H13.271V2.774a8.371,8.371,0,0,0-7.423,8.247v3.794L3.621,17.043a.751.751,0,0,0-.247.577v2.474a.775.775,0,0,0,.825.825H9.972a4.124,4.124,0,0,0,8.247,0h5.773a.775.775,0,0,0,.825-.825V17.62a.751.751,0,0,0-.247-.577ZM14.1,23.393a2.474,2.474,0,0,1-2.474-2.474H16.57A2.474,2.474,0,0,1,14.1,23.393Z" fill="#c60000"/>
    <path id="Path_16051" data-name="Path 16051" d="M32.617,8.433A3.933,3.933,0,1,1,28.683,4.5,3.933,3.933,0,0,1,32.617,8.433Z" transform="translate(-7.579 -0.916)" fill="#c60000"/>
    <circle id="Ellipse_3" data-name="Ellipse 3" cx="3" cy="3" r="3" transform="translate(18.171 4.584)" fill="#00ff3c"/>
  </g>
</svg>
