<svg xmlns="http://www.w3.org/2000/svg" width="21.447" height="23.917" viewBox="0 0 21.447 23.917">
  <path id="ic_noti_default" d="M24.571,17.043l-2.227-2.227V11.022a8.305,8.305,0,0,0-7.423-8.247V1.125H13.271V2.774a8.371,8.371,0,0,0-7.423,8.247v3.794L3.621,17.043a.751.751,0,0,0-.247.577v2.474a.775.775,0,0,0,.825.825H9.972a4.124,4.124,0,0,0,8.247,0h5.773a.775.775,0,0,0,.825-.825V17.62A.751.751,0,0,0,24.571,17.043ZM14.1,23.393a2.474,2.474,0,0,1-2.474-2.474H16.57A2.474,2.474,0,0,1,14.1,23.393Zm9.072-4.124H5.024V17.95l2.227-2.227a.751.751,0,0,0,.247-.577V11.022a6.6,6.6,0,0,1,13.2,0v4.124a.751.751,0,0,0,.247.577l2.227,2.227Z" transform="translate(-3.373 -1.125)" fill="#c60000"/>
</svg>
