<svg id="notification-new" xmlns="http://www.w3.org/2000/svg" width="14.938" height="16.043" viewBox="0 0 14.938 16.043">
  <path id="Path_3" data-name="Path 3" d="M5.033,10.308V8.87H6.14v1.66a.5.5,0,0,1-.166.387L4.48,12.41V13.3h12.17V12.41l-1.494-1.494a.5.5,0,0,1-.166-.387V7.763a4.426,4.426,0,0,0-4.426-4.426,4.364,4.364,0,0,0-2.212.6V2.674a5.372,5.372,0,0,1,1.66-.443V1.125h1.106V2.231A5.615,5.615,0,0,1,16.1,7.763v2.545L17.591,11.8a.5.5,0,0,1,.166.387v1.66a.52.52,0,0,1-.553.553H13.331a2.766,2.766,0,1,1-5.532,0H3.927a.52.52,0,0,1-.553-.553v-1.66A.5.5,0,0,1,3.54,11.8Zm5.532,5.753a1.66,1.66,0,0,0,1.66-1.66H8.906a1.66,1.66,0,0,0,1.66,1.66Z" transform="translate(-2.821 -1.125)" fill="#ff7519"/>
  <path id="Path_4" data-name="Path 4" d="M24.75,6.713A2.213,2.213,0,1,0,26.963,4.5,2.213,2.213,0,0,0,24.75,6.713Z" transform="translate(-24.75 -2.84)" fill="#8aff3b"/>
</svg>
