<svg xmlns="http://www.w3.org/2000/svg" width="22.684" height="22.934" viewBox="0 0 22.684 22.934">
  <g id="Group_306" data-name="Group 306" transform="translate(0 0)">
    <path id="Path_16601" data-name="Path 16601" d="M670.113,211.891a2.1,2.1,0,0,0,.808-2.254,2.213,2.213,0,0,0-2.014-1.889,2.186,2.186,0,0,0-.862-2.418,2.467,2.467,0,0,0-1.375-.511,1.954,1.954,0,0,0-1.379.446,2.342,2.342,0,0,0-4.225-.146,2.044,2.044,0,0,0-1.828-.525,2.255,2.255,0,0,0-1.971,2.14c0,.122-.03.147-.139.108a1.764,1.764,0,0,0-.679-.085c-.262.012-.344.09-.379.359.066.223.1.242.436.25a1.312,1.312,0,0,1,1.242.8,1.553,1.553,0,0,1-.13,1.713,1.593,1.593,0,0,1-1.946.366,1.3,1.3,0,0,1-.787-1.151.834.834,0,0,0-.02-.183c-.041-.134-.108-.24-.274-.219h0c-.231.026-.323.153-.324.388a3.14,3.14,0,0,0,.139.748,2.319,2.319,0,0,0-1.659,3.812c-.1.054-.194.1-.279.147a2.262,2.262,0,0,0-1,2.267,2.139,2.139,0,0,0,1.33,1.786c.12.047.093.079.043.154a1.816,1.816,0,0,0-.324.941,2.485,2.485,0,0,0,.957,2.089c.044.038.12.059.119.126,0,.112-.335.293-.44.247a1.272,1.272,0,0,0-1.834,1.056c-.012.123-.051.152-.165.147a1.07,1.07,0,0,0-.828.331q-.875.866-1.742,1.741a.728.728,0,0,0,0,1.052c.271.282.549.558.83.83a.72.72,0,0,0,1.066.006c.587-.574,1.165-1.157,1.744-1.738a1.094,1.094,0,0,0,.333-.806c0-.134.02-.172.167-.185a1.263,1.263,0,0,0,1.074-1.709.355.355,0,0,1,.124-.495,1.039,1.039,0,0,0,.147-.146.143.143,0,0,1,.177-.049,1.873,1.873,0,0,0,1.22-.022,2.182,2.182,0,0,0,1.719,2.039,3.7,3.7,0,0,1,4.624.14,2.151,2.151,0,0,0,1.884-1.745,2.319,2.319,0,0,0,3.4-2.363,2.326,2.326,0,0,0,2.256-3.5,2.321,2.321,0,0,0,.76-4.085Zm-7.294,8a2.25,2.25,0,0,0-1.77-.462,2.163,2.163,0,0,0-1.418,1.146A2.326,2.326,0,0,0,658.4,219.4a2.148,2.148,0,0,0-1.678.246c.034-1.579-.287-2.02-1.761-2.406a2.183,2.183,0,0,0,.725-1.6,2.236,2.236,0,0,0-.843-1.555,2.216,2.216,0,0,0,1.429-1.183,2.183,2.183,0,0,0-.112-1.865,2.221,2.221,0,0,0,1.922-.732,2.12,2.12,0,0,0,.463-1.566c.028-.045-.02-.119.055-.145a1.982,1.982,0,0,0,2.835-1.209c.018-.047.006-.111.066-.139a2.022,2.022,0,0,0,3.214.1,2.463,2.463,0,0,0,.8,1.38,2.145,2.145,0,0,0,1.591.255,2.114,2.114,0,0,0-.284,1.68,2.3,2.3,0,0,0,1.163,1.265,2.194,2.194,0,0,0-1.139,1.49,2.222,2.222,0,0,0,.529,1.782,4.005,4.005,0,0,0-.6.155,1.962,1.962,0,0,0-1.244,2.427c.031.132.05.2-.127.169A2.039,2.039,0,0,0,662.819,219.889Z" transform="translate(-648.362 -203.858)" fill="#040505"/>
    <path id="Path_16602" data-name="Path 16602" d="M672.489,215.708a.359.359,0,0,0,.347.208,1.4,1.4,0,0,1,1.514,1.151,1.5,1.5,0,0,1-1.026,1.939,1.738,1.738,0,0,1-1.616-.342,1.232,1.232,0,0,1-.456-.987.369.369,0,0,0-.241-.393,3.884,3.884,0,0,1,.2-.582.9.9,0,0,0,.766-.756A1.436,1.436,0,0,1,672.489,215.708Z" transform="translate(-664.781 -212.449)" fill="#f78545"/>
    <path id="Path_16603" data-name="Path 16603" d="M672.209,216.25c.14.388-.252.485-.4.713-.086.133-.235.11-.368.042a.3.3,0,0,1,0-.464c.081-.091.163-.182.252-.265C671.9,216.085,671.983,216.083,672.209,216.25Z" transform="translate(-665.016 -212.754)" fill="#070707"/>
    <path id="Path_16604" data-name="Path 16604" d="M685.344,221.221c0-.056-.059-.133.055-.145C685.324,221.1,685.373,221.176,685.344,221.221Z" transform="translate(-675.161 -216.34)" fill="#fff"/>
    <path id="Path_16605" data-name="Path 16605" d="M661.638,242.81a1.6,1.6,0,0,1,1.234-1.76,1.362,1.362,0,0,1,.608.075,1.847,1.847,0,0,1,1.26,1.442.95.95,0,0,1-.051.452,1.955,1.955,0,0,1-1.552,1.309,1.173,1.173,0,0,1-1.158-.56A1.776,1.776,0,0,1,661.638,242.81Z" transform="translate(-657.986 -230.812)" fill="#f78545"/>
    <path id="Path_16606" data-name="Path 16606" d="M715.68,248.462a1.823,1.823,0,0,1-1.681,1.8,1.644,1.644,0,0,1-1.447-1.746,1.509,1.509,0,0,1,1.643-1.463A1.39,1.39,0,0,1,715.68,248.462Z" transform="translate(-694.896 -235.172)" fill="#f78545"/>
    <path id="Path_16607" data-name="Path 16607" d="M691.755,265.474a1.415,1.415,0,0,1-1.471-1.067c-.18-.775.54-2.179,1.694-2.033a1.689,1.689,0,0,1,1.457,2.044A1.74,1.74,0,0,1,691.755,265.474Z" transform="translate(-678.733 -246.272)" fill="#f78545"/>
    <path id="Path_16608" data-name="Path 16608" d="M702.987,258.47a1.5,1.5,0,0,1,1.159-1.582,1.681,1.681,0,0,1,2,1.214,1.287,1.287,0,0,1-.133.847,1.805,1.805,0,0,1-1.544,1.042A1.389,1.389,0,0,1,702.987,258.47Z" transform="translate(-687.963 -242.273)" fill="#f78545"/>
    <path id="Path_16609" data-name="Path 16609" d="M719.046,223.408a1.892,1.892,0,0,1-1.788-1.23.989.989,0,0,1,.012-.5,2.264,2.264,0,0,1,.88-1.327,1.129,1.129,0,0,1,1.35-.028,1.914,1.914,0,0,1,.7,2.289A1.245,1.245,0,0,1,719.046,223.408Z" transform="translate(-698.289 -215.643)" fill="#f78545"/>
    <path id="Path_16610" data-name="Path 16610" d="M684.465,211.55a1.678,1.678,0,0,1-1.73-1.525,1.784,1.784,0,0,1,1.82-1.594,1.332,1.332,0,0,1,1.394,1.409A1.57,1.57,0,0,1,684.465,211.55Z" transform="translate(-673.281 -207.174)" fill="#f78545"/>
    <path id="Path_16611" data-name="Path 16611" d="M664.288,229.391a1.8,1.8,0,0,1,1.358-1.749,1.229,1.229,0,0,1,1.071.281,1.719,1.719,0,0,1,.684,1.572,1.505,1.505,0,0,1-1.441,1.311,1.354,1.354,0,0,1-1.643-1.118C664.3,229.59,664.3,229.49,664.288,229.391Z" transform="translate(-659.908 -221.079)" fill="#f78545"/>
    <path id="Path_16612" data-name="Path 16612" d="M697.755,205.826a1.916,1.916,0,0,1,1.27.448,1.2,1.2,0,0,1,.386,1.349,1.814,1.814,0,0,1-1.448,1.318,1.047,1.047,0,0,1-.411-.023,1.875,1.875,0,0,1-1.325-1.936,1.434,1.434,0,0,1,1.164-1.1A1.46,1.46,0,0,1,697.755,205.826Z" transform="translate(-683.049 -205.284)" fill="#f78545"/>
    <path id="Path_16613" data-name="Path 16613" d="M711.009,209.364a1.947,1.947,0,0,1,1.868,1.562,1.032,1.032,0,0,1-.381,1.045,2.339,2.339,0,0,1-1.931.422.726.726,0,0,1-.46-.322,2.089,2.089,0,0,1-.366-1.759A1.233,1.233,0,0,1,711.009,209.364Z" transform="translate(-692.812 -207.85)" fill="#f78545"/>
    <path id="Path_16614" data-name="Path 16614" d="M720.606,235.677a1.614,1.614,0,0,1-1.493,1.715,1.767,1.767,0,0,1-1.613-1.7,1.725,1.725,0,0,1,1.744-1.548A1.4,1.4,0,0,1,720.606,235.677Z" transform="translate(-698.484 -225.816)" fill="#f78545"/>
    <path id="Path_16615" data-name="Path 16615" d="M668.59,255.79a2.225,2.225,0,0,1-.292,1.217,1.209,1.209,0,0,1-1.523.546,1.984,1.984,0,0,1-1.282-1.722,1.3,1.3,0,0,1,1.425-1.379,2.512,2.512,0,0,1,.937.195A1.082,1.082,0,0,1,668.59,255.79Z" transform="translate(-660.781 -240.535)" fill="#f78545"/>
    <path id="Path_16616" data-name="Path 16616" d="M678.1,265.216a1.907,1.907,0,0,1-1.4-.592,1.256,1.256,0,0,1,.045-1.877,2.372,2.372,0,0,1,1.144-.6,1.033,1.033,0,0,1,.928.211,1.983,1.983,0,0,1,.758,1.536A1.329,1.329,0,0,1,678.1,265.216Z" transform="translate(-668.62 -246.092)" fill="#f78545"/>
    <path id="Path_16617" data-name="Path 16617" d="M652.534,278.623c-.023.027-.045.057-.071.082-.281.282-.563.562-.842.845a.216.216,0,0,1-.354,0q-.371-.376-.746-.746a.215.215,0,0,1,0-.353c.278-.274.552-.551.829-.826.046-.045.085-.114.165-.032.322.327.648.65.972.975C652.5,278.581,652.513,278.6,652.534,278.623Z" transform="translate(-649.859 -257.283)" fill="#1776bd"/>
    <path id="Path_16618" data-name="Path 16618" d="M662.575,269.892a.724.724,0,0,1-.719.737.732.732,0,1,1,.719-.737Z" transform="translate(-657.62 -251.203)" fill="#1776bd"/>
    <path id="Path_16619" data-name="Path 16619" d="M657.677,274.057c.431-.169.621.182.863.407a.54.54,0,0,1,.125.635c-.085.213-.286.335-.435.5-.05.055-.095.025-.135-.018l-.186-.2a4.755,4.755,0,0,1-.275-1.216A.133.133,0,0,1,657.677,274.057Z" transform="translate(-655.083 -254.717)" fill="#f78545"/>
    <path id="Path_16620" data-name="Path 16620" d="M656.257,274.175c.068.364.136.729.2,1.093.013.074.02.15.029.225-.25-.245-.5-.488-.751-.734-.035-.034-.1-.075-.038-.13C655.878,274.469,656,274.242,656.257,274.175Z" transform="translate(-653.663 -254.834)" fill="#c05922"/>
    <path id="Path_16621" data-name="Path 16621" d="M685.281,221.148a.135.135,0,0,1-.015-.172c0-.006.046.017.07.027C685.261,221.029,685.31,221.1,685.281,221.148Z" transform="translate(-675.098 -216.267)" fill="#605d5d"/>
  </g>
</svg>
