<svg xmlns="http://www.w3.org/2000/svg" width="17.164" height="21.832" viewBox="0 0 17.164 21.832">
  <g id="Group_304" data-name="Group 304" transform="translate(0 0)">
    <path id="Path_16562" data-name="Path 16562" d="M661.795,94.879c-.253.089-.358.053-.5-.169a.41.41,0,0,1-.032-.055.961.961,0,0,0-.649-.642,1.084,1.084,0,0,1-.556-.509,5.576,5.576,0,0,1-.921-2.678,1.725,1.725,0,0,1,.176-.928c.047-.093.036-.139-.045-.211a1.667,1.667,0,0,1,.11-2.662c.083-.063.1-.1.04-.194a1.667,1.667,0,0,1,.7-2.445c.1-.046.137-.09.126-.2a1.677,1.677,0,0,1,1.527-1.815.346.346,0,0,1,.126-.009c.312.1.448-.044.568-.323a1.452,1.452,0,0,1,.815-.742.236.236,0,0,0,.17-.206,1.732,1.732,0,0,1,1.936-1.394c.107.015.135-.011.168-.114a1.706,1.706,0,0,1,1.363-1.252c.009,0,.015-.021.023-.031h.6a4.485,4.485,0,0,1,.559.219,1.754,1.754,0,0,1,.826,1.062c.028.1.054.133.166.118a1.726,1.726,0,0,1,1.94,1.408.221.221,0,0,0,.162.189,1.642,1.642,0,0,1,.932.964c.045.12.1.158.214.128a1.234,1.234,0,0,1,.486,0c.314.046.393.139.381.464,0,.17-.129.206-.259.225a2.31,2.31,0,0,1-.383.007,1.2,1.2,0,0,0-.437.078c-.335.121-.536,0-.591-.356a.972.972,0,0,0-.919-.93,1.071,1.071,0,0,0-.748.256c-.305.233-.433.219-.681-.068a.988.988,0,0,0-1.513,0c-.373.435-.5.436-.859.007a.983.983,0,0,0-1.528,0c-.21.246-.322.271-.585.131a1.024,1.024,0,0,0-1.325-.158.968.968,0,0,0-.424.707c-.073.428-.24.525-.649.389a1,1,0,0,0-1.055.195.945.945,0,0,0-.272.975c.1.42.035.526-.381.648a.957.957,0,0,0-.722.76.938.938,0,0,0,.355.964c.361.305.314.626-.14.764a.984.984,0,1,0,.711,1.825,3.092,3.092,0,0,0,.654-.437,1.453,1.453,0,0,0,.481-.855c.091-.51.157-1.025.3-1.526a3.523,3.523,0,0,1,.591-1.288,1.842,1.842,0,0,1,1.738-.688c.1.01.2.026.294.046.394.095.784.2,1.168.332a3.772,3.772,0,0,0,2.488-.016c.336-.115.679-.21,1.024-.293a2,2,0,0,1,2.545,1.371,7.387,7.387,0,0,1,.414,1.8,1.877,1.877,0,0,0,1.2,1.554.979.979,0,0,0,.963-1.7,1.673,1.673,0,0,0-.291-.13c-.418-.157-.474-.468-.13-.748a1.008,1.008,0,0,0,.341-.478.985.985,0,0,0-.619-1.235l-.041-.012c-.467-.146-.512-.22-.41-.687a1.245,1.245,0,0,0-.024-.589.3.3,0,0,1,.2-.415.342.342,0,0,1,.487.258,1.565,1.565,0,0,1,.066.651.163.163,0,0,0,.113.19,1.662,1.662,0,0,1,.708,2.458c-.054.089-.043.119.035.179A1.671,1.671,0,0,1,675.2,89.7c-.047.043-.1.071-.06.155a2.633,2.633,0,0,1,.019,1.989,4.713,4.713,0,0,1-.871,1.825,1.212,1.212,0,0,1-.718.462.19.19,0,0,0-.151.128,3.8,3.8,0,0,1-1.574,1.761,4.1,4.1,0,0,1,1.03.879,3.948,3.948,0,0,1,.88,2.432c.006.156.02.312.018.469a.312.312,0,0,1-.333.332c-.042,0-.085,0-.128,0H661.163c-.387,0-.474-.1-.458-.48a4.994,4.994,0,0,1,.314-1.79,3.8,3.8,0,0,1,1.38-1.691c.075-.051.151-.1.23-.152-.493-.332-.524-.383-.406-.673.039-.147.154-.17.282-.17a.459.459,0,0,1,.259.086,3.182,3.182,0,0,0,1.971.549,2.5,2.5,0,0,0,.573.039c.6-.028,1.192.051,1.788.041,1.028-.017,2.057-.033,3.085-.088a3.092,3.092,0,0,0,2.852-2.889c.034-.61-.01-1.22.068-1.829a7.7,7.7,0,0,0-.041-1.148.276.276,0,0,0-.125-.213c-.084-.066-.171-.128-.254-.193a2.191,2.191,0,0,1-.888-1.428c-.077-.505-.164-1.01-.291-1.506a2.779,2.779,0,0,0-.347-.821,1.113,1.113,0,0,0-1.187-.53,6.022,6.022,0,0,0-1.131.3,4.62,4.62,0,0,1-3.191,0,7.536,7.536,0,0,0-1.027-.282,1.351,1.351,0,0,0-.754.046,1.2,1.2,0,0,0-.606.573,3.589,3.589,0,0,0-.349,1c-.076.361-.154.724-.2,1.09A2.252,2.252,0,0,1,661.7,89.6a.676.676,0,0,0-.3.581c-.06.753.027,1.5.019,2.254a3.444,3.444,0,0,0,.455,1.88C662.048,94.6,662,94.756,661.795,94.879Z" transform="translate(-658.658 -78.296)" fill="#040505"/>
    <path id="Path_16563" data-name="Path 16563" d="M687.548,95.58c.261.1.34.084.513-.13a1.035,1.035,0,0,1,1.666.04c.242.331.432.331.672,0a1.034,1.034,0,0,1,1.666-.043c.2.245.348.26.586.05a1.045,1.045,0,0,1,1.763.726.318.318,0,0,0,.472.3,1.228,1.228,0,0,1,.705-.1.4.4,0,0,0,.438-.181,1.275,1.275,0,0,1,.477.43.36.36,0,0,0-.134.449,1.048,1.048,0,0,1-.005.669c-.085.289-.005.43.291.494a1.039,1.039,0,0,1,.412,1.87.346.346,0,0,0-.177.358.351.351,0,0,0,.294.268,1.036,1.036,0,0,1,.049,2.009.97.97,0,0,1-.667-.034,2.809,2.809,0,0,1-.958-.693,1.725,1.725,0,0,1-.344-.943,9.073,9.073,0,0,0-.414-1.774,1.946,1.946,0,0,0-2.583-1.322c-.444.118-.885.25-1.327.376a3.017,3.017,0,0,1-1.638.029c-.545-.147-1.087-.309-1.63-.464a.811.811,0,0,1-.249-.386,2.114,2.114,0,0,1-.069-1.765C687.4,95.724,687.434,95.619,687.548,95.58Z" transform="translate(-681.482 -91.695)" fill="#f78545"/>
    <path id="Path_16564" data-name="Path 16564" d="M672.476,122.695a.335.335,0,0,0,.079-.457,3.6,3.6,0,0,1-.512-1.97c-.012-.838-.052-1.676-.016-2.515,0-.084-.006-.164.089-.219a2.583,2.583,0,0,0,1.293-2.168,5.021,5.021,0,0,1,.335-1.4,1.426,1.426,0,0,1,.766-.892.24.24,0,0,1,.027.184c-.084.985-.1,1.974-.168,2.961-.02.318.018.636-.023.953-.026.106-.11.083-.186.087-.253.013-.346.166-.251.4a1.265,1.265,0,0,0,.316.391c.058.059.141.1.138.2a15.34,15.34,0,0,0,0,1.783,6.331,6.331,0,0,0,.083,1.463,3.709,3.709,0,0,0,.894,2.012.174.174,0,0,1,.069.169,3.162,3.162,0,0,1-1.972-.543.353.353,0,0,0-.53.022Z" transform="translate(-669.339 -106.112)" fill="#d18e69"/>
    <path id="Path_16565" data-name="Path 16565" d="M684.37,123.3a3.9,3.9,0,0,1-1.059-2.377,16.392,16.392,0,0,1-.054-2.039,3.352,3.352,0,0,1,0-.949.762.762,0,0,1,.039-.094c.1-.04.176.032.259.063a1.338,1.338,0,0,0,1.588-.514,1.049,1.049,0,0,0,.062-.111.259.259,0,0,0-.089-.355.245.245,0,0,0-.341.065,2.529,2.529,0,0,1-.243.294.8.8,0,0,1-1.273-.432c-.03-.678.037-1.355.051-2.032.013-.647.078-1.292.122-1.938a1.244,1.244,0,0,1,.04-.185,1.6,1.6,0,0,1,1.1.014c.47.129.937.273,1.408.4a4.154,4.154,0,0,0,2.343-.143,8.743,8.743,0,0,1,1.248-.335,1.186,1.186,0,0,1,1.325.622,4.557,4.557,0,0,1,.461,1.492c.051.271.1.544.138.817A2.255,2.255,0,0,0,692.6,117.1a.347.347,0,0,1,.178.322c.022,1,0,2-.054,3a3.11,3.11,0,0,1-2.6,2.832,31.574,31.574,0,0,1-3.595.117c-.561,0-1.122-.017-1.682-.032C684.694,123.338,684.532,123.317,684.37,123.3Z" transform="translate(-678.302 -105.737)" fill="#fdb991"/>
    <path id="Path_16566" data-name="Path 16566" d="M667.309,96.222a2.021,2.021,0,0,0-.059,2.008c.058.129.124.255.186.383a2.676,2.676,0,0,0-1.077.017,2.009,2.009,0,0,0-1.31,1.325,9.581,9.581,0,0,0-.468,2.046,1.933,1.933,0,0,1-1.661,1.473,1.035,1.035,0,0,1-1.018-.883,1.054,1.054,0,0,1,.664-1.12,1.3,1.3,0,0,1,.163-.048.32.32,0,0,0,.268-.268.315.315,0,0,0-.151-.329,1.042,1.042,0,0,1,.311-1.877c.4-.1.454-.187.35-.58a.985.985,0,0,1,.3-1.045,1.009,1.009,0,0,1,1.093-.187c.143.053.279.118.423.022a.348.348,0,0,0,.151-.289,1.042,1.042,0,0,1,1.832-.645Z" transform="translate(-661.243 -92.338)" fill="#c05922"/>
    <path id="Path_16567" data-name="Path 16567" d="M683.021,169.289c1.163.042,2.326.088,3.491.07.582-.009,1.164-.022,1.746-.045.161-.006.193.029.142.185a4.748,4.748,0,0,1-2.359,2.732.32.32,0,0,1-.163.037l-3.748-.007a.263.263,0,0,1-.057-.219,5.04,5.04,0,0,1,.578-2.3C682.748,169.569,682.821,169.375,683.021,169.289Z" transform="translate(-677.384 -151.075)" fill="#fbc540"/>
    <path id="Path_16568" data-name="Path 16568" d="M707.593,171.775a5.648,5.648,0,0,0,1.309-1.429,4.455,4.455,0,0,0,.592-1.4c.027-.126.1-.162.221-.2.636-.22,1.063.157,1.476.515a2.966,2.966,0,0,1,1.032,2.121c.026.4.021.4-.38.4h-4.25Z" transform="translate(-697.798 -150.583)" fill="#fbc540"/>
    <path id="Path_16569" data-name="Path 16569" d="M686.963,82.911a1.185,1.185,0,0,1,.456.088c.339.139.519.016.525-.349a1.113,1.113,0,0,1,.821-1.09,1.1,1.1,0,0,1,1.239.52,1.192,1.192,0,0,1,.148.592c0,.334.191.457.506.335a1.1,1.1,0,0,1,1.471.549c.065.143.065.213-.122.229-.228.019-.429.246-.625.217s-.355-.241-.567-.311a1.642,1.642,0,0,0-1.625.263.187.187,0,0,1-.285,0,1.647,1.647,0,0,0-2-.062c-.15.107-.258.151-.422.034a.87.87,0,0,0-.439-.147c-.148-.011-.134-.085-.1-.185A1.1,1.1,0,0,1,686.963,82.911Z" transform="translate(-680.466 -80.879)" fill="#c05922"/>
    <path id="Path_16570" data-name="Path 16570" d="M675.1,168.769a3.91,3.91,0,0,0-.81,1.979,6.939,6.939,0,0,0-.082.992q-.959,0-1.917.008c-.084,0-.128-.014-.123-.117a3.345,3.345,0,0,1,.786-2.132,3.168,3.168,0,0,1,1.127-.819.494.494,0,0,1,.329-.024C674.637,168.708,674.87,168.733,675.1,168.769Z" transform="translate(-669.464 -150.555)" fill="#e89e3c"/>
    <path id="Path_16571" data-name="Path 16571" d="M733.8,140.318c.083-.9.088-1.758.1-2.619a4.422,4.422,0,0,0-.006-.468c-.015-.161.047-.194.193-.172a.9.9,0,0,0,.317,0c.185-.039.263.037.323.2a1.894,1.894,0,0,1-.005,1.067,5.187,5.187,0,0,1-.635,1.654A1.03,1.03,0,0,1,733.8,140.318Z" transform="translate(-718.763 -125.286)" fill="#d18e69"/>
    <path id="Path_16572" data-name="Path 16572" d="M665.229,140.3a2.774,2.774,0,0,1-.553-.9,4.988,4.988,0,0,1-.424-1.677,1.06,1.06,0,0,1,.024-.273c.088-.414.091-.417.5-.394.124.007.291-.082.361.019s.018.246.017.374c0,.858.017,1.715.073,2.572C665.233,140.1,665.229,140.177,665.229,140.3Z" transform="translate(-663.132 -125.272)" fill="#d18e69"/>
    <path id="Path_16573" data-name="Path 16573" d="M681.469,133.677a.6.6,0,0,1,.111.127.734.734,0,0,0,1.327.016.3.3,0,0,1,.226-.174.312.312,0,0,1,.319.122.324.324,0,0,1,.019.359,1.378,1.378,0,0,1-1.735.649c-.078-.032-.153-.072-.229-.108a1.7,1.7,0,0,1-.446-.473.361.361,0,0,1-.013-.434A.332.332,0,0,1,681.469,133.677Z" transform="translate(-676.511 -122.56)" fill="#050605"/>
    <path id="Path_16574" data-name="Path 16574" d="M696.19,119.373a1.069,1.069,0,1,1,1.066,1.069A1.055,1.055,0,0,1,696.19,119.373Z" transform="translate(-688.677 -110.294)" fill="#050605"/>
    <path id="Path_16575" data-name="Path 16575" d="M695.2,147.844a1.73,1.73,0,0,1-1.512-.911.329.329,0,0,1,.1-.5c.171-.09.335-.028.459.176a1.074,1.074,0,0,0,1.919-.008c.123-.2.293-.258.461-.163a.326.326,0,0,1,.1.481A1.729,1.729,0,0,1,695.2,147.844Z" transform="translate(-686.62 -132.764)" fill="#050605"/>
    <path id="Path_16576" data-name="Path 16576" d="M710.674,134.868a1.4,1.4,0,0,1-1.2-.728.322.322,0,0,1,.1-.479.311.311,0,0,1,.448.149.737.737,0,0,0,1.32-.014.306.306,0,0,1,.452-.127.319.319,0,0,1,.1.447A1.38,1.38,0,0,1,710.674,134.868Z" transform="translate(-699.25 -122.543)" fill="#050605"/>
    <path id="Path_16577" data-name="Path 16577" d="M699.824,121.527a.418.418,0,0,1,.426.434.427.427,0,0,1-.854,0A.418.418,0,0,1,699.824,121.527Z" transform="translate(-691.242 -112.873)" fill="#e93941"/>
  </g>
</svg>
