<svg xmlns="http://www.w3.org/2000/svg" width="59.609" height="48.287" viewBox="0 0 59.609 48.287">
  <path id="Icon_awesome-praying-hands" data-name="Icon awesome-praying-hands" d="M24.093-1.5a4.266,4.266,0,0,1,2.194.61A4.32,4.32,0,0,1,28.3,1.978q.02-.1.045-.2A4.3,4.3,0,0,1,30.322-.883a4.266,4.266,0,0,1,2.193-.61h0A4.352,4.352,0,0,1,35.89.128a1.54,1.54,0,0,1,.263.3L46.525,15.986a9.957,9.957,0,0,1,1.678,5.54v6.015l6.946,2.315a4.325,4.325,0,0,1,2.961,4.108v8.491a4.331,4.331,0,0,1-5.42,4.191L36.8,42.514a11.894,11.894,0,0,1-8.5-9.976,11.9,11.9,0,0,1-8.5,9.969l-.035.009L3.921,46.64A4.331,4.331,0,0,1-1.5,42.449V33.958A4.322,4.322,0,0,1,1.462,29.85l6.945-2.315V21.52a9.957,9.957,0,0,1,1.678-5.54L20.456.421a1.541,1.541,0,0,1,.264-.3A4.352,4.352,0,0,1,24.093-1.5Zm-4.28,31.3A2.919,2.919,0,0,1,16.9,26.882V20.111a9.98,9.98,0,0,1,1.425-5.142L25.2,3.508a1.333,1.333,0,0,0-.456-1.826,1.248,1.248,0,0,0-.65-.182,1.352,1.352,0,0,0-1.1.578l-.043.061-.049.056q-.043.05-.091.1L12.581,17.643a6.966,6.966,0,0,0-1.174,3.876V29.7l-9,3a1.327,1.327,0,0,0-.91,1.261v8.492a1.643,1.643,0,0,0,.33.865,1.161,1.161,0,0,0,1,.465,1.33,1.33,0,0,0,.335-.043L19,39.618a8.875,8.875,0,0,0,6.392-8.491V19.805a1.33,1.33,0,1,0-2.661,0v7.076A2.919,2.919,0,0,1,19.813,29.8ZM33.794,2.3a1.548,1.548,0,0,1-.112-.12l-.037-.045-.034-.048a1.352,1.352,0,0,0-1.1-.578h0a1.248,1.248,0,0,0-.65.182,1.331,1.331,0,0,0-.456,1.826l6.877,11.462a9.978,9.978,0,0,1,1.425,5.14V26.89a2.915,2.915,0,1,1-5.83,0V19.813a1.33,1.33,0,0,0-2.661,0V31.135a8.872,8.872,0,0,0,6.392,8.49l15.831,4.119a1.338,1.338,0,0,0,.335.043,1.161,1.161,0,0,0,1-.465,1.643,1.643,0,0,0,.33-.865V33.965A1.329,1.329,0,0,0,54.2,32.7l-9-3V21.527a6.966,6.966,0,0,0-1.174-3.876Zm2.4,15.169a6.96,6.96,0,0,0-.474-.945L28.837,5.059A4.34,4.34,0,0,1,28.3,3.686a4.314,4.314,0,0,1-.53,1.365L20.9,16.514a6.968,6.968,0,0,0-.475.946,4.33,4.33,0,0,1,7.885,1.495,4.33,4.33,0,0,1,7.884-1.486Z" transform="translate(1.5 1.501)" fill="#ff7519"/>
</svg>
