<svg xmlns="http://www.w3.org/2000/svg" width="28.961" height="21.236" viewBox="0 0 28.961 21.236">
  <g id="Group_305" data-name="Group 305" transform="translate(0 0)">
    <path id="Path_16579" data-name="Path 16579" d="M761.265,152.771c-.052.063-.106.126-.157.191-.287.36-.608.329-.817-.081a.515.515,0,0,1,.107-.518c.263-.363.543-.713.8-1.081.338-.485.333-.369,0-.831-.641-.862-1.281-1.725-1.91-2.595a1.635,1.635,0,0,0-1.448-.719c-.744.012-1.489,0-2.233.006-.138,0-.362-.045-.356.161.005.177.22.131.353.132.631.006,1.263,0,1.894,0a2.18,2.18,0,0,1,.282.008.508.508,0,0,1,.44.447.5.5,0,0,1-.358.515,1.374,1.374,0,0,1-.421.033c-1.884,0-3.769-.008-5.653.006a1.818,1.818,0,0,1-1.367-.561c-.472-.474-.943-.949-1.421-1.417-.092-.091-.206-.278-.341-.144s.054.245.141.339c.543.588,1.091,1.17,1.637,1.756a2.533,2.533,0,0,0,1.653.83.558.558,0,0,1,.294.088c.163.125.308.262.182.5a.5.5,0,0,1-.6.34,3.247,3.247,0,0,1-2.025-.937c-.689-.706-1.353-1.437-2.034-2.152-.118-.124-.148-.3-.264-.417V146.1a1.117,1.117,0,0,1,1.184-.793,1.227,1.227,0,0,1,.774.435,2.832,2.832,0,0,1,.044-.308,1.012,1.012,0,0,1,.763-.788,1.074,1.074,0,0,1,1.156.4c.58.741,1.154,1.486,1.73,2.23a1.082,1.082,0,0,0,.912.229c.086-.041.047-.113.05-.172a1.071,1.071,0,0,1,1.173-1.118c.829,0,1.658.007,2.487,0a2.422,2.422,0,0,1,2.115,1.076c.631.879,1.283,1.742,1.915,2.619.133.185.2.2.339,0,.626-.871,1.276-1.723,1.9-2.6a2.447,2.447,0,0,1,2.159-1.1c.829.013,1.658,0,2.487,0a1.065,1.065,0,0,1,1.143,1.116c0,.128.019.2.166.176a.08.08,0,0,1,.028,0,.875.875,0,0,0,.955-.445c.466-.672.992-1.3,1.5-1.947a1.133,1.133,0,0,1,1.235-.472,1.118,1.118,0,0,1,.777,1.088,1.234,1.234,0,0,1,.918-.432,1.016,1.016,0,0,1,.941.6.981.981,0,0,1-.119,1.111c-.332.4-.7.766-1.057,1.139a.424.424,0,0,1-.588.035.415.415,0,0,1-.051-.691c.224-.242.429-.5.663-.733a1.837,1.837,0,0,0,.157-.163c.067-.085.193-.181.088-.288s-.207.015-.284.09c-.464.455-.927.911-1.379,1.378a2.042,2.042,0,0,1-1.583.663c-1.827-.026-3.653-.009-5.48-.009a3.294,3.294,0,0,1-.339-.006.511.511,0,0,1-.5-.51.5.5,0,0,1,.524-.481c.687-.012,1.375,0,2.062,0a.826.826,0,0,0,.307-.03.13.13,0,0,0,.091-.1c.011-.068-.035-.1-.087-.128a.62.62,0,0,0-.277-.04c-.791,0-1.582-.006-2.373,0a1.5,1.5,0,0,0-1.256.645q-1.4,1.884-2.779,3.776c-.245.334-.5.661-.734,1A.583.583,0,0,1,761.265,152.771Z" transform="translate(-747.644 -131.98)" fill="#040505"/>
    <path id="Path_16580" data-name="Path 16580" d="M794.569,83.97c.352-.126.488-.082.684.226a5.566,5.566,0,0,1,.7,1.59c.054.206.105.233.294.146a5.476,5.476,0,0,1,2.238-.494,1.529,1.529,0,0,1,1.6,1.62,5.625,5.625,0,0,1-1.174,3.372c-.158.2-.222.324.067.462a2.483,2.483,0,0,1,.637.509,1.233,1.233,0,0,1-.021,1.829,4.362,4.362,0,0,1-6.022.03c-.316-.3-.316-.3-.627-.006a4.352,4.352,0,0,1-5.939.059,1.247,1.247,0,0,1-.014-2,3.523,3.523,0,0,1,.675-.508c.126-.071.126-.122.039-.229a5.907,5.907,0,0,1-1.269-3.2,1.61,1.61,0,0,1,1.863-1.934,5.613,5.613,0,0,1,1.982.494c.182.087.223.04.273-.143a5.957,5.957,0,0,1,1.553-2.673,1.539,1.539,0,0,1,1.605-.414c.379.108.466.3.339.682a.324.324,0,0,1-.425.229c-.557-.161-.89.137-1.2.526a5.254,5.254,0,0,0-.068,6.508,8.866,8.866,0,0,0,.745.771.184.184,0,0,0,.293,0,5.266,5.266,0,0,0,1.052-6.759C794.258,84.345,794.3,84.156,794.569,83.97Z" transform="translate(-778.782 -82.22)" fill="#040505"/>
    <path id="Path_16581" data-name="Path 16581" d="M816.766,159.08q.986-1.357,1.972-2.713c.56-.767,1.131-1.526,1.687-2.3a1.557,1.557,0,0,1,1.345-.688c.829,0,1.658,0,2.487,0,.166,0,.358,0,.362.213,0,.236-.2.232-.373.228-.085,0-.17,0-.255,0q-.947,0-1.894,0c-.334,0-.519.15-.521.417s.186.431.511.431q3.01,0,6.02,0a1.488,1.488,0,0,0,1.081-.47q.762-.757,1.525-1.513c.047-.046.092-.095.14-.14a.207.207,0,0,1,.322-.015c.114.113.073.225-.018.323-.287.311-.579.619-.869.928a.465.465,0,0,0-.064.717,2.434,2.434,0,0,0-.561.609c-.377-.138-.647.08-.936.266a3.347,3.347,0,0,1-1.517.383c-1.046.116-2.09.241-3.135.366a2.579,2.579,0,0,0-1.676.9c-.588.671-1.228,1.3-1.766,2.011a.154.154,0,0,1-.07.045Z" transform="translate(-803.145 -138.288)" fill="#fdb991"/>
    <path id="Path_16582" data-name="Path 16582" d="M756.014,156.131c-.052-.375-.147-.468-.51-.511a2.532,2.532,0,0,1-1.61-.785q-.908-.968-1.818-1.935c-.108-.115-.216-.238-.056-.383s.272-.017.38.091c.508.5,1.023,1,1.522,1.515a1.714,1.714,0,0,0,1.308.544c1.921-.012,3.842,0,5.763,0,.047,0,.094,0,.141,0,.3-.01.481-.179.475-.439a.419.419,0,0,0-.472-.409c-.715,0-1.431,0-2.147,0a1.722,1.722,0,0,1-.226,0,.214.214,0,0,1-.2-.2c-.01-.134.081-.2.2-.228a.863.863,0,0,1,.169-.006c.838,0,1.676,0,2.514,0a1.427,1.427,0,0,1,1.208.56c.7.934,1.377,1.878,2.065,2.818.057.091,0,.16-.046.229q-.711.991-1.445,1.964a.54.54,0,0,1-.149.126l-.459,0c-.158-.03-.156-.2-.24-.289-.562-.634-1.122-1.269-1.706-1.883a2.655,2.655,0,0,0-1.784-.811c-.375-.03-.749-.077-1.121-.133-.393-.059-.737-.079-.868.4-.113-.28-.389-.141-.581-.217A.9.9,0,0,0,756.014,156.131Z" transform="translate(-751.092 -138.279)" fill="#fdb991"/>
    <path id="Path_16583" data-name="Path 16583" d="M813.938,87.046a.514.514,0,0,0-.039.687,5.278,5.278,0,0,1-.778,6.545c-.5.507-.5.507-.984.009a5.259,5.259,0,0,1-.411-7.089c.1-.133.229-.25.34-.377a.7.7,0,0,1,.768-.22.532.532,0,0,0,.588-.135A3.81,3.81,0,0,1,813.938,87.046Z" transform="translate(-798.151 -85.296)" fill="#ee686e"/>
    <path id="Path_16584" data-name="Path 16584" d="M836.038,169.31a1.089,1.089,0,0,1,.241-.4c.521-.569,1.04-1.139,1.549-1.719a2.806,2.806,0,0,1,1.894-.931c1.231-.138,2.461-.292,3.691-.445a2.074,2.074,0,0,0,1.043-.46.479.479,0,0,1,.682-.011c.161.335.128.471-.165.7a4.076,4.076,0,0,1-2.186.728c-1.075.113-2.147.253-3.221.382a1.711,1.711,0,0,0-1.088.594q-.823.913-1.647,1.825a.4.4,0,0,1-.476.149A.43.43,0,0,1,836.038,169.31Z" transform="translate(-818.62 -148.517)" fill="#050605"/>
    <path id="Path_16585" data-name="Path 16585" d="M777.129,170.191c.022-.412.152-.544.56-.5.644.064,1.289.127,1.926.238a2.428,2.428,0,0,1,1.39.8c.53.585,1.053,1.176,1.585,1.759a1.107,1.107,0,0,1,.258.425c-.2.526-.5.584-.877.166-.5-.556-1.013-1.109-1.5-1.677a2.021,2.021,0,0,0-1.395-.7c-.513-.051-1.025-.113-1.537-.173A.454.454,0,0,1,777.129,170.191Z" transform="translate(-771.319 -152.113)" fill="#050605"/>
    <path id="Path_16586" data-name="Path 16586" d="M852.3,82.781a.474.474,0,0,1-.437-.3.391.391,0,0,1,.142-.475c.45-.37.906-.733,1.36-1.1.117-.094.232-.192.354-.279a.4.4,0,0,1,.576.068.391.391,0,0,1-.035.579c-.577.482-1.167.949-1.755,1.416A.79.79,0,0,1,852.3,82.781Z" transform="translate(-831.304 -80.533)" fill="#050606"/>
    <path id="Path_16587" data-name="Path 16587" d="M779.878,82.329a.457.457,0,0,1-.239.386.4.4,0,0,1-.471-.052q-.694-.554-1.386-1.111c-.11-.088-.224-.172-.326-.269a.408.408,0,0,1-.055-.58.394.394,0,0,1,.573-.086c.593.461,1.175.938,1.759,1.411A.446.446,0,0,1,779.878,82.329Z" transform="translate(-771.459 -80.529)" fill="#050606"/>
    <path id="Path_16588" data-name="Path 16588" d="M768.379,100.328c-.444-.115-.934-.241-1.423-.37-.236-.062-.472-.122-.7-.2a.418.418,0,0,1-.307-.545.427.427,0,0,1,.542-.271c.68.175,1.361.351,2.039.534a.419.419,0,0,1,.353.52C768.829,100.239,768.666,100.34,768.379,100.328Z" transform="translate(-762.322 -95.303)" fill="#050606"/>
    <path id="Path_16589" data-name="Path 16589" d="M862.99,117.435l1.45.362c.209.052.418.1.626.162a.453.453,0,0,1,.377.537.429.429,0,0,1-.553.3q-1.053-.25-2.1-.531a.408.408,0,0,1-.316-.472C862.5,117.569,862.7,117.424,862.99,117.435Z" transform="translate(-839.844 -110.162)" fill="#050606"/>
    <path id="Path_16590" data-name="Path 16590" d="M861.718,100.3c-.308-.012-.458-.117-.5-.344a.421.421,0,0,1,.335-.509c.515-.14,1.033-.27,1.55-.4.19-.05.378-.115.571-.15a.4.4,0,0,1,.471.271.374.374,0,0,1-.2.523C863.181,99.917,862.409,100.113,861.718,100.3Z" transform="translate(-838.829 -95.267)" fill="#050606"/>
    <path id="Path_16591" data-name="Path 16591" d="M767.56,117.859a.44.44,0,0,1-.344.413c-.689.18-1.379.357-2.072.521a.429.429,0,0,1-.564-.322.448.448,0,0,1,.374-.514c.662-.173,1.324-.345,1.989-.508A.453.453,0,0,1,767.56,117.859Z" transform="translate(-761.236 -110.158)" fill="#050606"/>
    <path id="Path_16592" data-name="Path 16592" d="M808.481,176.592c.426-.587.857-1.171,1.277-1.762a2.339,2.339,0,0,0,.362-.557c.327.395.326.395.026.8-.284.386-.564.776-.853,1.159a.632.632,0,0,0-.155.467C808.948,176.493,808.7,176.639,808.481,176.592Z" transform="translate(-796.493 -155.801)" fill="#d18e69"/>
    <path id="Path_16593" data-name="Path 16593" d="M763.126,150.745l-1.055-1.348c-.1-.123-.148-.259,0-.367s.265-.024.359.1q.6.779,1.193,1.559C763.481,150.911,763.3,150.831,763.126,150.745Z" transform="translate(-759.154 -135.492)" fill="#d18e69"/>
    <path id="Path_16594" data-name="Path 16594" d="M871.869,150.682l1.175-1.536c.1-.128.218-.237.376-.12s.084.26-.017.389q-.521.661-1.037,1.326C872.188,150.827,872.01,150.908,871.869,150.682Z" transform="translate(-847.39 -135.489)" fill="#d18e69"/>
    <path id="Path_16595" data-name="Path 16595" d="M767.8,157.693c.165-.024.342.06.5-.059l.25.3C768.094,158.039,768.024,158.016,767.8,157.693Z" transform="translate(-763.83 -142.44)" fill="#efbbad"/>
    <path id="Path_16596" data-name="Path 16596" d="M870.868,157.634c.154.118.332.034.5.059-.139.357-.436.292-.742.269A1.157,1.157,0,0,1,870.868,157.634Z" transform="translate(-846.389 -142.44)" fill="#efbbad"/>
    <path id="Path_16597" data-name="Path 16597" d="M826.445,106.754a6.192,6.192,0,0,0,1.739-3.2,5.029,5.029,0,0,0,.11-1.567.21.21,0,0,1,.128-.245,5.012,5.012,0,0,1,2.242-.556.675.675,0,0,1,.7.746,4.939,4.939,0,0,1-4.244,4.788A2.279,2.279,0,0,1,826.445,106.754Z" transform="translate(-810.917 -97.118)" fill="#e93941"/>
    <path id="Path_16598" data-name="Path 16598" d="M795.657,106.767a4.926,4.926,0,0,1-4.78-3.96,7.527,7.527,0,0,1-.094-.838.681.681,0,0,1,.747-.782,4.958,4.958,0,0,1,2.159.544c.109.057.168.1.16.25a6.047,6.047,0,0,0,1.641,4.55c.057.062.115.125.171.188C795.664,106.724,795.66,106.736,795.657,106.767Z" transform="translate(-782.281 -97.116)" fill="#e93941"/>
    <path id="Path_16599" data-name="Path 16599" d="M826.227,128.46a6,6,0,0,0,3.4-1.088c.469-.331.483-.329.951.022a3.8,3.8,0,0,1,.387.327.381.381,0,0,1,0,.612,3.4,3.4,0,0,1-2.3.976A3.477,3.477,0,0,1,826.227,128.46Z" transform="translate(-810.742 -117.945)" fill="#e93941"/>
    <path id="Path_16600" data-name="Path 16600" d="M796.013,128.337a3.431,3.431,0,0,1-4.742-.151.358.358,0,0,1,0-.548,3.494,3.494,0,0,1,.835-.616c.136-.078.21-.009.3.061a5.707,5.707,0,0,0,2.584,1.164A4.835,4.835,0,0,0,796.013,128.337Z" transform="translate(-782.573 -117.832)" fill="#e93941"/>
  </g>
</svg>
