<svg id="Group_77" data-name="Group 77" xmlns="http://www.w3.org/2000/svg" width="20.021" height="23.434" viewBox="0 0 20.021 23.434">
  <path id="Path_16038" data-name="Path 16038" d="M874.323,430.489v17.558h13.654c0-.047.007-.094.007-.141,0-.822,0-1.645,0-2.469a.36.36,0,0,0-.092-.223c-.689-.7-1.386-1.394-2.081-2.089a.507.507,0,0,1,0-.835c.088-.088.178-.176.258-.255l-1.049-1.051a5.3,5.3,0,0,1-4.513,1.107A5.2,5.2,0,0,1,877.25,440a5.372,5.372,0,1,1,8.491.257l1.051,1.042.251-.245a.51.51,0,0,1,.828-.006l.112.1v-.191q0-3.667,0-7.334a.518.518,0,0,1,.2-.455.483.483,0,0,1,.766.339,1.507,1.507,0,0,1,.006.159q0,4.147,0,8.293a.389.389,0,0,0,.127.3c.706.7,1.4,1.4,2.107,2.1a.507.507,0,0,1,0,.826q-.632.632-1.262,1.263a.5.5,0,0,1-.8,0,.587.587,0,0,0-.174-.137v.234q0,2.919,0,5.837a.477.477,0,0,1-.133.4,1.241,1.241,0,0,1-.317.154.371.371,0,0,1-.129.006q-7.494,0-14.986,0a1.974,1.974,0,0,1-1.946-1.474,2.306,2.306,0,0,1-.064-.532q-.005-4.08,0-8.16c0-.33.167-.545.436-.568a.474.474,0,0,1,.541.485c0,.493,0,.987,0,1.482v4.1l.972-.262V430.508a.947.947,0,0,0-.944.747,1.471,1.471,0,0,0-.026.288q0,3.594,0,7.188a.487.487,0,0,1-.373.532.478.478,0,0,1-.586-.356,1.056,1.056,0,0,1-.021-.23q0-3.566,0-7.131a1.949,1.949,0,0,1,1.637-2,2.109,2.109,0,0,1,.376-.024q7.325,0,14.65-.006a.5.5,0,0,1,.553.566.478.478,0,0,1-.44.41c-.1,0-.193,0-.29,0H874.323Zm7.277,1.961a4.39,4.39,0,1,0,4.381,4.468A4.377,4.377,0,0,0,881.6,432.45Zm6.376,18.541H874.456c-.052,0-.1,0-.159,0a.477.477,0,0,1-.455-.375.47.47,0,0,1,.258-.545.819.819,0,0,1,.309-.051q6.693,0,13.388,0c.06,0,.12-.008.176-.009v-.967h-9.357q-2.63,0-5.256,0a.933.933,0,0,0-.972.817,8.9,8.9,0,0,0-.023,1.071.984.984,0,0,0,1.036,1.04q7.21,0,14.418,0c.051,0,.1,0,.157-.006Zm-1.18-8.3,2.729,2.729.641-.637-2.725-2.731Z" transform="translate(-871.382 -429.513)" fill="#ff5151"/>
  <path id="Path_16039" data-name="Path 16039" d="M878.279,438.567c-1.128,0-2.253,0-3.381,0a.487.487,0,0,1-.1-.967c.043,0,.088,0,.131,0,2.239,0,4.479,0,6.717-.006a.5.5,0,0,1,.526.633.489.489,0,0,1-.5.343Z" transform="translate(-868.762 -422.459)" fill="#ff5151"/>
  <path id="Path_16040" data-name="Path 16040" d="M871.877,436.226a.491.491,0,0,1-.493-.485.489.489,0,1,1,.978-.006A.482.482,0,0,1,871.877,436.226Z" transform="translate(-871.381 -424.509)" fill="#ff5151"/>
  <path id="Path_16041" data-name="Path 16041" d="M880.245,430.861a.487.487,0,1,1,.974,0,.487.487,0,1,1-.974,0Z" transform="translate(-863.643 -428.763)" fill="#ff5151"/>
</svg>
