<svg id="cau_hoi" data-name="cau hoi" xmlns="http://www.w3.org/2000/svg" xmlns:xlink="http://www.w3.org/1999/xlink" width="20.478" height="22.593" viewBox="0 0 20.478 22.593">
  <defs>
    <clipPath id="clip-path">
      <rect id="Rectangle_241" data-name="Rectangle 241" width="20.478" height="22.593" fill="none"/>
    </clipPath>
  </defs>
  <g id="Group_393" data-name="Group 393" clip-path="url(#clip-path)">
    <path id="Path_17082" data-name="Path 17082" d="M5.995,22.593a3.729,3.729,0,0,1-.934-.4A2.31,2.31,0,0,1,4.1,20.767a.222.222,0,0,0-.207-.207,4.735,4.735,0,0,1-.222-9.274,4.035,4.035,0,0,1,.958-.119c1.617,0,3.235,0,4.852,0,.182,0,.242-.039.226-.225a4.4,4.4,0,0,1,0-.639c.008-.132-.04-.174-.165-.2a3.194,3.194,0,0,1-2.68-2.491,3.87,3.87,0,0,1,.113-1.977c.144-.567.331-1.121.529-1.672a.359.359,0,0,1,.45-.282.334.334,0,0,1,.247.485c-.119.369-.255.732-.367,1.1a8.085,8.085,0,0,0-.306,1.348,2.426,2.426,0,0,0,.694,2.028c.048.041.076.1.142.133,0-.168,0-.331,0-.5a5.739,5.739,0,0,1,.856-2.566.9.9,0,0,1,1.619-.034,4.245,4.245,0,0,1,.589,1.249c.027.084.048.169.076.253a4.861,4.861,0,0,1,.23,1.537,2.285,2.285,0,0,0,.825-1.6,6.254,6.254,0,0,0-.439-2.236,18.088,18.088,0,0,0-1.245-2.94,4.4,4.4,0,0,0-.748-1.11c-.066-.086-.126-.072-.2,0a3.026,3.026,0,0,0-.413.537c-.283.453-.514.935-.753,1.411a.535.535,0,0,1-.184.241c-.114.07-.228.106-.334-.014a.327.327,0,0,1-.163-.449A9.037,9.037,0,0,1,9.321.427a1.04,1.04,0,0,1,.6-.417.826.826,0,0,1,.749.339A6.123,6.123,0,0,1,11.6,1.782,18.954,18.954,0,0,1,13.161,5.9a3.332,3.332,0,0,1-.46,2.874,3.153,3.153,0,0,1-2.14,1.335c-.138.022-.205.062-.195.218a4.588,4.588,0,0,1,0,.639c-.011.162.033.209.2.208,1.029-.009,2.058,0,3.087,0,.72,0,1.441,0,2.161,0a4.571,4.571,0,0,1,1.236.183c.255.07.322.172.316.449a.342.342,0,0,1-.442.272,3.849,3.849,0,0,0-.491-.107,4.8,4.8,0,0,0-.832-.076c-3.616,0-7.232-.016-10.848.01a3.925,3.925,0,0,0-3.682,2.365.062.062,0,0,0,0,.053,2.1,2.1,0,0,0,.341-.305,1.657,1.657,0,0,1,2.376-.037c.119.11.225.232.348.338a.9.9,0,0,0,1.338-.041,3.323,3.323,0,0,1,.622-.524A1.691,1.691,0,0,1,8.186,14c.114.1.217.22.331.324a.887.887,0,0,0,1.154.079,2.837,2.837,0,0,0,.391-.355,1.665,1.665,0,0,1,2.5,0,5.265,5.265,0,0,0,.4.346.845.845,0,0,0,1.094-.028c.141-.128.292-.246.43-.379a1.661,1.661,0,0,1,2.378,0c.1.1.2.2.3.3a.918.918,0,0,0,1.4-.036,2.678,2.678,0,0,1,.405-.372c.13-.084.127-.171.044-.292a6.418,6.418,0,0,0-.745-.81.409.409,0,0,1-.148-.329c.007-.084.023-.161.115-.195.228-.164.327-.165.542.026A4.545,4.545,0,0,1,20.3,17.1a4.553,4.553,0,0,1-3.754,3.463.193.193,0,0,0-.176.161,2.287,2.287,0,0,1-1.922,1.839c-.01,0-.018.02-.027.031Z" transform="translate(0 0)" fill="#050605"/>
    <path id="Path_17083" data-name="Path 17083" d="M30.137,5.05c.256.054.362,0,.481-.253a10.5,10.5,0,0,1,.941-1.7c.076-.107.169-.2.254-.3s.156-.089.221.02a16.031,16.031,0,0,1,1.66,4.415A2.949,2.949,0,0,1,33.544,9c-.037.093-.044.225-.193.231a9.8,9.8,0,0,0-.426-1.077,2.248,2.248,0,0,0-.446-.623.75.75,0,0,0-1.086-.011,2.338,2.338,0,0,0-.572.876,6.974,6.974,0,0,0-.521,1.943.977.977,0,0,0-.009.255c.006.165-.062.208-.208.136a2.428,2.428,0,0,1-.718-2.118,11.5,11.5,0,0,1,.651-2.358c.1-.282.07-.373-.171-.533l.291-.67" transform="translate(-21.892 -2.032)" fill="#ffe267"/>
    <path id="Path_17084" data-name="Path 17084" d="M66.5,46.917a.347.347,0,0,0,.094.517,4.584,4.584,0,0,1,.779.859c.067.1.1.157-.031.238a4.418,4.418,0,0,0-.569.513.94.94,0,0,1-1.352-.033,4.219,4.219,0,0,0-.658-2.21c-.04-.066-.106-.13-.049-.22a1.061,1.061,0,0,1,.405.081.389.389,0,0,0,.516-.2l.866.452" transform="translate(-48.269 -34.668)" fill="#e93941"/>
    <path id="Path_17085" data-name="Path 17085" d="M17.68,59.513a.878.878,0,0,1-.741-.259c-.15-.141-.3-.287-.451-.422a1.6,1.6,0,0,0-2.114,0c-.161.139-.31.293-.468.435a.941.941,0,0,1-1.314,0c-.158-.143-.3-.3-.467-.436a1.6,1.6,0,0,0-2.18.073c-.119.11-.23.228-.349.337a.956.956,0,0,1-1.383,0c-.126-.113-.241-.237-.366-.352a1.6,1.6,0,0,0-2.164-.063,2.36,2.36,0,0,0-.291.269,1.025,1.025,0,0,1-1.669.013,1.419,1.419,0,0,0-.7-.521c-.371-.079-.418-.317-.426-.613,0-.125-.008-.25-.006-.375.005-.3,0-.565.415-.646.35-.069.578-.387.828-.634a.971.971,0,0,1,.966-.279,1.087,1.087,0,0,1,.481.3,6.079,6.079,0,0,0,.471.431A1.581,1.581,0,0,0,7.78,56.7c.151-.129.29-.27.436-.4a.949.949,0,0,1,1.362-.008c.136.124.264.255.4.377a1.6,1.6,0,0,0,2.213-.015c.12-.109.231-.227.349-.337a.968.968,0,0,1,1.43.012,6.261,6.261,0,0,0,.488.445,1.577,1.577,0,0,0,1.957-.019c.166-.132.317-.284.471-.431A.959.959,0,0,1,18.3,56.3a4.4,4.4,0,0,0,.792.655c.077.116.016.231-.011.34a4.56,4.56,0,0,1-1.16,2.073.519.519,0,0,1-.243.144" transform="translate(-1.935 -41.78)" fill="#f9c7cd"/>
    <path id="Path_17086" data-name="Path 17086" d="M19.22,46.67a8.165,8.165,0,0,1,.5.993,3.637,3.637,0,0,1,.254,1.232c0,.07.024.148-.044.2-.174-.156-.339-.326-.525-.467a1.583,1.583,0,0,0-2.009.066c-.168.143-.321.3-.486.448a.933.933,0,0,1-1.279.007c-.15-.13-.288-.273-.435-.406a1.605,1.605,0,0,0-2.214,0c-.125.113-.241.237-.366.351a.962.962,0,0,1-1.413-.014c-.138-.132-.272-.269-.42-.389a1.588,1.588,0,0,0-2.112.02c-.157.133-.3.284-.45.422a.936.936,0,0,1-1.263.039c-.137-.111-.258-.24-.386-.362A1.617,1.617,0,0,0,4.225,48.8a2.432,2.432,0,0,1-.51.425,3.837,3.837,0,0,1,1.21-1.714,4.056,4.056,0,0,1,2.642-.927q5.435,0,10.871,0a2.716,2.716,0,0,1,.782.087" transform="translate(-2.772 -34.756)" fill="#ee686e"/>
    <path id="Path_17087" data-name="Path 17087" d="M20.646,69.145a1.664,1.664,0,0,0,1.951-.407c.088-.089.178-.176.271-.259a.942.942,0,0,1,1.315-.015c.189.162.362.344.553.5.092.077.036.124-.006.181a4.082,4.082,0,0,1-2.567,1.642,2.529,2.529,0,0,1-.522.006c-3.813,0-7.626-.009-11.438.006A3.67,3.67,0,0,1,7.626,69.73c.12-.1.266-.068.4-.068q5.181,0,10.363,0a4.573,4.573,0,0,0,1.988-.417,1.435,1.435,0,0,1,.267-.1" transform="translate(-5.69 -50.887)" fill="#e93941"/>
    <path id="Path_17088" data-name="Path 17088" d="M18,69.14c-.127.186-.348.21-.531.287a3.718,3.718,0,0,1-1.451.3q-5.519,0-11.038,0a3.361,3.361,0,0,1-.9-1.308c.185.169.363.345.556.5A1.586,1.586,0,0,0,6.716,68.9c.15-.129.29-.271.436-.405a.953.953,0,0,1,1.365-.009c.164.148.313.313.485.449a1.6,1.6,0,0,0,2.114-.073c.115-.1.222-.215.334-.321a.964.964,0,0,1,1.463-.01,4.827,4.827,0,0,0,.542.484,1.592,1.592,0,0,0,1.889-.054c.184-.145.347-.317.52-.476a.95.95,0,0,1,1.348,0,4.333,4.333,0,0,0,.791.66" transform="translate(-3.045 -50.882)" fill="#ee686e"/>
    <path id="Path_17089" data-name="Path 17089" d="M29.353,83.561a1.47,1.47,0,0,1-.659.142c-2.562,0-5.124.005-7.685,0a1.574,1.574,0,0,1-1.408-.785c0-.1.09-.1.158-.112a1.636,1.636,0,0,1,.264-.008h8.4a1.326,1.326,0,0,1,.521.064.607.607,0,0,1,.412.7" transform="translate(-14.624 -61.773)" fill="#f9c7cd"/>
    <path id="Path_17090" data-name="Path 17090" d="M62.012,60.04A4.348,4.348,0,0,0,63.2,58.327a4.051,4.051,0,0,0,.228-.843,1.69,1.69,0,0,0,1.975-.475c.03-.032.063-.062.1-.092.322-.289.266-.3.391.1a4.074,4.074,0,0,1-.083,2.652c-.069.193-.139.183-.259.053-.084-.092-.175-.178-.266-.264a1.618,1.618,0,0,0-2.313-.022c-.12.108-.23.227-.349.337a.866.866,0,0,1-.6.271" transform="translate(-46.267 -42.307)" fill="#f6b5bc"/>
    <path id="Path_17091" data-name="Path 17091" d="M28.769,82.4a.691.691,0,0,0-.748-.7q-4.389,0-8.779,0c-.077,0-.164-.029-.226.049-.112-.138-.24-.319-.186-.463.038-.1.279-.033.429-.034q5.12,0,10.241,0c.268,0,.27,0,.16.255a1.6,1.6,0,0,1-.892.889" transform="translate(-14.04 -60.607)" fill="#f6b5bc"/>
    <path id="Path_17092" data-name="Path 17092" d="M41.262,9.488a2.431,2.431,0,0,0,.336-1.62,15.768,15.768,0,0,0-1.552-4.533.591.591,0,0,1-.1-.264A4.615,4.615,0,0,1,40.8,4.364,17.752,17.752,0,0,1,42.35,8.506a2.573,2.573,0,0,1-.9,2.694,4.486,4.486,0,0,0-.185-1.712" transform="translate(-29.803 -2.291)" fill="#ffd616"/>
    <path id="Path_17093" data-name="Path 17093" d="M35.771,26.187a4.214,4.214,0,0,1,.325-1.8,2.728,2.728,0,0,1,.419-.84c.172-.219.248-.22.412.01a4.7,4.7,0,0,1,.64,1.6c.02.077.027.157.04.236a.488.488,0,0,1-.158.206,3.14,3.14,0,0,1-1.386.626.334.334,0,0,1-.294-.038" transform="translate(-26.678 -17.448)" fill="#fda869"/>
    <path id="Path_17094" data-name="Path 17094" d="M35.812,32.087a2.883,2.883,0,0,0,1.837-.793,1.808,1.808,0,0,1,.079.673.973.973,0,0,1-1.916.12" transform="translate(-26.719 -23.349)" fill="#fa9549"/>
    <path id="Path_17095" data-name="Path 17095" d="M32.264,33.1c.143.022.2-.037.185-.182a.258.258,0,0,1,.032-.209v.6a.751.751,0,0,1-.217-.207" transform="translate(-24.072 -24.404)" fill="#edc21e"/>
  </g>
</svg>
