<svg xmlns="http://www.w3.org/2000/svg" width="17.049" height="21.165" viewBox="0 0 17.049 21.165">
  <g id="ic_refuge_steps" transform="translate(0 0)">
    <path id="Path_16264" data-name="Path 16264" d="M395.274,194.3c-.1.813-.174,1.561.79,2.016.494.233.468.856.283,1.349a7.109,7.109,0,0,0-.358,4.026c.154.745-.042,1.279-.954,1.073-.434-.1-.45.17-.537.437a5.438,5.438,0,0,1-2.434,2.961c-.915.568-1.941.908-2.839,1.547a2.8,2.8,0,0,1-3.2-.411,2.652,2.652,0,0,0-.881-.491,5.9,5.9,0,0,1-3.758-3.622c-.11-.324-.19-.523-.638-.419-.7.161-1.009-.247-.873-.907a7.954,7.954,0,0,0-.376-4.4,1.081,1.081,0,0,1,.6-1.415c.563-.255.594-.621.544-1.108-.026-.247-.022-.5-.025-.747a4.451,4.451,0,0,1,3.858-4.913,3.328,3.328,0,0,0,2.4-1.664c.558-1.016,1.607-.958,2.187.08a3.121,3.121,0,0,0,2.157,1.568C393.341,189.754,395.54,191.013,395.274,194.3Zm-1.2,7.055c-.088-.884-.372-1.938-.432-3.029a6.107,6.107,0,0,0-.382-1.628c-.775-2.233-2.519-2.833-4.445-1.46a1.284,1.284,0,0,1-1.765-.015c-1.967-1.354-3.557-.819-4.4,1.406a6.142,6.142,0,0,0-.315,1.165c-.157.948-.239,1.909-.43,2.849a4.671,4.671,0,0,0,.07,2.122,4.352,4.352,0,0,0,3.9,3.215c.222.016.29.148.385.326a1.927,1.927,0,0,0,3.037.527,2.045,2.045,0,0,1,1.435-.812C392.56,205.642,394.07,203.491,394.075,201.351Zm-2.925-11.335c.366,1.441.038,2.087-1.255,2.639a5.1,5.1,0,0,1-3.378.179c-1.677-.439-2.142-1.172-1.841-2.805a4.078,4.078,0,0,0-3.292,5.587.8.8,0,0,0,.561.442c.256.09.246-.213.33-.344,1.352-2.1,2.928-2.493,5.03-1.162a1.025,1.025,0,0,0,1.3-.028c2.051-1.3,3.682-.9,4.973,1.147.1.154.092.5.4.39a.725.725,0,0,0,.518-.475A4.119,4.119,0,0,0,391.15,190.016Zm-4.6-.915a3.187,3.187,0,0,0-1.161,1.3.971.971,0,0,0,.3,1.315,4.432,4.432,0,0,0,4.572-.05.92.92,0,0,0,.284-1.159,3.118,3.118,0,0,0-1.2-1.385c-.029-.019-.145.084-.215.138C387.821,190.253,387.657,190.243,386.548,189.1Zm-5.8,10.972c-.064.554-.124,1.108-.195,1.661-.016.125-.057.273.1.3a.472.472,0,0,0,.322-.123c.184-.152.167-.385.2-.6.173-1.29.333-2.582.541-3.866a.789.789,0,0,0-.327-.884.817.817,0,0,0-.96.072.658.658,0,0,0-.207.9A7.422,7.422,0,0,1,380.751,200.073Zm14.639,2.02a8.066,8.066,0,0,1,.344-4.819c.117-.3-.123-.528-.377-.671a.8.8,0,0,0-.88.009.757.757,0,0,0-.321.806c.2,1.312.386,2.626.559,3.942C394.762,201.716,394.8,202.038,395.391,202.093Zm-7.513-12.834a.639.639,0,0,0,.724-.707c-.01-.433-.167-.944-.69-.926-.452.015-.6.5-.625.9A.623.623,0,0,0,387.877,189.259Z" transform="translate(-379.42 -186.882)" fill="#1a1818"/>
    <path id="Path_16265" data-name="Path 16265" d="M404.49,234.409c-.005,2.14-1.515,4.291-3.347,4.666a2.045,2.045,0,0,0-1.435.812,1.927,1.927,0,0,1-3.037-.527c-.095-.178-.163-.31-.385-.326a4.351,4.351,0,0,1-3.9-3.215,4.671,4.671,0,0,1-.07-2.122c.191-.94.273-1.9.43-2.849a6.146,6.146,0,0,1,.315-1.165c.845-2.226,2.434-2.76,4.4-1.406a1.284,1.284,0,0,0,1.765.015c1.926-1.373,3.67-.773,4.445,1.46a6.107,6.107,0,0,1,.382,1.628C404.118,232.47,404.4,233.525,404.49,234.409Zm-5.788-.637c0,.311.024.624-.006.932-.033.343.2.811-.277.979a1.027,1.027,0,0,1-1-.372c-.2-.187-.353-.536-.645-.224-.261.278-.064.58.174.808a2.115,2.115,0,0,0,2.665.006c.229-.212.4-.555.2-.737-.874-.812-.362-1.789-.371-2.688a1.8,1.8,0,0,1,1.222-1.812,2.157,2.157,0,0,1,2.328.485c.2.185.385.529.672.252.318-.306-.024-.565-.222-.776a2.76,2.76,0,0,0-4.491.846A6.022,6.022,0,0,0,398.7,233.772Zm-.424,3.12c-.638-.027-1.55.011-1.534.81.013.657.908.953,1.622.951s1.581-.288,1.6-.976c.017-.728-.851-.816-1.528-.786C398.4,236.893,398.373,236.892,398.277,236.892Zm-2.739-7.082a2.83,2.83,0,0,0-2.146,1.057.409.409,0,0,0-.048.513.31.31,0,0,0,.489.023,2.218,2.218,0,0,1,3.219-.349c.189.119.417.195.549-.077.117-.242-.035-.42-.222-.545A3.6,3.6,0,0,0,395.538,229.81Zm.082,3.739a2.244,2.244,0,0,0,1.52-.677.364.364,0,0,0,.113-.495c-.155-.254-.38-.191-.549-.035a1.4,1.4,0,0,1-2.134.019c-.171-.157-.372-.249-.553-.005s-.033.414.144.552A2.069,2.069,0,0,0,395.62,233.548Zm5.82,0a2.025,2.025,0,0,0,1.456-.649c.178-.151.282-.356.109-.568a.321.321,0,0,0-.492-.014,1.421,1.421,0,0,1-2.2.01.305.305,0,0,0-.484.008c-.19.22-.09.407.1.557A2.172,2.172,0,0,0,401.441,233.548Z" transform="translate(-389.835 -219.939)" fill="#ffe6cf"/>
    <path id="Path_16266" data-name="Path 16266" d="M398.414,203.647a4.119,4.119,0,0,1,3.354,5.569.725.725,0,0,1-.518.475c-.312.113-.306-.236-.4-.39-1.29-2.045-2.922-2.448-4.973-1.147a1.025,1.025,0,0,1-1.3.028c-2.1-1.331-3.678-.941-5.03,1.162-.084.131-.074.435-.33.344a.8.8,0,0,1-.561-.442,4.078,4.078,0,0,1,3.292-5.587c-.3,1.633.163,2.366,1.841,2.805a5.1,5.1,0,0,0,3.378-.179C398.452,205.734,398.78,205.088,398.414,203.647Z" transform="translate(-386.684 -200.513)" fill="#ffbc00"/>
    <path id="Path_16267" data-name="Path 16267" d="M411.906,198.754c1.108,1.142,1.272,1.151,2.581.156.07-.053.186-.157.215-.138a3.119,3.119,0,0,1,1.2,1.385.92.92,0,0,1-.284,1.159,4.432,4.432,0,0,1-4.572.05.971.971,0,0,1-.3-1.315A3.188,3.188,0,0,1,411.906,198.754Z" transform="translate(-404.778 -196.535)" fill="#ffbc00"/>
    <path id="Path_16268" data-name="Path 16268" d="M383.849,241.617a7.421,7.421,0,0,0-.533-2.545.658.658,0,0,1,.207-.9.816.816,0,0,1,.96-.072.789.789,0,0,1,.328.884c-.208,1.284-.368,2.577-.541,3.866-.029.215-.012.448-.2.6a.472.472,0,0,1-.322.123c-.155-.026-.113-.173-.1-.3C383.725,242.725,383.785,242.17,383.849,241.617Z" transform="translate(-382.518 -228.426)" fill="#ffe6cf"/>
    <path id="Path_16269" data-name="Path 16269" d="M459.425,243.82c-.588-.056-.629-.377-.676-.732-.173-1.316-.354-2.631-.559-3.942a.757.757,0,0,1,.321-.806.8.8,0,0,1,.88-.009c.254.143.494.369.377.671A8.065,8.065,0,0,0,459.425,243.82Z" transform="translate(-443.454 -228.609)" fill="#ffe6cf"/>
    <path id="Path_16270" data-name="Path 16270" d="M422.076,192.493a.623.623,0,0,1-.592-.73c.029-.407.173-.887.625-.9.523-.018.68.493.69.926A.639.639,0,0,1,422.076,192.493Z" transform="translate(-413.619 -190.116)" fill="#1776bd"/>
    <path id="Path_16271" data-name="Path 16271" d="M417.923,243.636a6.023,6.023,0,0,1,.251-2.3,2.76,2.76,0,0,1,4.491-.846c.2.211.54.469.222.776-.288.277-.474-.067-.672-.252a2.157,2.157,0,0,0-2.328-.485,1.8,1.8,0,0,0-1.222,1.812c.01.9-.5,1.876.371,2.688.2.183.026.526-.2.737a2.115,2.115,0,0,1-2.665-.006c-.238-.228-.435-.53-.174-.808.292-.311.443.037.645.224a1.027,1.027,0,0,0,1,.372c.481-.168.243-.637.277-.98C417.947,244.26,417.923,243.947,417.923,243.636Z" transform="translate(-409.056 -229.804)" fill="#1a1818"/>
    <path id="Path_16272" data-name="Path 16272" d="M417.914,277.547c.1,0,.126,0,.157,0,.677-.03,1.545.058,1.528.786-.016.688-.883.974-1.6.976s-1.609-.295-1.622-.951C416.364,277.558,417.276,277.52,417.914,277.547Z" transform="translate(-409.471 -260.594)" fill="#1a1818"/>
    <path id="Path_16273" data-name="Path 16273" d="M400.078,239.683a3.6,3.6,0,0,1,1.84.622c.187.125.339.3.222.545-.132.272-.359.2-.549.077a2.218,2.218,0,0,0-3.219.349.31.31,0,0,1-.489-.023.409.409,0,0,1,.048-.513A2.831,2.831,0,0,1,400.078,239.683Z" transform="translate(-394.374 -229.813)" fill="#1a1818"/>
    <path id="Path_16274" data-name="Path 16274" d="M403.046,253.839a2.069,2.069,0,0,1-1.46-.641c-.177-.138-.319-.316-.144-.552s.382-.152.553.005a1.4,1.4,0,0,0,2.134-.019c.169-.157.394-.219.549.035a.364.364,0,0,1-.113.495A2.244,2.244,0,0,1,403.046,253.839Z" transform="translate(-397.261 -240.23)" fill="#1a1818"/>
    <path id="Path_16275" data-name="Path 16275" d="M434.036,253.856a2.172,2.172,0,0,1-1.52-.657c-.185-.15-.285-.336-.1-.557a.305.305,0,0,1,.484-.008,1.42,1.42,0,0,0,2.2-.01.321.321,0,0,1,.492.014c.173.212.069.417-.109.568A2.025,2.025,0,0,1,434.036,253.856Z" transform="translate(-422.43 -240.248)" fill="#1a1818"/>
  </g>
</svg>
