<svg xmlns="http://www.w3.org/2000/svg" width="16.487" height="19.169" viewBox="0 0 16.487 19.169">
  <g id="ic_refuge_question" transform="translate(0 0)">
    <path id="Path_16282" data-name="Path 16282" d="M204.391,382.332c0-.708-.008-1.417,0-2.125.02-1.244.775-2.238,1.966-2.144a3.118,3.118,0,0,0,2.506-1.1c.434-.4.666-.287,1.038.042a3.107,3.107,0,0,0,2.427,1.049c1.218-.088,1.942.857,1.948,2.122.006,1.352.025,2.706-.01,4.057-.017.657.043,1.064.881,1.081a2.851,2.851,0,0,1,2.181,1.271c.664.864.622,1.3-.171,2.011a4.1,4.1,0,0,0-1.18,2.374c-.817,4.042-1.857,4.9-6,4.9-.9,0-1.8.013-2.7-.035a3.893,3.893,0,0,1-4.084-3.686q-.172-1.043-.4-2.076a2.922,2.922,0,0,0-.8-1.408c-.879-.9-.9-1.438-.071-2.4a2.366,2.366,0,0,1,1.722-.954c.708-.016.825-.339.769-.957C204.343,383.688,204.389,383.008,204.391,382.332Zm6.354-.232h0c0-1,.015-2-.005-3-.012-.593-1.129-1.66-1.507-1.419-.621.394-1.34.715-1.292,1.725.08,1.7.036,3.415.013,5.123-.006.43.231,1.169-.376,1.179s-.313-.72-.321-1.111c-.037-1.642-.01-3.286-.015-4.93,0-.946-.379-1.192-1.252-.822a1.292,1.292,0,0,0-.867,1.349c.035,1.578,0,3.158.016,4.737.006.727.162,1.418-1.063,1.081-.8-.219-1.425.413-1.88,1.1-.49.736.291.925.558,1.323a3.929,3.929,0,0,1,.663,1.276c.2.877.373,1.76.551,2.642a3,3,0,0,0,2.917,2.716,20.189,20.189,0,0,0,4.819.016,3.3,3.3,0,0,0,3.288-2.953c.106-.47.217-.939.317-1.41a4.514,4.514,0,0,1,1.478-2.744c.31-.249.243-.481.109-.754a2.359,2.359,0,0,0-2.252-1.215c-1.107.346-1.062-.241-1.053-.987.021-1.676.024-3.352,0-5.027a1.416,1.416,0,0,0-1.523-1.283c-.864.056-.546.74-.554,1.181-.032,1.74-.007,3.48-.016,5.22,0,.274.035.652-.384.645s-.361-.385-.364-.659C210.738,384.1,210.745,383.1,210.745,382.1Z" transform="translate(-201.307 -376.711)" fill="#1a1818"/>
    <path id="Path_16283" data-name="Path 16283" d="M213.792,386.008c0,1-.006,2,0,3,0,.274-.057.652.364.659s.383-.371.384-.645c.009-1.74-.016-3.481.016-5.22.008-.44-.31-1.124.554-1.181a1.416,1.416,0,0,1,1.523,1.283c.027,1.675.023,3.351,0,5.027-.009.746-.054,1.333,1.053.987a2.359,2.359,0,0,1,2.252,1.215c.134.273.2.505-.109.754a4.514,4.514,0,0,0-1.478,2.744c-.1.471-.211.94-.317,1.41a3.3,3.3,0,0,1-3.288,2.953,20.188,20.188,0,0,1-4.819-.016,3,3,0,0,1-2.917-2.716c-.178-.882-.351-1.765-.551-2.642a3.928,3.928,0,0,0-.663-1.276c-.266-.4-1.047-.587-.558-1.323.455-.684,1.081-1.316,1.88-1.1,1.226.337,1.069-.354,1.064-1.081-.012-1.579.02-3.159-.016-4.737a1.292,1.292,0,0,1,.867-1.349c.873-.37,1.249-.123,1.252.822,0,1.643-.022,3.287.015,4.93.009.39-.285,1.12.321,1.111s.371-.749.377-1.179c.024-1.708.067-3.418-.013-5.123-.047-1.009.671-1.33,1.293-1.725.379-.241,1.5.826,1.507,1.419.02,1,.005,2,.005,3Zm-1.367,10.434a5.078,5.078,0,0,0,3.734-1.626,1.149,1.149,0,0,0,.065-1.688c-1.753-2.263-6.042-2.19-7.716.128a1,1,0,0,0,0,1.372A4.946,4.946,0,0,0,212.425,396.443Z" transform="translate(-204.354 -380.619)" fill="#ffe6cf"/>
    <path id="Path_16284" data-name="Path 16284" d="M225.546,437.753a4.946,4.946,0,0,1-3.914-1.814,1,1,0,0,1,0-1.372c1.674-2.318,5.963-2.391,7.716-.128a1.149,1.149,0,0,1-.065,1.688A5.078,5.078,0,0,1,225.546,437.753Zm-1.749-2.5A1.686,1.686,0,0,0,225.555,437a1.742,1.742,0,0,0,1.738-1.79,1.763,1.763,0,0,0-1.732-1.706A1.714,1.714,0,0,0,223.8,435.25Zm4-1.02a4.083,4.083,0,0,1-.011,2.271c.572-.456,1.166-.73,1.138-1.292C228.906,434.8,228.489,434.4,227.8,434.23Zm-4.576-.079a1.307,1.307,0,0,0-1.071,1.084c-.024.533.53.864,1.106,1.148A3.477,3.477,0,0,1,223.222,434.151Z" transform="translate(-217.476 -421.93)" fill="#1a1818"/>
    <path id="Path_16285" data-name="Path 16285" d="M233.966,438.228a1.714,1.714,0,0,1,1.763-1.751,1.763,1.763,0,0,1,1.732,1.706,1.742,1.742,0,0,1-1.738,1.79A1.686,1.686,0,0,1,233.966,438.228Zm.684.06c.138.64.469.948,1.023.971a1.027,1.027,0,0,0,.808-1.708c-.271-.242-.661-.741-.831.12C235.548,438.185,235.08,438.211,234.65,438.288Z" transform="translate(-227.644 -424.908)" fill="#fbc540"/>
    <path id="Path_16286" data-name="Path 16286" d="M254.589,440.255c.691.173,1.108.573,1.128.979.028.562-.567.836-1.138,1.292A4.083,4.083,0,0,0,254.589,440.255Z" transform="translate(-244.266 -427.954)" fill="#d9d7d7"/>
    <path id="Path_16287" data-name="Path 16287" d="M226.527,439.846a3.477,3.477,0,0,0,.035,2.232c-.576-.284-1.13-.615-1.106-1.148A1.307,1.307,0,0,1,226.527,439.846Z" transform="translate(-220.781 -427.625)" fill="#e8e6e6"/>
    <path id="Path_16288" data-name="Path 16288" d="M237.5,441.239c.43-.077.9-.1,1-.617.17-.861.56-.362.831-.12a1.027,1.027,0,0,1-.808,1.708C237.969,442.187,237.638,441.879,237.5,441.239Z" transform="translate(-230.494 -427.859)" fill="#252424"/>
  </g>
</svg>
