<svg xmlns="http://www.w3.org/2000/svg" xmlns:xlink="http://www.w3.org/1999/xlink" width="22.182" height="21.434" viewBox="0 0 22.182 21.434">
  <defs>
    <clipPath id="clip-path">
      <rect id="Rectangle_241" data-name="Rectangle 241" width="22.182" height="21.434" fill="none"/>
    </clipPath>
  </defs>
  <g id="ý_nghĩa" data-name="ý nghĩa" clip-path="url(#clip-path)">
    <path id="Path_17082" data-name="Path 17082" d="M14.8,7.313c-.781-.062-1.13-.31-1.295-.9A1.139,1.139,0,0,1,14.492,5c.069-.005.138-.013.206-.013q4.387,0,8.774,0a1.153,1.153,0,0,1,.169,2.3l-.28.019c.31.435.435.94.858,1.282a7.806,7.806,0,0,1,2.9,4.864,7.977,7.977,0,0,1-2.292,7.286,6.234,6.234,0,0,0-1.552,2.218,4.964,4.964,0,0,0-.334,1.7c0,.423-.068.483-.5.483h-6.73c-.4,0-.466-.064-.477-.454a5.125,5.125,0,0,0-1.6-3.647,8.9,8.9,0,0,1-2.312-3.573A8.134,8.134,0,0,1,13.738,8.8,4.517,4.517,0,0,0,14.8,7.313" transform="translate(-8.128 -3.712)" fill="#050605"/>
    <path id="Path_17083" data-name="Path 17083" d="M3.726,70.278A1.774,1.774,0,0,1,1.936,68.5a1.8,1.8,0,1,1,1.79,1.776" transform="translate(-1.44 -49.62)" fill="#050605"/>
    <path id="Path_17084" data-name="Path 17084" d="M74.657,10.213a1.288,1.288,0,0,1,1.283-1.3,1.329,1.329,0,0,1,1.291,1.308A1.308,1.308,0,0,1,75.942,11.5a1.271,1.271,0,0,1-1.285-1.285" transform="translate(-55.541 -6.633)" fill="#050606"/>
    <path id="Path_17085" data-name="Path 17085" d="M15.272,1.786a.394.394,0,0,1-.4-.378.4.4,0,0,1,.805,0,.4.4,0,0,1-.4.383" transform="translate(-11.061 -0.751)" fill="#0a0a09"/>
    <path id="Path_17086" data-name="Path 17086" d="M74.423,73.044a.4.4,0,0,1-.387.4.407.407,0,0,1-.389-.4.4.4,0,0,1,.4-.408.4.4,0,0,1,.374.409" transform="translate(-54.789 -54.036)" fill="#090909"/>
    <path id="Path_17087" data-name="Path 17087" d="M71.406.383a.36.36,0,0,1-.377.392A.391.391,0,0,1,70.622.4a.4.4,0,0,1,.388-.4.382.382,0,0,1,.4.384" transform="translate(-52.539 0)" fill="#080808"/>
    <path id="Path_17088" data-name="Path 17088" d="M.4,15.97a.39.39,0,0,1,.383.4.4.4,0,0,1-.412.377A.385.385,0,0,1,0,16.338a.36.36,0,0,1,.4-.368" transform="translate(0 -11.881)" fill="#080908"/>
    <path id="Path_17089" data-name="Path 17089" d="M5.3,39.6a.4.4,0,0,1-.387-.391.41.41,0,0,1,.4-.385.392.392,0,0,1,.392.413A.37.37,0,0,1,5.3,39.6" transform="translate(-3.653 -28.882)" fill="#080908"/>
    <path id="Path_17090" data-name="Path 17090" d="M83.966,54.794a.36.36,0,0,1,.383.388.386.386,0,0,1-.394.388.4.4,0,0,1-.392-.4.389.389,0,0,1,.4-.378" transform="translate(-62.166 -40.764)" fill="#080808"/>
    <path id="Path_17091" data-name="Path 17091" d="M1.756,60.089a.443.443,0,0,1-.39.408.4.4,0,0,1-.01-.806.443.443,0,0,1,.4.4" transform="translate(-0.714 -44.407)" fill="#0a0a09"/>
    <path id="Path_17092" data-name="Path 17092" d="M78.1,22.037a.367.367,0,0,1,.37.4.388.388,0,1,1-.776-.036.367.367,0,0,1,.406-.364" transform="translate(-57.797 -16.395)" fill="#070707"/>
    <path id="Path_17093" data-name="Path 17093" d="M21.65,81.059a.381.381,0,0,1-.384.393.393.393,0,0,1-.392-.392.379.379,0,0,1,.393-.384.359.359,0,0,1,.383.383" transform="translate(-15.529 -60.019)" fill="#070707"/>
    <path id="Path_17094" data-name="Path 17094" d="M20.625,19.99c1.441,0,2.882,0,4.323,0a.679.679,0,0,1,.47.165,7.537,7.537,0,0,1,2.729,4.778,7.461,7.461,0,0,1-1.93,6.345c-.339.378-.737.7-1.048,1.105a5.732,5.732,0,0,0-.909,1.672.23.23,0,0,1-.256.188q-3.391-.007-6.782,0a.233.233,0,0,1-.265-.178,6.222,6.222,0,0,0-1.626-2.455,7.513,7.513,0,0,1-2.222-4.085,7.417,7.417,0,0,1,.5-4.468,7.651,7.651,0,0,1,2.259-2.942.549.549,0,0,1,.377-.122q2.187,0,4.375,0" transform="translate(-9.647 -14.869)" fill="#f6d158"/>
    <path id="Path_17095" data-name="Path 17095" d="M28.033,7.063q2.211,0,4.422,0a.608.608,0,0,1,.615.454.632.632,0,0,1-.245.682.573.573,0,0,1-.362.112q-4.46,0-8.921,0a.623.623,0,1,1,.018-1.246q2.237,0,4.474,0" transform="translate(-17.042 -5.254)" fill="#f6d158"/>
    <path id="Path_17096" data-name="Path 17096" d="M26.33,14.983c.182-.339.34-.634.5-.927.053-.1.146-.1.246-.1q3.478,0,6.956,0a.286.286,0,0,1,.283.177c.118.229.236.461.374.678.106.167.036.18-.111.179-.509,0-1.017,0-1.526,0H26.33Z" transform="translate(-19.588 -10.378)" fill="#96682d"/>
    <path id="Path_17097" data-name="Path 17097" d="M32.86,77.65c1.069,0,2.139,0,3.208,0,.171,0,.257.015.2.226a1.918,1.918,0,0,0-.061.561c0,.221-.107.249-.29.248-1.19-.005-2.38,0-3.57,0-.845,0-1.69-.006-2.535,0-.211,0-.295-.06-.29-.277a1.765,1.765,0,0,0-.061-.535c-.065-.214.028-.226.2-.225,1.069,0,2.139,0,3.208,0" transform="translate(-21.898 -57.766)" fill="#96682d"/>
    <path id="Path_17098" data-name="Path 17098" d="M5.283,71.284A1.27,1.27,0,0,1,5.3,68.745a1.27,1.27,0,1,1-.015,2.539" transform="translate(-2.993 -51.143)" fill="#ececec"/>
    <path id="Path_17099" data-name="Path 17099" d="M78.193,11.75a.758.758,0,1,1-1.516.011.777.777,0,0,1,.767-.772.761.761,0,0,1,.749.761" transform="translate(-57.044 -8.175)" fill="#ececec"/>
    <path id="Path_17100" data-name="Path 17100" d="M26.516,37.445a2.7,2.7,0,0,1-1.194,1.141,2.618,2.618,0,0,1-1.64.173.334.334,0,0,1-.277-.266,2.1,2.1,0,0,1-.014-1.147c.046-.173.007-.241-.15-.31a3.684,3.684,0,0,1-2.232-2.751c-.118-.547-.061-.664.451-.9a3.288,3.288,0,0,1,.952-.314c.149-.02.179-.093.182-.224A3.683,3.683,0,0,1,22.9,31.57a.384.384,0,0,1,.4-.267,3.748,3.748,0,0,1,1.512.277c.167.07.263.067.37-.1a3.592,3.592,0,0,1,1.1-1.078.415.415,0,0,1,.5,0,3.6,3.6,0,0,1,1.11,1.1c.087.141.16.166.306.1a3.73,3.73,0,0,1,1.559-.3.383.383,0,0,1,.394.266,3.751,3.751,0,0,1,.31,1.3c0,.128.052.178.18.2a3.646,3.646,0,0,1,1.2.452.389.389,0,0,1,.234.415,3.629,3.629,0,0,1-2.061,3.013c-.129.068-.306.089-.386.191s.051.254.054.389a3.5,3.5,0,0,1-.042.952.339.339,0,0,1-.291.282,2.561,2.561,0,0,1-2.83-1.314" transform="translate(-15.591 -22.552)" fill="#050605"/>
    <path id="Path_17101" data-name="Path 17101" d="M16.886,29.418a6.634,6.634,0,0,1,1.753-4.384,6.145,6.145,0,0,1,.89-.825c.151-.111.3-.2.443,0,.128.179.021.3-.122.409a6.142,6.142,0,0,0-2.334,3.78,3.616,3.616,0,0,0-.082.794,1.605,1.605,0,0,1-.023.282c-.025.163-.1.276-.291.257s-.221-.164-.234-.314" transform="translate(-12.562 -17.923)" fill="#050605"/>
    <path id="Path_17102" data-name="Path 17102" d="M61.246,44.584a6.65,6.65,0,0,1-1.7,4.3c-.115.128-.229.257-.349.38s-.284.232-.447.069-.066-.318.071-.446a5.817,5.817,0,0,0,1.33-1.857,5.708,5.708,0,0,0,.546-2.212c0-.094.026-.187.03-.281.008-.187.072-.334.285-.314s.242.188.237.362" transform="translate(-43.642 -32.897)" fill="#050605"/>
    <path id="Path_17103" data-name="Path 17103" d="M35.391,71.74c.732,0,1.464,0,2.2,0,.18,0,.352.024.356.238s-.161.284-.355.284q-2.2,0-4.392,0c-.186,0-.362-.056-.355-.281s.174-.241.355-.24c.732,0,1.464,0,2.2,0" transform="translate(-24.431 -53.369)" fill="#060706"/>
    <path id="Path_17104" data-name="Path 17104" d="M37.028,34.91A3.059,3.059,0,0,1,38.286,32.7a.271.271,0,0,1,.4.009,3.183,3.183,0,0,1-.022,5.074.248.248,0,0,1-.357.008,3.366,3.366,0,0,1-1.278-2.879" transform="translate(-27.547 -24.263)" fill="#ee686e"/>
    <path id="Path_17105" data-name="Path 17105" d="M31.876,40.538a3.126,3.126,0,0,1-2.425-2.228,3.312,3.312,0,0,1,.046-1.88.277.277,0,0,1,.355-.226,3.78,3.78,0,0,1,1.047.252c.067.03.161.027.114.169a3.715,3.715,0,0,0,.863,3.914" transform="translate(-21.825 -26.929)" fill="#e93941"/>
    <path id="Path_17106" data-name="Path 17106" d="M46.152,40.533a3.884,3.884,0,0,0,.9-1.46,3.536,3.536,0,0,0,0-2.326c-.069-.2-.022-.261.155-.323a4.189,4.189,0,0,1,1.056-.217.191.191,0,0,1,.232.141,3.159,3.159,0,0,1-2.3,4.2c-.008,0-.017,0-.043-.012" transform="translate(-34.335 -26.935)" fill="#e93941"/>
    <path id="Path_17107" data-name="Path 17107" d="M46.938,46.148a3.712,3.712,0,0,0,2.8-2.986c.025-.125.079-.135.174-.117a3.458,3.458,0,0,1,.87.309c.114.056.108.142.1.237a3.188,3.188,0,0,1-3.008,2.668,2.475,2.475,0,0,1-.926-.11" transform="translate(-34.919 -32.018)" fill="#ee686e"/>
    <path id="Path_17108" data-name="Path 17108" d="M26.992,46.165a2.821,2.821,0,0,1-1.447.023,3.153,3.153,0,0,1-2.439-2.514.278.278,0,0,1,.19-.378,4.647,4.647,0,0,1,.729-.248c.11-.025.179-.017.211.135A3.628,3.628,0,0,0,26.9,46.1c.024.007.049.014.072.023,0,0,.005.012.018.044" transform="translate(-17.178 -32.017)" fill="#ee686e"/>
    <path id="Path_17109" data-name="Path 17109" d="M34.442,56.51a1.913,1.913,0,0,1-1.749,1.274c-.5.011-.558-.06-.494-.557.058-.451.058-.455.5-.432a3.939,3.939,0,0,0,1.748-.285" transform="translate(-23.938 -42.041)" fill="#e93941"/>
    <path id="Path_17110" data-name="Path 17110" d="M44.171,56.524c.28.08.49.146.7.2a3.355,3.355,0,0,0,1.3.052c.152-.023.206.012.217.155.006.076.04.151.041.226.011.748.094.675-.628.62a1.945,1.945,0,0,1-1.638-1.254" transform="translate(-32.861 -42.051)" fill="#e93941"/>
  </g>
</svg>
