<svg xmlns="http://www.w3.org/2000/svg" xmlns:xlink="http://www.w3.org/1999/xlink" width="23.551" height="23.527" viewBox="0 0 23.551 23.527">
  <defs>
    <clipPath id="clip-path">
      <rect id="Rectangle_241" data-name="Rectangle 241" width="23.551" height="23.527" fill="none"/>
    </clipPath>
  </defs>
  <g id="cách_cầu_sieu" data-name="cách cầu sieu" transform="translate(0 0)">
    <g id="Group_393" data-name="Group 393" transform="translate(0 0)" clip-path="url(#clip-path)">
      <path id="Path_17082" data-name="Path 17082" d="M25.143,11.783c-.214-.677-.422-1.339-.634-2Q23.375,6.241,22.234,2.7c-.058-.178-.02-.242.151-.277s.381-.205.525-.13.14.329.2.505q1.41,4.388,2.812,8.778c.052.162.113.223.283.209.194-.016.39,0,.6,0-.137-1.018-.273-2.016-.405-3.015-.139-1.041-.274-2.082-.412-3.123s-.28-2.081-.42-3.121c-.086-.637-.171-1.275-.259-1.912-.013-.1.006-.136.113-.164.614-.16.657-.148.743.461.163,1.161.306,2.324.46,3.486s.316,2.322.471,3.484c.139,1.041.274,2.082.411,3.123.03.226.07.451.092.677.009.09.046.1.122.1.2,0,.392-.008.588,0,.117.005.139-.047.13-.144a1.407,1.407,0,0,1,0-.147q0-5.609,0-11.218c0-.194.031-.263.245-.257.543.017.544.005.544.541q0,5.487,0,10.973c0,.2.033.279.246.254.185-.022.422.057.547-.033s.08-.342.1-.525q.339-2.566.683-5.131.368-2.759.734-5.519c.023-.17.084-.252.262-.2.024.006.048.01.072.014.5.094.5.094.433.6q-.344,2.565-.685,5.13-.358,2.661-.722,5.322c-.046.342-.047.341.3.341.479,0,.477,0,.62-.446Q33.233,6.9,34.649,2.468c.052-.163.1-.237.28-.154s.424.076.5.2-.073.343-.129.518q-1.365,4.275-2.733,8.55c-.019.061-.034.124-.055.2h1.7c.409,0,.554.193.454.6-.088.355-.164.713-.267,1.064a.3.3,0,0,0,.083.32,5.878,5.878,0,0,1,.016,7.774.367.367,0,0,0-.09.387c.1.344.178.692.265,1.039.092.37-.061.575-.435.575H23.415c-.377,0-.531-.2-.44-.572s.17-.728.274-1.086a.3.3,0,0,0-.08-.321,5.69,5.69,0,0,1-1.432-3.151,5.779,5.779,0,0,1,1.411-4.622.367.367,0,0,0,.095-.386c-.1-.351-.186-.707-.273-1.061s.076-.556.436-.557c.571,0,1.142,0,1.737,0m3.68,2.352c-1.558,0-3.117,0-4.676,0a.491.491,0,0,0-.418.184,5.125,5.125,0,0,0,.005,6.7.468.468,0,0,0,.4.177q4.7-.007,9.4,0a.447.447,0,0,0,.376-.165,5.129,5.129,0,0,0-.005-6.736.423.423,0,0,0-.354-.161c-1.575.006-3.15,0-4.725,0m.029-1.567H24.371c-.52,0-.507,0-.4.516.045.22.133.273.352.273q4.37-.012,8.74-.006c.547,0,.533,0,.684-.527.069-.24-.008-.262-.218-.261-1.559.008-3.118,0-4.676,0M28.8,22.757h4.456c.549,0,.541,0,.422-.539-.042-.194-.119-.25-.321-.249q-4.382.012-8.765.006c-.548,0-.535,0-.685.526-.068.238,0,.262.217.261,1.559-.008,3.117,0,4.676,0" transform="translate(-17.065 -0.015)" fill="#0b0a09"/>
      <path id="Path_17083" data-name="Path 17083" d="M1.948,23.527c-.5,0-1,0-1.494,0-.31,0-.449-.139-.451-.444,0-.482,0-.964,0-1.445a.449.449,0,0,1,.174-.408A1.5,1.5,0,0,0,.8,19.714c-.053-.591-.011-1.191-.012-1.787a.527.527,0,0,0-.042-.261,3.293,3.293,0,0,1-.351-1.726c.009-.187.009-.376,0-.563a.4.4,0,0,1,.3-.464c.092-.023.093-.068.091-.135,0-.049,0-.1,0-.147V4.492c0-.46.1-.572.555-.556.2.007.259-.06.23-.242a.455.455,0,0,1,0-.1.644.644,0,0,0-.324-.715A1.223,1.223,0,0,1,.92,1.28a12.705,12.705,0,0,1,.722-1.1.38.38,0,0,1,.643,0c.249.352.494.709.709,1.083A1.292,1.292,0,0,1,2.48,3.028a.181.181,0,0,0-.127.2c.007.073,0,.147,0,.22,0,.147-.05.327.016.432s.27.029.411.048a.374.374,0,0,1,.355.367c.006.065,0,.13,0,.2q0,5.07,0,10.14c0,.144-.027.273.182.323.162.039.211.2.212.374a4.5,4.5,0,0,1-.372,2.383.464.464,0,0,0-.02.216c0,.833,0,1.666,0,2.5a.341.341,0,0,0,.135.316,1.517,1.517,0,0,1,.657,1.583,4.949,4.949,0,0,0-.006.709c0,.359-.128.489-.48.49H1.948M2.354,9.82v-4.6c0-.5,0-.492-.509-.509-.224-.007-.28.056-.28.279q.012,4.688.005,9.376c0,.543,0,.534.546.545.193,0,.243-.049.242-.242-.008-1.616,0-3.231,0-4.847M1.948,22.743c.342,0,.684,0,1.025,0,.063,0,.167.039.162-.084-.019-.459.141-.959-.361-1.3a.71.71,0,0,0-.469-.186c-.268.017-.537,0-.806,0a.309.309,0,0,0-.223.065,1.052,1.052,0,0,0-.493,1.073.867.867,0,0,1,0,.268c-.013.128.033.168.163.165.333-.009.667,0,1,0m.022-7.054c-.22,0-.44,0-.66,0-.087,0-.132.017-.134.119a3.5,3.5,0,0,0,.148,1.229.284.284,0,0,0,.336.225,4.9,4.9,0,0,1,.66,0,.22.22,0,0,0,.252-.165,3.266,3.266,0,0,0,.175-1.3c0-.112-.064-.111-.142-.11-.212,0-.424,0-.636,0m-.4,3.527V19.8c0,.6,0,.6.594.592.146,0,.2-.033.194-.189-.01-.53,0-1.06,0-1.59,0-.6,0-.591-.606-.579-.135,0-.185.033-.181.176.01.334,0,.669,0,1M2.357,1.991a1.342,1.342,0,0,0-.35-.8c-.04-.069-.076-.023-.105.022a3.47,3.47,0,0,0-.3.476.488.488,0,0,0,.093.567.347.347,0,0,0,.406.077.383.383,0,0,0,.252-.338" transform="translate(0 0)" fill="#060706"/>
      <path id="Path_17084" data-name="Path 17084" d="M93.871,23.53c-.506,0-1.013,0-1.519,0a.384.384,0,0,1-.437-.433c0-.49,0-.98,0-1.47a.426.426,0,0,1,.167-.386,1.47,1.47,0,0,0,.627-1.537,8.136,8.136,0,0,1-.007-1.028,3.349,3.349,0,0,0-.225-1.473,4.674,4.674,0,0,1-.16-1.983.276.276,0,0,1,.216-.27c.178-.036.169-.146.169-.28q0-5.094,0-10.189c0-.442.1-.561.544-.542.215.009.274-.062.241-.257a.561.561,0,0,1,0-.146.564.564,0,0,0-.3-.627,1.252,1.252,0,0,1-.335-1.66c.212-.366.453-.716.7-1.061a.386.386,0,0,1,.66,0c.243.347.485.7.7,1.063a1.3,1.3,0,0,1-.5,1.772c-.106.053-.15.108-.137.221a1.527,1.527,0,0,1,0,.171c0,.155-.05.339.016.458.079.144.28.029.426.057a.379.379,0,0,1,.341.357,2.106,2.106,0,0,1,0,.22q0,5.07,0,10.14c0,.14-.01.254.174.3a.325.325,0,0,1,.22.345,4.582,4.582,0,0,1-.365,2.409.405.405,0,0,0-.026.19c0,.849,0,1.7,0,2.547a.32.32,0,0,0,.128.294,1.528,1.528,0,0,1,.665,1.6,5.362,5.362,0,0,0-.006.734c0,.309-.139.45-.444.451-.506,0-1.012,0-1.519,0m.4-13.705v-4.6c0-.506,0-.494-.508-.51-.221-.007-.282.051-.281.278q.012,4.688.006,9.376c0,.545,0,.536.545.546.189,0,.245-.044.244-.24-.008-1.616,0-3.231,0-4.847m-.4,12.921c.342,0,.684,0,1.026,0,.065,0,.161.034.158-.089-.01-.471.129-.979-.384-1.315a.635.635,0,0,0-.4-.166c-.284.015-.57,0-.854,0a.311.311,0,0,0-.222.069,1.047,1.047,0,0,0-.489,1.074.7.7,0,0,1,0,.244c-.023.159.049.189.192.185.326-.01.651,0,.977,0m.01-7.054H93.24c-.07,0-.148-.019-.151.1a3.144,3.144,0,0,0,.189,1.342.184.184,0,0,0,.2.128c.261-.006.522-.007.783,0a.2.2,0,0,0,.213-.148,3.165,3.165,0,0,0,.183-1.319c0-.116-.075-.1-.148-.1h-.636m.39,3.521v-.587c0-.6,0-.591-.6-.587-.156,0-.19.049-.187.195.008.522,0,1.044,0,1.566,0,.637,0,.633.636.6.119-.006.151-.044.149-.157-.006-.342,0-.685,0-1.028m0-17.274c.01-.34-.218-.522-.35-.75-.04-.069-.077-.022-.105.023a3.447,3.447,0,0,0-.3.476.488.488,0,0,0,.094.567.347.347,0,0,0,.406.077.4.4,0,0,0,.251-.393" transform="translate(-72.313 -0.004)" fill="#060706"/>
      <path id="Path_17085" data-name="Path 17085" d="M31.758,66.206c1.575,0,3.15,0,4.725,0a.423.423,0,0,1,.354.161,5.129,5.129,0,0,1,.006,6.736.447.447,0,0,1-.376.165q-4.7-.007-9.4,0a.468.468,0,0,1-.4-.178,5.125,5.125,0,0,1-.005-6.7.49.49,0,0,1,.418-.184c1.559.007,3.117,0,4.676,0m-3.241,2.743c-.212,0-.425,0-.637,0a.4.4,0,0,0-.139.777c.175.065.357.112.531.18a1.053,1.053,0,0,1,.736,1,1.191,1.191,0,0,0,1.772,1.025.139.139,0,0,1,.206.028,1.5,1.5,0,0,0,1.647.438,1.54,1.54,0,0,0,1.08-1.352c.017-.129.074-.126.169-.141a1.6,1.6,0,0,0,1.335-1.109,2.271,2.271,0,0,0,.071-.8.391.391,0,0,0-.364-.436.385.385,0,0,0-.418.382.423.423,0,0,1-.224.354c-.111.057-.157.058-.176-.1a1.521,1.521,0,0,0-1.059-1.337.392.392,0,0,1-.235-.216,1.172,1.172,0,0,0-2.09-.023.252.252,0,0,1-.261.156.96.96,0,0,0-1.049.951c-.017.149-.085.222-.234.221h-.661m8.733.392a5.279,5.279,0,0,0-.038-.658c-.088-.609-.08-.6-.676-.481-.18.035-.187.112-.161.246a4.893,4.893,0,0,1,0,1.8c-.032.186-.2.41-.067.548.114.124.361.119.543.188.134.051.17,0,.2-.119a5.769,5.769,0,0,0,.2-1.521m-1.115,3.324c.073.022.095-.009.11-.034.137-.23.274-.46.4-.693.048-.085-.03-.109-.086-.142-.534-.313-.533-.313-.852.2-.034.055-.071.109-.1.164-.021.033-.058.079-.019.108.188.141.381.275.546.394" transform="translate(-20 -52.086)" fill="#fca249"/>
      <path id="Path_17086" data-name="Path 17086" d="M37.047,58.855c1.559,0,3.117,0,4.676,0,.21,0,.287.021.218.261-.151.523-.138.527-.684.527q-4.37,0-8.741.006c-.219,0-.307-.053-.352-.273-.106-.519-.119-.516.4-.516Z" transform="translate(-25.26 -46.302)" fill="#d5803f"/>
      <path id="Path_17087" data-name="Path 17087" d="M36.894,103.746c-1.559,0-3.118,0-4.676,0-.212,0-.285-.024-.217-.261.15-.522.137-.526.685-.526q4.383,0,8.765-.006c.2,0,.279.055.321.249.119.541.128.539-.422.539Z" transform="translate(-25.158 -81.003)" fill="#d5803f"/>
      <path id="Path_17088" data-name="Path 17088" d="M8.132,27.191c0,1.616,0,3.231,0,4.847,0,.193-.049.246-.242.242-.546-.011-.546,0-.546-.545q0-4.688-.005-9.376c0-.223.055-.287.28-.28.509.017.509,0,.509.509v4.6" transform="translate(-5.777 -17.371)" fill="#ff5151"/>
      <path id="Path_17089" data-name="Path 17089" d="M4.757,100.854c-.334,0-.668-.006-1,0-.13,0-.176-.037-.163-.165a.861.861,0,0,0,0-.268,1.051,1.051,0,0,1,.493-1.073.307.307,0,0,1,.223-.065c.269,0,.538.013.806,0a.71.71,0,0,1,.469.186c.5.342.343.841.362,1.3,0,.123-.1.083-.162.084-.342,0-.684,0-1.026,0" transform="translate(-2.808 -78.111)" fill="#fea349"/>
      <path id="Path_17090" data-name="Path 17090" d="M6.309,73.568c.212,0,.424,0,.636,0,.078,0,.14,0,.142.11a3.266,3.266,0,0,1-.175,1.3.221.221,0,0,1-.252.165,4.9,4.9,0,0,0-.66,0,.284.284,0,0,1-.336-.225,3.5,3.5,0,0,1-.148-1.229c0-.1.046-.121.134-.119.22,0,.44,0,.66,0" transform="translate(-4.338 -57.88)" fill="#fca149"/>
      <path id="Path_17091" data-name="Path 17091" d="M7.354,85.754c0-.334.007-.669,0-1,0-.143.046-.174.181-.176.606-.011.606-.016.606.58,0,.53-.006,1.06,0,1.59,0,.155-.047.188-.193.189-.594,0-.594.01-.594-.592v-.587" transform="translate(-5.783 -66.539)" fill="#d6803f"/>
      <path id="Path_17092" data-name="Path 17092" d="M8.1,6.236a.383.383,0,0,1-.252.338A.347.347,0,0,1,7.442,6.5a.488.488,0,0,1-.093-.567,3.47,3.47,0,0,1,.3-.476c.029-.045.065-.091.105-.022a1.342,1.342,0,0,1,.35.8" transform="translate(-5.742 -4.246)" fill="#ffc919"/>
      <path id="Path_17093" data-name="Path 17093" d="M100.041,27.194c0,1.616,0,3.231,0,4.847,0,.2-.055.244-.244.24-.545-.01-.545,0-.545-.547q0-4.688-.005-9.376c0-.227.061-.285.281-.278.507.016.508,0,.508.51v4.6" transform="translate(-78.089 -17.372)" fill="#ff5151"/>
      <path id="Path_17094" data-name="Path 17094" d="M96.673,100.855c-.326,0-.651-.007-.977,0-.143,0-.216-.025-.193-.185a.7.7,0,0,0,0-.244,1.047,1.047,0,0,1,.489-1.074.311.311,0,0,1,.222-.069c.285,0,.57.012.854,0a.635.635,0,0,1,.4.166c.513.336.374.844.384,1.315,0,.123-.093.089-.158.089-.342,0-.684,0-1.026,0" transform="translate(-75.121 -78.113)" fill="#fea349"/>
      <path id="Path_17095" data-name="Path 17095" d="M98.212,73.571h.636c.073,0,.146-.013.148.1a3.161,3.161,0,0,1-.182,1.319.2.2,0,0,1-.213.148c-.261-.008-.522-.006-.783,0a.184.184,0,0,1-.2-.128,3.141,3.141,0,0,1-.189-1.342c0-.118.08-.1.151-.1h.636" transform="translate(-76.649 -57.883)" fill="#fca149"/>
      <path id="Path_17096" data-name="Path 17096" d="M100.049,85.753c0,.342,0,.685,0,1.028,0,.113-.03.151-.149.157-.636.035-.636.039-.636-.6,0-.522,0-1.044,0-1.566,0-.146.032-.194.187-.195.6,0,.6-.011.6.587v.587" transform="translate(-78.097 -66.544)" fill="#d6803f"/>
      <path id="Path_17097" data-name="Path 17097" d="M100.01,6.181a.4.4,0,0,1-.251.393.347.347,0,0,1-.406-.077.488.488,0,0,1-.094-.567,3.447,3.447,0,0,1,.3-.476c.029-.045.065-.092.105-.023.132.228.36.41.35.75" transform="translate(-78.055 -4.246)" fill="#ffc919"/>
      <path id="Path_17098" data-name="Path 17098" d="M36,71.861h.661c.149,0,.217-.072.234-.221a.96.96,0,0,1,1.049-.951.252.252,0,0,0,.262-.156,1.172,1.172,0,0,1,2.09.023.39.39,0,0,0,.235.216,1.522,1.522,0,0,1,1.059,1.337c.019.156.065.155.176.1a.422.422,0,0,0,.224-.354.386.386,0,0,1,.418-.382.391.391,0,0,1,.364.436,2.267,2.267,0,0,1-.071.8,1.6,1.6,0,0,1-1.335,1.109c-.095.015-.152.012-.169.141a1.539,1.539,0,0,1-1.08,1.352,1.5,1.5,0,0,1-1.647-.438.139.139,0,0,0-.206-.028,1.191,1.191,0,0,1-1.772-1.025,1.053,1.053,0,0,0-.736-1c-.174-.068-.356-.115-.531-.18a.4.4,0,0,1,.139-.777c.212,0,.424,0,.637,0m.859.79a2.053,2.053,0,0,1,.426,1.111c.014.271.166.445.387.449s.383-.177.4-.463A1.571,1.571,0,0,1,39.227,72.3c.411-.107.411-.107.411.32a.839.839,0,0,0,0,.146c.033.182-.03.264-.22.313a.756.756,0,0,0-.548.884.8.8,0,0,0,.814.635.836.836,0,0,0,.735-.788.771.771,0,0,1,.574-.757,2.346,2.346,0,0,1,.313-.036c-.41-.328-.41-.328-.5-.869a.771.771,0,0,0-.681-.671c-.314-.026-.472-.149-.5-.471a.355.355,0,0,0-.375-.321.37.37,0,0,0-.385.311c-.112.446-.137.468-.612.468s-.479,0-.6.446a1.015,1.015,0,0,1-.791.736" transform="translate(-27.484 -54.998)" fill="#0b0907"/>
      <path id="Path_17099" data-name="Path 17099" d="M77.259,76.488a5.779,5.779,0,0,1-.2,1.521c-.029.117-.064.17-.2.119-.182-.069-.429-.064-.543-.188-.128-.139.035-.363.067-.548a4.9,4.9,0,0,0,0-1.8c-.027-.134-.019-.211.161-.246.6-.117.588-.128.676.481a5.277,5.277,0,0,1,.038.658" transform="translate(-60.009 -59.233)" fill="#0e0b08"/>
      <path id="Path_17100" data-name="Path 17100" d="M73.589,92.517c-.165-.118-.358-.252-.546-.394-.039-.029,0-.074.019-.108.034-.055.07-.109.1-.164.319-.516.319-.516.852-.2.055.032.133.057.086.142-.131.233-.268.463-.4.693-.015.025-.037.056-.11.034" transform="translate(-57.455 -71.938)" fill="#110d09"/>
      <path id="Path_17101" data-name="Path 17101" d="M43.972,75.557a1.015,1.015,0,0,0,.791-.736c.12-.447.121-.446.6-.446s.5-.022.612-.468a.37.37,0,0,1,.385-.311.355.355,0,0,1,.375.321c.032.322.189.445.5.471a.771.771,0,0,1,.681.671c.09.541.09.541.5.869a2.348,2.348,0,0,0-.313.036.771.771,0,0,0-.574.757.836.836,0,0,1-.735.788.8.8,0,0,1-.814-.635.756.756,0,0,1,.548-.884c.189-.049.253-.131.22-.313a.839.839,0,0,1,0-.146c0-.428,0-.428-.411-.32a1.571,1.571,0,0,0-1.156,1.443c-.014.287-.169.467-.4.463s-.373-.178-.387-.449a2.053,2.053,0,0,0-.426-1.11" transform="translate(-34.596 -57.903)" fill="#f2772c"/>
    </g>
  </g>
</svg>
