<svg xmlns="http://www.w3.org/2000/svg" width="41.866" height="49.575" viewBox="0 0 41.866 49.575">
  <g id="ic_refuge" transform="translate(0.499 0.5)">
    <g id="Group_39" data-name="Group 39" transform="translate(0 0)">
      <path id="Path_15917" data-name="Path 15917" d="M104.9,61.315a22.625,22.625,0,0,0-1.3-5.93c-1.8-4.714-5.168-8.219-8.807-11.513-2.525-2.285-5.292-4.289-7.737-6.667a4.483,4.483,0,0,1-1.587-3.847A3.124,3.124,0,0,1,87.2,31.852a.822.822,0,0,0,.513-1.192c-.226-.555-.716-.336-1.105-.207a3.759,3.759,0,0,0-2.677,3.09c.077,1.912-1.074,3.153-2.364,4.317-3.233,2.915-6.679,5.583-9.788,8.648a24.166,24.166,0,0,0-7.542,19.2A11.442,11.442,0,0,0,75.416,76.623a19.1,19.1,0,0,0,6.23-1.166c2.091-.655,2.252-.492,2.246,1.648a1.312,1.312,0,0,0,0,.2c.09.62-.277,1.583.8,1.573s.755-.975.771-1.593c.059-2.439.122-2.541,2.427-1.742a17.4,17.4,0,0,0,6.343,1.076,11.189,11.189,0,0,0,10.591-9.143A22.585,22.585,0,0,0,104.9,61.315Zm-1.819,6.61a9.634,9.634,0,0,1-8.376,7.088,15.527,15.527,0,0,1-8.044-1.524,16.928,16.928,0,0,1,3.75-1.023,68.426,68.426,0,0,0,7.422-1.424,6.132,6.132,0,0,0,3.5-2.218c.279-.4.773-.916.212-1.371s-1.066-.173-1.459.421a4.012,4.012,0,0,1-2.136,1.493A36.131,36.131,0,0,1,91.718,70.7a32.935,32.935,0,0,0-5.261,1.2c-.677.228-.956.063-.991-.68-.09-1.91-.063-1.967,1.76-2.57q4.664-1.546,9.318-3.115A7.982,7.982,0,0,0,99.86,63.5c.309-.325.456-.637.071-1.011-.321-.309-.682-.472-1.034-.124-1.77,1.75-4.169,2.122-6.37,2.915-1.973.708-3.983,1.306-5.967,1.982-.791.269-1.105.02-1.088-.791s.029-1.638-.01-2.456a1.294,1.294,0,0,1,1.046-1.43c2.83-.938,5.583-2.085,8.337-3.225a9.467,9.467,0,0,0,4.647-3.625,5.175,5.175,0,0,0,.684-1.623c.09-.4.277-.893-.344-1.042a.824.824,0,0,0-1.06.623,5.656,5.656,0,0,1-1.308,2.167,7.706,7.706,0,0,1-2.492,1.719q-4.05,1.776-8.205,3.288c-1.113.4-1.274.281-1.292-.875-.014-1.015.022-2.032-.016-3.046a1.364,1.364,0,0,1,1.011-1.475c2.264-.867,4.523-1.744,6.763-2.671a4.655,4.655,0,0,0,3.023-3.367c.085-.384.293-.9-.319-1.068-.574-.163-.926.114-1.1.682a3.6,3.6,0,0,1-2.319,2.364c-1.98.777-3.951,1.583-5.935,2.354-.93.362-1.121.24-1.111-.763.047-4.173-.6-3.147,3.086-4.675a4.422,4.422,0,0,0,2.987-2.867c.1-.376.26-.82-.26-1a.813.813,0,0,0-1.131.478c-.736,1.813-2.517,2.045-4.034,2.667-.494.2-.639-.165-.645-.576-.012-.82.037-1.642-.026-2.456-.051-.641.372-1.683-.743-1.7-1.2-.012-.74,1.08-.8,1.742a22.184,22.184,0,0,0-.018,2.26c.008.793-.346.983-1.056.684-1.463-.618-3.1-.97-3.719-2.759-.165-.478-.673-.505-1.1-.319s-.352.582-.234.938a4.454,4.454,0,0,0,2.708,2.8c.818.332,1.64.665,2.47.964a1.245,1.245,0,0,1,.93,1.328c-.022.885-.01,1.768,0,2.653,0,.629-.195.948-.889.671-2.189-.877-4.394-1.717-6.571-2.62a3.262,3.262,0,0,1-1.894-2.144c-.189-.618-.572-.9-1.172-.68s-.415.741-.277,1.178a4.932,4.932,0,0,0,3.088,3.208c2.195.861,4.374,1.764,6.579,2.6a1.528,1.528,0,0,1,1.154,1.685c-.053,1.08-.018,2.161-.022,3.243,0,.7-.323.974-1,.716-3.033-1.147-6.091-2.236-9.011-3.648a6.093,6.093,0,0,1-3.212-3.434,1.377,1.377,0,0,0-.222-.435.882.882,0,0,0-1.125-.325c-.407.212-.295.608-.187.962a7.324,7.324,0,0,0,3.286,4.14,42.219,42.219,0,0,0,6.376,2.806c1.363.559,2.755,1.05,4.148,1.53a1.2,1.2,0,0,1,.956,1.288c-.026.885-.01,1.77-.01,2.653,0,.739-.326,1.034-1.056.789-3.351-1.127-6.73-2.183-10.046-3.41a6.029,6.029,0,0,1-3.762-3.9c-.189-.574-.555-.826-1.113-.651-.623.195-.474.706-.33,1.147a7.493,7.493,0,0,0,4.987,4.907c3.373,1.17,6.767,2.277,10.152,3.416A2.08,2.08,0,0,1,83.8,71.626a.567.567,0,0,1-.757.256C79.5,70.772,75.766,70.552,72.188,69.6a4.58,4.58,0,0,1-3.042-1.978.765.765,0,0,0-1.113-.262c-.488.242-.372.643-.2,1.013a4.126,4.126,0,0,0,2.071,2.012,23.209,23.209,0,0,0,6.439,1.68,41.4,41.4,0,0,1,5.381,1.1c.208.059.462.073.588.385-3.752,1.6-7.5,2.48-11.369.36-3.56-1.947-4.968-5.064-5.151-8.982-.376-8.048,3.265-14.133,9.078-19.262,3.117-2.749,6.533-5.161,9.33-8.27.344-.382.621-.372.966.016,2.706,3.054,6.016,5.446,9.013,8.179,2.867,2.61,5.65,5.3,7.271,8.923A21.515,21.515,0,0,1,103.083,67.925Z" transform="translate(-64.207 -30.3)" fill="#ff7519"/>
      <path id="Path_15917_-_Outline" data-name="Path 15917 - Outline" d="M84.672,79.375a1.263,1.263,0,0,1-.945-.341,1.631,1.631,0,0,1-.323-1.257,2.6,2.6,0,0,0-.007-.4,1.1,1.1,0,0,1-.007-.229c0-.013,0-.027,0-.04a4.532,4.532,0,0,0-.138-1.473.332.332,0,0,0-.119-.015,5.869,5.869,0,0,0-1.339.317A20.156,20.156,0,0,1,75.7,77.127c-.1,0-.2,0-.3,0A11.942,11.942,0,0,1,63.742,65.736a25.544,25.544,0,0,1,1.652-10.652,25.9,25.9,0,0,1,6.039-8.932c1.925-1.9,4.006-3.667,6.018-5.379C78.7,39.707,80,38.606,81.237,37.488c1.2-1.081,2.269-2.2,2.2-3.925l0-.054.01-.054a4.237,4.237,0,0,1,3.01-3.476l.084-.029a2.159,2.159,0,0,1,.694-.151.99.99,0,0,1,.949.671,1.436,1.436,0,0,1,.016,1.142,1.343,1.343,0,0,1-.83.711,2.573,2.573,0,0,0-1.407,1.193,4,4,0,0,0,1.449,3.329c1.381,1.343,2.9,2.593,4.367,3.8,1.114.917,2.265,1.865,3.357,2.853a48.73,48.73,0,0,1,5.144,5.28,23.44,23.44,0,0,1,3.794,6.425,22.875,22.875,0,0,1,1.329,6.059,23.122,23.122,0,0,1-.088,6.293,11.566,11.566,0,0,1-3.851,6.719,11.682,11.682,0,0,1-7.215,2.837c-.165.005-.334.009-.5.008a18.091,18.091,0,0,1-6.025-1.111,6.546,6.546,0,0,0-1.52-.418.3.3,0,0,0-.075.007,5.829,5.829,0,0,0-.168,1.693c0,.094.006.209.014.332a1.744,1.744,0,0,1-.3,1.374,1.3,1.3,0,0,1-.981.375Zm-.285-2.14a3.376,3.376,0,0,1,.016.569,1.468,1.468,0,0,0,.04.532.408.408,0,0,0,.228.038h.012a.42.42,0,0,0,.257-.054c.072-.078.048-.436.035-.628-.01-.14-.019-.285-.016-.424a8.146,8.146,0,0,1,.155-1.814,1.061,1.061,0,0,1,1.088-.862,6.57,6.57,0,0,1,1.847.473,17.126,17.126,0,0,0,5.7,1.056c.152,0,.311,0,.465-.008a10.648,10.648,0,0,0,10.115-8.73,22.2,22.2,0,0,0,.077-6.022,21.913,21.913,0,0,0-1.267-5.8c-1.684-4.4-4.686-7.709-8.675-11.321-1.075-.973-2.217-1.913-3.322-2.823-1.484-1.222-3.018-2.485-4.428-3.857A4.955,4.955,0,0,1,84.977,33.3l.012-.1.051-.089a3.606,3.606,0,0,1,2-1.731.405.405,0,0,0,.242-.178.464.464,0,0,0-.031-.351.33.33,0,0,0-.024-.049,1.482,1.482,0,0,0-.369.1l-.092.031a3.252,3.252,0,0,0-2.333,2.653c.061,2.128-1.273,3.516-2.531,4.651s-2.551,2.233-3.808,3.3c-2,1.7-4.065,3.458-5.964,5.329A23.556,23.556,0,0,0,64.74,65.688,10.881,10.881,0,0,0,75.428,76.123c.09,0,.183,0,.274,0a19.341,19.341,0,0,0,5.8-1.147,6,6,0,0,1,1.637-.362,1.121,1.121,0,0,1,.828.308c.406.407.433,1.1.43,2.181,0,.028,0,.059,0,.089C84.389,77.209,84.388,77.227,84.388,77.236ZM75.77,75.659a10.3,10.3,0,0,1-5.065-1.313c-3.433-1.878-5.2-4.951-5.41-9.4a21.6,21.6,0,0,1,2.271-10.973,28.992,28.992,0,0,1,6.976-8.687c1.023-.9,2.092-1.78,3.126-2.628a55.529,55.529,0,0,0,6.163-5.6,1.139,1.139,0,0,1,.847-.446,1.211,1.211,0,0,1,.864.464,55.1,55.1,0,0,0,5.825,5.414c1.044.88,2.123,1.79,3.152,2.728,2.953,2.688,5.741,5.406,7.39,9.088a22.082,22.082,0,0,1,1.664,13.718,9.313,9.313,0,0,1-3.223,5.114,9.75,9.75,0,0,1-5.613,2.372c-.493.029-.938.043-1.359.043a16.21,16.21,0,0,1-6.909-1.606l-1.086-.459,1.085-.461a17.458,17.458,0,0,1,3.855-1.054c.791-.148,1.6-.273,2.377-.394a36.551,36.551,0,0,0,4.992-1.016,5.73,5.73,0,0,0,3.233-2.025c.035-.05.072-.1.11-.153.077-.1.28-.382.269-.468a.251.251,0,0,0-.071-.076.443.443,0,0,0-.241-.116c-.129,0-.31.159-.486.425a4.555,4.555,0,0,1-2.386,1.688,30.581,30.581,0,0,1-5.411,1.207q-.454.072-.908.147a32.766,32.766,0,0,0-5.182,1.184,1.991,1.991,0,0,1-.628.122c-.439,0-.974-.217-1.023-1.252a3.379,3.379,0,0,1,.249-2.08c.329-.484.936-.685,1.854-.989,2.739-.908,5.7-1.9,9.316-3.115a7.452,7.452,0,0,0,3.113-1.91.755.755,0,0,0,.162-.214.4.4,0,0,0-.077-.093c-.18-.174-.265-.179-.266-.179a.21.21,0,0,0-.069.051,11.434,11.434,0,0,1-5,2.525c-.513.158-1.044.322-1.549.5-1.161.417-2.349.8-3.5,1.171-.814.263-1.655.534-2.476.814a2.121,2.121,0,0,1-.679.131,1,1,0,0,1-.738-.29,1.52,1.52,0,0,1-.332-1.116c.017-.777.03-1.6-.009-2.421a1.784,1.784,0,0,1,1.388-1.928c2.746-.91,5.471-2.039,8.107-3.132l.2-.081a8.9,8.9,0,0,0,4.415-3.429A4.693,4.693,0,0,0,99.688,54c.009-.041.019-.082.029-.124a1.921,1.921,0,0,0,.058-.3.471.471,0,0,0-.06-.018.651.651,0,0,0-.149-.02c-.076,0-.217,0-.319.312A6.117,6.117,0,0,1,97.826,56.2a8.149,8.149,0,0,1-2.652,1.831c-2.773,1.216-5.544,2.326-8.236,3.3a3.1,3.1,0,0,1-.992.239.853.853,0,0,1-.84-.57A3,3,0,0,1,84.975,60c-.006-.415,0-.833,0-1.238,0-.591.007-1.2-.015-1.8A1.854,1.854,0,0,1,86.291,55c2.152-.825,4.459-1.718,6.751-2.666a4.136,4.136,0,0,0,2.725-3.011c.011-.048.022-.1.035-.145a1.7,1.7,0,0,0,.058-.314.4.4,0,0,0-.057-.02.638.638,0,0,0-.171-.028c-.065,0-.2,0-.313.373A4.107,4.107,0,0,1,92.7,51.874c-.889.349-1.792.71-2.666,1.059-1.07.428-2.177.871-3.271,1.3a2.474,2.474,0,0,1-.879.22.828.828,0,0,1-.608-.239,1.624,1.624,0,0,1-.305-1.215c.007-.627,0-1.142-.009-1.555a3.578,3.578,0,0,1,.262-2.032c.3-.456.8-.644,1.71-.986.381-.143.855-.32,1.432-.559,1.353-.561,2.33-1.207,2.7-2.538l.018-.065a1.784,1.784,0,0,0,.07-.321l-.031-.013a.666.666,0,0,0-.219-.044c-.065,0-.186,0-.282.237-.675,1.664-2.128,2.168-3.409,2.612-.314.109-.61.212-.9.33a1.166,1.166,0,0,1-.44.095c-.425,0-.882-.3-.894-1.126,0-.3,0-.593,0-.88.006-.535.012-1.04-.027-1.545a3.638,3.638,0,0,1,.016-.574,1.516,1.516,0,0,0-.021-.614.433.433,0,0,0-.246-.048h-.013a.467.467,0,0,0-.277.052c-.067.073-.037.446-.023.626a3.533,3.533,0,0,1,.014.612,13.9,13.9,0,0,0-.026,1.615c0,.194.009.395.01.593a1.4,1.4,0,0,1-.33,1.049.942.942,0,0,1-.69.274,1.9,1.9,0,0,1-.73-.173c-.219-.092-.448-.181-.67-.267-1.279-.5-2.73-1.056-3.328-2.79-.017-.05-.031-.089-.15-.089a.708.708,0,0,0-.274.065.217.217,0,0,0-.028.015.892.892,0,0,0,.067.309,3.942,3.942,0,0,0,2.421,2.495c.874.355,1.661.672,2.452.957a1.735,1.735,0,0,1,1.261,1.809c-.018.745-.012,1.5-.007,2.239l0,.4a1.409,1.409,0,0,1-.315,1.018.883.883,0,0,1-.646.256,1.663,1.663,0,0,1-.614-.136c-.812-.325-1.639-.651-2.439-.965-1.359-.535-2.764-1.087-4.137-1.657a3.751,3.751,0,0,1-2.18-2.459c-.123-.4-.269-.4-.317-.4a.607.607,0,0,0-.2.044.28.28,0,0,0-.089.047,1.457,1.457,0,0,0,.1.472l.013.041a4.428,4.428,0,0,0,2.794,2.893c.826.324,1.663.659,2.472.984,1.341.537,2.729,1.093,4.1,1.612a2.013,2.013,0,0,1,1.477,2.177c-.036.734-.03,1.487-.025,2.216,0,.329.005.669,0,1-.007,1.215-.814,1.309-1.061,1.309a1.738,1.738,0,0,1-.618-.128q-.686-.259-1.375-.517c-2.545-.954-5.177-1.94-7.677-3.149a6.556,6.556,0,0,1-3.464-3.712,1.1,1.1,0,0,0-.13-.279c-.081-.094-.235-.249-.377-.249a.3.3,0,0,0-.14.04l-.019.011a1.468,1.468,0,0,0,.079.361,6.854,6.854,0,0,0,3.072,3.861,27.206,27.206,0,0,0,4.607,2.1c.557.214,1.132.434,1.7.665,1.412.579,2.868,1.088,4.121,1.52a1.682,1.682,0,0,1,1.293,1.776c-.018.632-.015,1.279-.012,1.9q0,.367,0,.733a1.449,1.449,0,0,1-.356,1.078,1.034,1.034,0,0,1-.756.3,1.888,1.888,0,0,1-.6-.111c-.983-.331-1.987-.661-2.957-.981-2.337-.769-4.753-1.565-7.1-2.435a6.513,6.513,0,0,1-4.064-4.218c-.119-.361-.253-.361-.311-.361a.609.609,0,0,0-.178.032.333.333,0,0,0-.1.047,1.457,1.457,0,0,0,.1.467,7.026,7.026,0,0,0,4.676,4.589c2.253.782,4.554,1.548,6.78,2.289,1.1.368,2.246.748,3.368,1.126a2.41,2.41,0,0,1,1.433,1.444,2.459,2.459,0,0,1-.068,2.048,1.015,1.015,0,0,1-.916.565,1.427,1.427,0,0,1-.43-.072,45.048,45.048,0,0,0-5.887-1.275c-1.628-.277-3.311-.564-4.946-1a5.078,5.078,0,0,1-3.345-2.208c-.086-.146-.154-.146-.195-.146a.614.614,0,0,0-.265.078.309.309,0,0,0-.071.045.813.813,0,0,0,.1.306,3.638,3.638,0,0,0,1.829,1.772,22.933,22.933,0,0,0,6.3,1.639,42.108,42.108,0,0,1,5.446,1.11l.074.019a1.076,1.076,0,0,1,.84.661l.183.455-.451.192A17.053,17.053,0,0,1,75.77,75.659ZM68.6,54.119A20.625,20.625,0,0,0,66.294,64.9c.193,4.125,1.747,6.847,4.891,8.567a9.32,9.32,0,0,0,4.584,1.19A14.674,14.674,0,0,0,81.091,73.5a43.565,43.565,0,0,0-4.818-.944,23.8,23.8,0,0,1-6.575-1.72,4.612,4.612,0,0,1-2.313-2.253,1.677,1.677,0,0,1-.2-.8,1.028,1.028,0,0,1,.624-.878,1.6,1.6,0,0,1,.71-.182,1.2,1.2,0,0,1,1.056.638,4.126,4.126,0,0,0,2.74,1.749c1.591.422,3.251.705,4.857.978A45.8,45.8,0,0,1,83.192,71.4a.4.4,0,0,0,.14.026.222.222,0,0,0,.029-.043,1.454,1.454,0,0,0,.015-1.2,1.438,1.438,0,0,0-.821-.862c-1.121-.377-2.262-.757-3.366-1.125-2.229-.742-4.533-1.51-6.791-2.293a7.979,7.979,0,0,1-5.3-5.225,1.6,1.6,0,0,1-.037-1.238,1.109,1.109,0,0,1,.693-.541,1.6,1.6,0,0,1,.476-.078,1.306,1.306,0,0,1,1.261,1.05,5.545,5.545,0,0,0,3.461,3.591c2.333.863,4.74,1.656,7.068,2.423.972.32,1.977.651,2.964.983a.636.636,0,0,0,.335.054.693.693,0,0,0,.061-.367c0-.244,0-.486,0-.729,0-.634-.006-1.29.012-1.94.012-.387-.08-.616-.618-.8-1.267-.437-2.738-.952-4.175-1.54-.552-.227-1.122-.445-1.674-.657A27.959,27.959,0,0,1,72.15,58.7a7.828,7.828,0,0,1-3.5-4.418C68.634,54.236,68.617,54.181,68.6,54.119ZM88.062,73.513a13.748,13.748,0,0,0,5.315,1.041c.4,0,.827-.013,1.3-.041a9.118,9.118,0,0,0,7.916-6.69A21.1,21.1,0,0,0,101,54.716q-.144-.321-.3-.633l-.007.027c-.009.036-.018.072-.025.108A5.688,5.688,0,0,1,99.915,56a9.847,9.847,0,0,1-4.879,3.82l-.2.081c-2.652,1.1-5.395,2.235-8.175,3.157-.557.185-.728.412-.7.933.041.848.027,1.7.01,2.49a.981.981,0,0,0,.042.383h.028a1.164,1.164,0,0,0,.356-.077c.829-.283,1.674-.555,2.492-.819,1.142-.369,2.323-.75,3.468-1.161.527-.19,1.069-.357,1.593-.519a10.515,10.515,0,0,0,4.595-2.281,1.084,1.084,0,0,1,.772-.34,1.389,1.389,0,0,1,.961.459,1.1,1.1,0,0,1-.055,1.716A8.426,8.426,0,0,1,96.7,66.009c-3.619,1.218-6.58,2.208-9.321,3.116-.746.247-1.21.408-1.342.6a3.3,3.3,0,0,0-.076,1.47,1.165,1.165,0,0,0,.043.3,1.173,1.173,0,0,0,.289-.068A33.634,33.634,0,0,1,91.636,70.2q.456-.075.913-.147a29.827,29.827,0,0,0,5.236-1.162,3.467,3.467,0,0,0,1.885-1.3,1.606,1.606,0,0,1,1.321-.873,1.37,1.37,0,0,1,.872.34,1.063,1.063,0,0,1,.4,1.138,2.379,2.379,0,0,1-.425.774c-.033.045-.066.089-.1.132a6.625,6.625,0,0,1-3.764,2.411,37.307,37.307,0,0,1-5.129,1.048c-.772.12-1.571.244-2.347.389A21.85,21.85,0,0,0,88.062,73.513ZM69.683,52.578a1.486,1.486,0,0,1,1.134.6,1.8,1.8,0,0,1,.313.59,5.588,5.588,0,0,0,2.959,3.154c2.458,1.189,5.068,2.167,7.592,3.113q.689.258,1.378.518a.7.7,0,0,0,.276.063.761.761,0,0,0,.048-.314c0-.329,0-.666,0-.992-.006-.743-.011-1.511.026-2.273a1.041,1.041,0,0,0-.832-1.193c-1.381-.522-2.773-1.08-4.118-1.619-.808-.324-1.643-.658-2.466-.981a5.441,5.441,0,0,1-3.382-3.522l-.013-.04a2.189,2.189,0,0,1-.146-.84,1.124,1.124,0,0,1,.018-.129A26.907,26.907,0,0,0,69.475,52.6,1.22,1.22,0,0,1,69.683,52.578ZM96.86,48.853a2.248,2.248,0,0,1-.087.565c-.01.041-.02.081-.029.12a5.134,5.134,0,0,1-3.32,3.721c-2.3.952-4.618,1.849-6.776,2.676a.873.873,0,0,0-.69.989c.023.617.019,1.239.015,1.841,0,.4,0,.814,0,1.218a3.532,3.532,0,0,0,.041.585,3.888,3.888,0,0,0,.581-.173c2.672-.967,5.422-2.069,8.175-3.276A7.166,7.166,0,0,0,97.1,55.511,5.135,5.135,0,0,0,98.3,53.533a1.312,1.312,0,0,1,1.269-1,1.583,1.583,0,0,1,.262.023A24.071,24.071,0,0,0,96.86,48.853ZM90.9,43.882a1.654,1.654,0,0,1,.553.1.968.968,0,0,1,.689.809,1.894,1.894,0,0,1-.1.735l-.017.061a4.947,4.947,0,0,1-3.278,3.2c-.593.246-1.076.427-1.464.572-.689.258-1.105.414-1.221.593a3.733,3.733,0,0,0-.1,1.471c.007.42.016.942.009,1.583a3.108,3.108,0,0,0,.018.428,3.1,3.1,0,0,0,.412-.136c1.09-.423,2.194-.865,3.262-1.292.875-.35,1.779-.711,2.672-1.061A3.116,3.116,0,0,0,94.362,48.9a1.3,1.3,0,0,1,1.271-1.085,1.481,1.481,0,0,1,.214.016c-.649-.633-1.32-1.254-2-1.873-1.015-.925-2.086-1.829-3.123-2.7a55.852,55.852,0,0,1-5.928-5.515.831.831,0,0,0-.116-.112.782.782,0,0,0-.1.1,56.282,56.282,0,0,1-6.272,5.7c-1.027.843-2.089,1.715-3.1,2.605q-1.049.925-1.971,1.864a1.555,1.555,0,0,1,.507-.091c.349,0,.978.144,1.273,1.11A2.745,2.745,0,0,0,76.62,50.75c1.365.566,2.765,1.117,4.12,1.65.8.315,1.631.641,2.445.968a1.056,1.056,0,0,0,.184.058,1.3,1.3,0,0,0,.019-.261l0-.4c-.006-.742-.012-1.51.007-2.27a.752.752,0,0,0-.6-.845c-.809-.291-1.606-.612-2.489-.971a4.951,4.951,0,0,1-2.994-3.106,1.738,1.738,0,0,1-.11-.748.991.991,0,0,1,.615-.805,1.7,1.7,0,0,1,.678-.151,1.109,1.109,0,0,1,1.095.763c.447,1.3,1.511,1.707,2.743,2.184.229.089.465.18.7.278a1.03,1.03,0,0,0,.328.094.978.978,0,0,0,.034-.313c0-.193-.006-.39-.01-.58a14.862,14.862,0,0,1,.03-1.732,2.825,2.825,0,0,0-.015-.437,1.735,1.735,0,0,1,.284-1.384,1.315,1.315,0,0,1,1.012-.374h.024a1.279,1.279,0,0,1,.974.375,1.726,1.726,0,0,1,.279,1.368,2.924,2.924,0,0,0-.016.415c.043.551.036,1.1.03,1.635,0,.281-.007.572,0,.854,0,.039,0,.072.006.1.3-.12.6-.226.9-.329,1.237-.429,2.306-.8,2.81-2.043A1.276,1.276,0,0,1,90.9,43.882Z" transform="translate(-64.207 -30.3)" fill="#ff7519"/>
      <path id="Path_15918" data-name="Path 15918" d="M248.891,177.928a.5.5,0,0,1,.529.637c-.058.37-.13.8-.647.75-.392-.037-.74-.2-.692-.708C248.123,178.17,248.346,177.918,248.891,177.928Z" transform="translate(-211.403 -148.789)" fill="#ff7519"/>
      <path id="Path_15918_-_Outline" data-name="Path 15918 - Outline" d="M248.861,177.427h.058a1.07,1.07,0,0,1,.8.373,1.032,1.032,0,0,1,.193.841,2.009,2.009,0,0,1-.193.672.968.968,0,0,1-1,.5,1.4,1.4,0,0,1-.786-.295,1.054,1.054,0,0,1-.356-.959A1.17,1.17,0,0,1,248.861,177.427Zm.012,1h-.012c-.261,0-.266.053-.282.227a.22.22,0,0,0,0,.1.484.484,0,0,0,.237.063.186.186,0,0,0,.031,0,1.7,1.7,0,0,0,.074-.332.4.4,0,0,0,.005-.051A.378.378,0,0,0,248.873,178.428Z" transform="translate(-211.403 -148.789)" fill="#ff7519"/>
      <path id="Path_15919" data-name="Path 15919" d="M165.877,78.705a.6.6,0,0,1-.63.67.588.588,0,0,1-.689-.6.6.6,0,0,1,.669-.713A.6.6,0,0,1,165.877,78.705Z" transform="translate(-144.74 -68.635)" fill="#ff7519"/>
      <path id="Path_15919_-_Outline" data-name="Path 15919 - Outline" d="M165.226,77.56h0a1.088,1.088,0,0,1,1.149,1.12v.038a1.1,1.1,0,0,1-1.112,1.156h-.057a1.079,1.079,0,0,1-1.148-1.078,1.17,1.17,0,0,1,.293-.9A1.157,1.157,0,0,1,165.226,77.56Z" transform="translate(-144.74 -68.635)" fill="#ff7519"/>
    </g>
  </g>
</svg>
