<svg xmlns="http://www.w3.org/2000/svg" width="59.379" height="42.465" viewBox="0 0 59.379 42.465">
  <path id="Icon_awesome-hands" data-name="Icon awesome-hands" d="M2.819,3A4.324,4.324,0,0,1,7.138,7.319v12.53l7.5,9,1-1-3.308-4.411a4.318,4.318,0,0,1,3.449-6.909h0a4.349,4.349,0,0,1,3.46,1.725l5.075,6.767a12.709,12.709,0,0,1,2.555,7.665v9.866a2.913,2.913,0,0,1-2.909,2.909h-11.6a2.884,2.884,0,0,1-2.8-2.143l0-.006a3.76,3.76,0,0,0-.651-1.368L-.254,30.129A5.751,5.751,0,0,1-1.5,26.558V7.319A4.324,4.324,0,0,1,2.819,3Zm9.575,27.846L4.138,20.935V7.319a1.319,1.319,0,0,0-2.638,0V26.558a2.739,2.739,0,0,0,.6,1.706l.014.018,9.174,11.835a6.717,6.717,0,0,1,1.152,2.348H23.871V32.69a9.729,9.729,0,0,0-1.956-5.867l-5.073-6.764a1.316,1.316,0,0,0-1.061-.527h0a1.3,1.3,0,0,0-.784.262,1.32,1.32,0,0,0-.266,1.846l3.357,4.476a2.923,2.923,0,0,1-.271,3.8l-1.128,1.128a2.9,2.9,0,0,1-4.294-.2ZM53.56,3a4.324,4.324,0,0,1,4.319,4.319V26.558a5.75,5.75,0,0,1-1.246,3.57l-9.162,11.82a3.759,3.759,0,0,0-.651,1.368l0,.006a2.884,2.884,0,0,1-2.8,2.143h-11.6a2.913,2.913,0,0,1-2.909-2.909V32.69a12.707,12.707,0,0,1,2.554-7.664l5.075-6.767A4.349,4.349,0,0,1,40.6,16.532a4.273,4.273,0,0,1,2.587.864,4.324,4.324,0,0,1,.861,6.047l-3.307,4.41,1,1,7.5-9V7.319A4.324,4.324,0,0,1,53.56,3ZM43.943,42.465a6.718,6.718,0,0,1,1.152-2.348l0,0,9.185-11.849a2.739,2.739,0,0,0,.6-1.706V7.319a1.319,1.319,0,0,0-2.638,0V20.935l-8.258,9.914a2.915,2.915,0,0,1-4.292.2l-1.128-1.128a2.923,2.923,0,0,1-.271-3.8l3.356-4.475a1.321,1.321,0,0,0-.265-1.848,1.3,1.3,0,0,0-.784-.262,1.316,1.316,0,0,0-1.062.528l-5.073,6.764a9.727,9.727,0,0,0-1.955,5.865v9.776Z" transform="translate(1.5 -3)" fill="#ff7519"/>
</svg>
