<svg xmlns="http://www.w3.org/2000/svg" width="20.163" height="21.779" viewBox="0 0 20.163 21.779">
  <g id="ic_refuge_meaning" transform="translate(-23.418 -10.637)">
    <g id="ic_refuge_meaning-2" data-name="ic_refuge_meaning">
      <path id="Path_16055" data-name="Path 16055" d="M0,0H10.067L13.2,2.857l2.994,3.71v12.48H0Z" transform="translate(27.305 11.429)" fill="#ffebd8"/>
      <path id="file" d="M15.08,1.125H3.375v19.6H20.69V6.735Zm4.3,6.151v.056h-4.9v-4.9h.056ZM4.682,19.42V2.432h8.494V8.639h6.207V19.42Z" transform="translate(22.892 9.512)"/>
    </g>
    <g id="Group_106" data-name="Group 106" transform="translate(23.418 19.591)">
      <path id="Path_16251" data-name="Path 16251" d="M390.137,572.587a5.946,5.946,0,0,1-.005.719c-.046.37.08.533.466.554.707.039.953.433.825,1.123-.335,1.814-.991,3.34-2.934,4.028-.774.274-1.452.781-2.335.51-.245-.075-.38.153-.549.269a3.39,3.39,0,0,1-4.095-.006c-.149-.1-.276-.337-.465-.271-1.143.4-1.993-.371-2.929-.736A4.719,4.719,0,0,1,375.7,574.4c.086-.466.476-.506.783-.526.492-.032.543-.257.519-.67a11.356,11.356,0,0,1,.064-2c.076-.64.38-.811.893-.518.755.431,1.022.18,1.268-.595.557-1.758.61-1.755,2.157-.854.3.177.428.127.632-.126,1.551-1.917,1.507-2,3.122.019.249.311.37.244.627.085,1.622-1,1.381-1.078,2.153.808a1.532,1.532,0,0,1,.129.375c.062.51.233.652.775.432,1.15-.466,1.219-.394,1.3.87.02.292,0,.586,0,.88Zm-.913,5.326a3.776,3.776,0,0,0,1.57-2.88c.061-.326.053-.535-.359-.622-.4-.084-.459.126-.632.392-.615.949-.385,2.052-.634,3.063-.067.011-.125.029-.088.118Zm-11.34.041c.064.045.132.1.189,0,.006-.009-.062-.062-.1-.1-.243-1.045-.065-2.175-.677-3.153-.175-.28-.318-.383-.623-.288-.259.081-.385.185-.342.508A4.169,4.169,0,0,0,377.884,577.954Zm3.076-4.541a8.482,8.482,0,0,0,.132,1.355c.149.586.273.817.891.321,1.268-1.018,1.868-.974,3.194,0a2.2,2.2,0,0,1,.251.2c.271.269.41.108.5-.157a3.25,3.25,0,0,0,.173-.613c.352-2.429-.723-4.322-2.282-6.029-.174-.19-.331-.221-.521,0A7.859,7.859,0,0,0,380.96,573.414Zm5.205,4.2a3.614,3.614,0,0,0-2.546-2.647,3.51,3.51,0,0,0-2.654,2.633,2.622,2.622,0,0,0,5.2.014Zm.248,1.32a1.609,1.609,0,0,0,1.84-.745,3.4,3.4,0,0,0,.306-2.991c-.281-.916-.5-1-1.407-.643-.506.2-1.1,1.282-.848,1.655A2.456,2.456,0,0,1,386.413,578.932Zm-5.733.021c-.4-1.245-.471-1.686-.084-2.283a1.338,1.338,0,0,0,.082-1.372c-.213-.581-.632-.713-1.107-.874a.588.588,0,0,0-.832.362,3.555,3.555,0,0,0,.039,3.228A1.654,1.654,0,0,0,380.68,578.953Zm6.067-4.851c1.091-.507,1.958-.559,2.366.841a6.82,6.82,0,0,0,.388-3.383c-.016-.205-.115-.3-.3-.235a6.873,6.873,0,0,0-2.328,1.164C386.516,572.81,386.849,573.444,386.746,574.1Zm-6.378-.092c0-.356-.008-.648,0-.94s.086-.586-.27-.75c-.676-.312-1.344-.643-2.022-.953-.2-.092-.418-.148-.442.209a6.568,6.568,0,0,0,.343,3.231C378.812,573.632,378.812,573.632,380.369,574.01Zm.054-4.691c-.269-.051-.326.11-.382.253-.136.343-.236.7-.4,1.031-.352.718.152.946.651,1.138.6.231.363-.407.559-.6a1.781,1.781,0,0,0,.248-.492A.906.906,0,0,0,380.422,569.318Zm7.2,1.738c-.1-.3-.206-.626-.325-.946-.368-.991-.45-1.008-1.248-.378-.255.2-.315.372-.141.663s.27.634.444.927c.1.172.028.607.386.455C387.066,571.641,387.531,571.59,387.626,571.057Z" transform="translate(-375.664 -567.652)" fill="#1a1818"/>
      <path id="Path_16252" data-name="Path 16252" d="M408.716,577.011a7.858,7.858,0,0,1,2.341-4.924c.189-.218.347-.187.521,0,1.56,1.708,2.634,3.6,2.282,6.029a3.253,3.253,0,0,1-.173.613c-.094.265-.233.425-.5.156a2.2,2.2,0,0,0-.251-.2c-1.325-.978-1.926-1.022-3.194,0-.618.5-.742.265-.891-.321A8.483,8.483,0,0,1,408.716,577.011Z" transform="translate(-403.42 -571.249)" fill="#e93941"/>
      <path id="Path_16253" data-name="Path 16253" d="M413.947,615.937a2.622,2.622,0,0,1-5.2-.014,3.51,3.51,0,0,1,2.654-2.633A3.614,3.614,0,0,1,413.947,615.937Z" transform="translate(-403.446 -605.977)" fill="#e93941"/>
      <path id="Path_16254" data-name="Path 16254" d="M441.853,614.082a2.456,2.456,0,0,0-.11-2.725c-.256-.372.343-1.457.848-1.655.9-.353,1.126-.273,1.407.643a3.4,3.4,0,0,1-.306,2.991A1.609,1.609,0,0,1,441.853,614.082Z" transform="translate(-431.104 -602.801)" fill="#e93941"/>
      <path id="Path_16255" data-name="Path 16255" d="M394.863,614.152a1.654,1.654,0,0,1-1.9-.939,3.555,3.555,0,0,1-.039-3.228.588.588,0,0,1,.832-.362c.475.162.894.294,1.107.874a1.338,1.338,0,0,1-.082,1.372C394.392,612.467,394.464,612.907,394.863,614.152Z" transform="translate(-389.847 -602.851)" fill="#e93941"/>
      <path id="Path_16256" data-name="Path 16256" d="M444.6,593.241c.1-.658-.231-1.292.124-1.613a6.871,6.871,0,0,1,2.328-1.164c.186-.068.286.03.3.235a6.82,6.82,0,0,1-.388,3.383C446.557,592.682,445.69,592.734,444.6,593.241Z" transform="translate(-433.516 -586.791)" fill="#e93941"/>
      <path id="Path_16257" data-name="Path 16257" d="M390.456,593.119c-1.557-.378-1.557-.378-2.389.8a6.568,6.568,0,0,1-.343-3.231c.024-.357.24-.3.442-.209.678.309,1.345.641,2.022.953.356.164.28.461.27.75S390.456,592.763,390.456,593.119Z" transform="translate(-385.752 -586.761)" fill="#e93941"/>
      <path id="Path_16258" data-name="Path 16258" d="M381.357,613.233a4.173,4.173,0,0,1-1.549-3.03c-.043-.323.083-.427.342-.508.306-.1.448.007.623.288.612.978.435,2.108.677,3.153A1.116,1.116,0,0,0,381.357,613.233Z" transform="translate(-379.137 -602.93)" fill="#e93941"/>
      <path id="Path_16259" data-name="Path 16259" d="M459.949,613.193c.25-1.011.02-2.114.634-3.063.173-.267.236-.477.632-.392.412.088.42.3.359.622a3.776,3.776,0,0,1-1.57,2.88Z" transform="translate(-446.444 -602.978)" fill="#e93941"/>
      <path id="Path_16260" data-name="Path 16260" d="M400.658,578a.906.906,0,0,1,.678,1.326,1.781,1.781,0,0,1-.248.492c-.2.2.042.834-.559.6-.5-.192-1-.421-.651-1.138.162-.329.261-.689.4-1.031C400.332,578.112,400.389,577.951,400.658,578Z" transform="translate(-395.899 -576.335)" fill="#e93941"/>
      <path id="Path_16261" data-name="Path 16261" d="M440.813,579.719c-.094.533-.559.584-.884.722-.358.151-.284-.284-.386-.455-.174-.294-.269-.635-.444-.927s-.115-.462.141-.663c.8-.63.88-.613,1.248.378C440.607,579.093,440.711,579.419,440.813,579.719Z" transform="translate(-428.852 -576.314)" fill="#e93941"/>
      <path id="Path_16262" data-name="Path 16262" d="M389.612,631.352c.033.033.1.086.1.1-.057.1-.125.046-.189,0A1.127,1.127,0,0,1,389.612,631.352Z" transform="translate(-387.299 -621.145)" fill="#e8e6e6"/>
      <path id="Path_16263" data-name="Path 16263" d="M459.483,631.448l-.142.07c-.037-.089.02-.107.088-.118Z" transform="translate(-445.924 -621.186)" fill="#e8e6e6"/>
    </g>
  </g>
</svg>
