<svg xmlns="http://www.w3.org/2000/svg" width="16.333" height="16.333" viewBox="0 0 16.333 16.333">
  <g id="ic_thiet_lap" transform="translate(-2 -2)" style="isolation: isolate">
    <path id="Path_82" data-name="Path 82" d="M14.673,11a3.573,3.573,0,1,0,3.573,3.573A3.551,3.551,0,0,0,14.673,11Zm0,6.125a2.552,2.552,0,1,1,2.552-2.552A2.527,2.527,0,0,1,14.673,17.125Z" transform="translate(-4.455 -4.406)" fill="#6b9aeb"/>
    <path id="Path_83" data-name="Path 83" d="M17.721,8.482l-1.429-.459-.306-.766L16.7,5.93a.858.858,0,0,0-.153-.97L15.322,3.735a.858.858,0,0,0-.97-.153L13.025,4.3l-.766-.306L11.8,2.561A.83.83,0,0,0,11.034,2H9.3a.716.716,0,0,0-.715.613L8.125,4.042a2.255,2.255,0,0,0-.817.306L5.981,3.633a.858.858,0,0,0-.97.153L3.786,5.011a.858.858,0,0,0-.153.97L4.3,7.257c-.1.255-.2.561-.306.817l-1.429.459A.83.83,0,0,0,2,9.3v1.735a.813.813,0,0,0,.613.766l1.429.459.306.766-.715,1.327a.858.858,0,0,0,.153.97l1.225,1.225a.858.858,0,0,0,.97.153l1.327-.715.766.306.459,1.48a.83.83,0,0,0,.766.561h1.735a.83.83,0,0,0,.766-.561l.459-1.48.766-.306,1.327.715a.858.858,0,0,0,.97-.153l1.225-1.225a.858.858,0,0,0,.153-.97l-.715-1.327.306-.766,1.48-.459a.83.83,0,0,0,.561-.766V9.3a.874.874,0,0,0-.613-.817Zm-.408,2.4-1.838.561-.051.255-.459,1.072-.153.255.919,1.684L14.709,15.73l-1.684-.919-.255.153a4.846,4.846,0,0,1-1.072.459l-.255.051-.561,1.838H9.452l-.561-1.838-.255-.051-1.072-.459-.255-.153-1.684.919L4.6,14.709l.919-1.684-.153-.255A4.846,4.846,0,0,1,4.909,11.7l-.051-.255-1.838-.561V9.452l1.735-.51.1-.255a4.332,4.332,0,0,1,.459-1.123l.153-.255L4.6,5.624,5.624,4.6l1.633.919.255-.153a4.332,4.332,0,0,1,1.123-.459l.255-.1.561-1.786h1.429l.561,1.786.255.1a4.846,4.846,0,0,1,1.072.459l.255.153L14.709,4.6,15.73,5.624l-.919,1.684.153.255a4.846,4.846,0,0,1,.459,1.072l.051.255,1.838.561Z" fill="#6b9aeb"/>
  </g>
</svg>
