<svg xmlns="http://www.w3.org/2000/svg" width="15.413" height="14.312" viewBox="0 0 15.413 14.312">
  <g id="check2-circle" transform="translate(-3.375 -3.373)">
    <path id="Path_17069" data-name="Path 17069" d="M22.072,5.785a.55.55,0,0,1,0,.779L14.366,14.27a.55.55,0,0,1-.779,0l-3.3-3.3a.551.551,0,0,1,.779-.779L13.977,13.1l7.316-7.317a.55.55,0,0,1,.779,0Z" transform="translate(-3.447 -1.149)" fill="#00c40d" fill-rule="evenodd"/>
    <path id="Path_17070" data-name="Path 17070" d="M10.53,4.475a6.055,6.055,0,1,0,6.055,6.055.55.55,0,1,1,1.1,0,7.155,7.155,0,1,1-3.578-6.2.55.55,0,1,1-.55.952A6.024,6.024,0,0,0,10.53,4.475Z" transform="translate(0 0)" fill="#00c40d" fill-rule="evenodd"/>
  </g>
</svg>
