<svg xmlns="http://www.w3.org/2000/svg" width="14.276" height="14.276" viewBox="0 0 14.276 14.276">
  <g id="Iconly_Light-Outline_Time-Square" data-name="Iconly/Light-Outline/Time-Square" transform="translate(-2 -2)">
    <g id="Time-Square" transform="translate(2 2)">
      <path id="Combined-Shape" d="M10.232,0a3.916,3.916,0,0,1,4.044,4.223v5.83a3.916,3.916,0,0,1-4.045,4.223H4.044A3.916,3.916,0,0,1,0,10.053V4.223A3.916,3.916,0,0,1,4.044,0Zm0,1.071H4.044A2.873,2.873,0,0,0,1.071,4.223v5.83a2.873,2.873,0,0,0,2.973,3.152h6.187a2.874,2.874,0,0,0,2.974-3.152V4.223A2.873,2.873,0,0,0,10.232,1.071ZM7.137,3.486a.536.536,0,0,1,.535.535v2.81l2.16,1.287a.536.536,0,0,1-.549.921L6.863,7.595a.538.538,0,0,1-.261-.46V4.021A.536.536,0,0,1,7.137,3.486Z" fill="#ff7519" fill-rule="evenodd"/>
    </g>
  </g>
</svg>
