<svg xmlns="http://www.w3.org/2000/svg" width="16.536" height="16.539" viewBox="0 0 16.536 16.539">
  <g id="Group_282" data-name="Group 282" transform="translate(-788.577 3.371)">
    <path id="Path_16356" data-name="Path 16356" d="M791.256,9.8a1.672,1.672,0,0,1-.013-2.164,6.615,6.615,0,0,1-.709-.053,1.63,1.63,0,0,1,.3-3.23c.362,0,.724,0,1.112,0V4.149q0-3.268,0-6.535a.813.813,0,0,1,.888-.885h8.031a.813.813,0,0,1,.882.876v.717c.163.043.354.039.457.133s.125.288.185.448c.091-.053.182-.11.274-.162a.29.29,0,0,1,.374.047q.369.365.734.734a.294.294,0,0,1,.041.388c-.051.088-.1.175-.162.273.11.03.2.06.3.081a.291.291,0,0,1,.248.33q-.007.494,0,.986a.289.289,0,0,1-.253.326c-.094.021-.185.049-.3.078.058.1.114.187.166.279a.3.3,0,0,1-.047.388l-.721.721a.3.3,0,0,1-.4.044l-.264-.157c-.161.536-.075.541-.621.553v.54h1.3c.2,0,.319.1.32.269s-.1.26-.3.274a1.089,1.089,0,0,0,.043,2.178c.511.008,1.021,0,1.532,0,.236,0,.355.087.358.265s-.1.262-.329.281a1.089,1.089,0,0,0-.017,2.173c.023,0,.045,0,.068,0a.268.268,0,0,1,.278.279.264.264,0,0,1-.29.264c-.709,0-1.418,0-2.127,0a1.089,1.089,0,0,0-.061,2.178c.189.014.292.1.3.258a.267.267,0,0,1-.234.285,1.089,1.089,0,0,1-.136,0h-12.1a1.634,1.634,0,0,1-.154-3.264C790.551,9.8,790.891,9.8,791.256,9.8ZM799.3,1.985c-.119-.031-.217-.058-.316-.082a.279.279,0,0,1-.234-.306q0-.511,0-1.021a.278.278,0,0,1,.233-.306c.1-.026.2-.054.316-.084l-.145-.247A.3.3,0,0,1,799.2-.5q.342-.345.687-.686a.3.3,0,0,1,.426-.051l.27.157c.03-.385.155-.658.613-.544,0-.3.007-.57,0-.841a.244.244,0,0,0-.235-.252c-.28-.014-.562,0-.851,0V-2.5a.812.812,0,0,1-.861.862q-2.425,0-4.851,0a.809.809,0,0,1-.822-.816v-.272h-.687c-.32,0-.4.083-.4.4V4.342h8.7V3.814c-.478-.024-.447.06-.621-.549l-.25.145a.3.3,0,0,1-.427-.05q-.35-.346-.7-.7a.3.3,0,0,1-.049-.414C799.192,2.164,799.242,2.083,799.3,1.985ZM801.867,4.9c-.045,0-.068-.006-.09-.006q-5.452,0-10.9,0a1.241,1.241,0,0,0-.429.086,1.068,1.068,0,0,0-.651,1.211,1.087,1.087,0,0,0,1.116.878h10.819c.042,0,.083-.006.136-.009A1.68,1.68,0,0,1,801.867,4.9ZM803.5,7.62H792.576c-.04,0-.079,0-.119,0a1.09,1.09,0,1,0,.1,2.178h10.8c.043,0,.084,0,.14-.008A1.685,1.685,0,0,1,803.5,7.62Zm-2.186,2.73c-.042,0-.063-.006-.086-.006q-5.452,0-10.9,0a1.24,1.24,0,0,0-.429.086,1.069,1.069,0,0,0-.651,1.211,1.087,1.087,0,0,0,1.116.878h10.819c.042,0,.083-.006.134-.009A1.7,1.7,0,0,1,801.319,10.35Zm-.174-11.437c-.02.082-.039.158-.058.235s-.037.154-.06.23a.278.278,0,0,1-.445.182c-.138-.078-.272-.162-.4-.24l-.47.468c.079.133.164.268.24.4a.275.275,0,0,1-.182.445c-.155.044-.313.081-.461.12v.657c.164.041.319.075.471.119a.275.275,0,0,1,.178.436c-.079.143-.166.28-.234.4l.459.485c.134-.08.264-.161.4-.236a.278.278,0,0,1,.454.187c.042.151.078.3.116.456h.658c.04-.159.075-.313.117-.465a.278.278,0,0,1,.446-.182c.138.078.272.161.4.238l.472-.466c-.08-.134-.165-.268-.242-.406a.276.276,0,0,1,.183-.444c.152-.042.306-.078.461-.116V.753c-.163-.041-.317-.075-.469-.117a.276.276,0,0,1-.18-.436c.078-.142.165-.28.236-.4l-.461-.481c-.133.079-.263.16-.4.235a.278.278,0,0,1-.454-.186c-.042-.151-.078-.3-.117-.456Zm-7.007-1.632c-.057.433.03.537.444.537h4.084c.193,0,.386,0,.578,0a.289.289,0,0,0,.324-.31c0-.073,0-.145,0-.226Z" transform="translate(0)" fill="#6973b1" stroke="#6973b1" stroke-width="0.2"/>
    <path id="Path_16357" data-name="Path 16357" d="M798.458,1.061v.553H795.6V1.061Z" transform="translate(-0.451 -0.244)" fill="#6973b1" stroke="#6973b1" stroke-width="0.2"/>
    <path id="Path_16358" data-name="Path 16358" d="M796.169.456V-.09h2.285V.456Z" transform="translate(-0.47 -0.179)" fill="#6973b1" stroke="#6973b1" stroke-width="0.2"/>
    <path id="Path_16359" data-name="Path 16359" d="M794.444,2.763V2.21h2.28v.553Z" transform="translate(-0.361 -0.308)" fill="#6973b1" stroke="#6973b1" stroke-width="0.2"/>
    <path id="Path_16360" data-name="Path 16360" d="M795.578-.091V.462h-1.127V-.091Z" transform="translate(-0.336 -0.179)" fill="#6973b1" stroke="#6973b1" stroke-width="0.2"/>
    <path id="Path_16361" data-name="Path 16361" d="M797.323,2.762V2.211h1.135v.551Z" transform="translate(-0.503 -0.308)" fill="#6973b1" stroke="#6973b1" stroke-width="0.2"/>
    <path id="Path_16362" data-name="Path 16362" d="M795,1.615h-.552V1.06H795Z" transform="translate(-0.324 -0.244)" fill="#6973b1" stroke="#6973b1" stroke-width="0.2"/>
    <path id="Path_16363" data-name="Path 16363" d="M800.474,6.245V6.8h-10.06V6.245Z" transform="translate(0 -0.535)" fill="#6973b1" stroke="#6973b1" stroke-width="0.2"/>
    <path id="Path_16364" data-name="Path 16364" d="M801.623,6.8h-.55V6.245h.55Z" transform="translate(-0.697 -0.535)" fill="#6973b1" stroke="#6973b1" stroke-width="0.2"/>
    <path id="Path_16365" data-name="Path 16365" d="M793.289,9.676V9.127h10.059v.549Z" transform="translate(-0.601 -0.697)" fill="#6973b1" stroke="#6973b1" stroke-width="0.2"/>
    <path id="Path_16366" data-name="Path 16366" d="M792.692,9.683h-.546V9.125h.546Z" transform="translate(-0.195 -0.697)" fill="#6973b1" stroke="#6973b1" stroke-width="0.2"/>
    <path id="Path_16367" data-name="Path 16367" d="M799.9,12v.549H789.843V12Z" transform="translate(0 -0.94)" fill="#6973b1" stroke="#6973b1" stroke-width="0.2"/>
    <path id="Path_16368" data-name="Path 16368" d="M801.049,12.56H800.5V12h.553Z" transform="translate(-0.664 -0.94)" fill="#6973b1" stroke="#6973b1" stroke-width="0.2"/>
    <path id="Path_16369" data-name="Path 16369" d="M802.2,2.487a1.143,1.143,0,0,1-1.14-1.163,1.152,1.152,0,0,1,2.3.023A1.143,1.143,0,0,1,802.2,2.487Zm.586-1.125a.575.575,0,0,0-1.149-.053.575.575,0,1,0,1.149.053Z" transform="translate(-0.683 -0.242)" fill="#6973b1" stroke="#6973b1" stroke-width="0.2"/>
  </g>
</svg>
